<?xml version="1.0" encoding="UTF-8"?>
<svg xmlns="http://www.w3.org/2000/svg" viewBox="0 0 392 512">
  <defs>
    <style>
      .cls-1 {
        fill: #5c9a87;
      }

      .cls-1, .cls-2, .cls-3, .cls-4, .cls-5, .cls-6, .cls-7, .cls-8, .cls-9, .cls-10, .cls-11, .cls-12, .cls-13, .cls-14, .cls-15, .cls-16, .cls-17, .cls-18, .cls-19, .cls-20, .cls-21, .cls-22, .cls-23, .cls-24, .cls-25, .cls-26, .cls-27, .cls-28, .cls-29, .cls-30, .cls-31, .cls-32, .cls-33, .cls-34, .cls-35, .cls-36, .cls-37, .cls-38, .cls-39, .cls-40, .cls-41, .cls-42, .cls-43, .cls-44, .cls-45 {
        stroke-width: 0px;
      }

      .cls-2 {
        fill: #fdab00;
      }

      .cls-3 {
        fill: #ff9f48;
      }

      .cls-4 {
        fill: #f18a8b;
      }

      .cls-5 {
        fill: #d0daed;
      }

      .cls-6 {
        fill: #427598;
      }

      .cls-7 {
        fill: #274589;
      }

      .cls-46 {
        opacity: .5;
      }

      .cls-8 {
        fill: #353234;
      }

      .cls-9 {
        fill: #1d2a47;
      }

      .cls-47 {
        opacity: .6;
      }

      .cls-10 {
        fill: #fbb94d;
      }

      .cls-11 {
        fill: #ef7c59;
      }

      .cls-12 {
        fill: #6fc183;
      }

      .cls-48 {
        isolation: isolate;
      }

      .cls-13 {
        opacity: .47;
      }

      .cls-13, .cls-20 {
        fill: #132c54;
      }

      .cls-14 {
        fill: #93493a;
      }

      .cls-15 {
        fill: #f3ce90;
      }

      .cls-16 {
        fill: #231963;
      }

      .cls-18 {
        fill: #c0d6f2;
      }

      .cls-19 {
        fill: #d87d82;
      }

      .cls-49 {
        opacity: .8;
      }

      .cls-21 {
        fill: #2d2d2d;
      }

      .cls-22 {
        fill: #284b89;
      }

      .cls-23 {
        fill: #2c4da2;
      }

      .cls-24 {
        fill: #40947e;
      }

      .cls-25 {
        fill: #99b1da;
      }

      .cls-50 {
        opacity: .19;
      }

      .cls-26 {
        fill: #d8ae00;
      }

      .cls-27 {
        fill: #fff;
      }

      .cls-28 {
        fill: #fcd456;
      }

      .cls-51 {
        opacity: .3;
      }

      .cls-29 {
        fill: #0e1d61;
      }

      .cls-30 {
        fill: #a5bfdf;
      }

      .cls-31 {
        fill: #2f4171;
      }

      .cls-32 {
        fill: #b5dda9;
      }

      .cls-33 {
        fill: #81bc8c;
      }

      .cls-34 {
        fill: #f28e3d;
      }

      .cls-35 {
        fill: #88aad3;
      }

      .cls-52 {
        mix-blend-mode: overlay;
        opacity: .58;
      }

      .cls-36 {
        fill: #6385c1;
      }

      .cls-37 {
        fill: #4095b6;
      }

      .cls-38 {
        fill: #d1dbed;
      }

      .cls-39 {
        opacity: .15;
      }

      .cls-40 {
        fill: #f5b0a6;
      }

      .cls-41 {
        fill: #78291b;
      }

      .cls-42 {
        fill: #b5cae8;
      }

      .cls-43 {
        fill: #5681bf;
      }

      .cls-44 {
        fill: #2e6857;
      }

      .cls-45 {
        fill: #f19a6d;
      }
    </style>
  </defs>
  <g class="cls-48">
    <g id="Layer_1" data-name="Layer 1">
      <g>
        <g class="cls-50">
          <ellipse class="cls-20" cx="195.39" cy="480" rx="189.4" ry="14.94"></ellipse>
        </g>
        <g>
          <g class="cls-49">
            <polygon class="cls-25" points="351.69 74.76 366.98 69.24 369.87 53.06 354.57 58.59 351.69 74.76"></polygon>
            <polygon class="cls-42" points="339.25 64.28 351.69 74.76 354.57 58.59 342.14 48.11 339.25 64.28"></polygon>
            <polygon class="cls-38" points="342.14 48.11 354.57 58.59 369.87 53.06 357.44 42.57 342.14 48.11"></polygon>
          </g>
          <g class="cls-52">
            <polygon class="cls-36" points="351.1 80.8 371.95 72.75 375.44 50.44 354.59 58.49 351.1 80.8"></polygon>
            <polygon class="cls-35" points="333.7 66.76 351.1 80.8 354.59 58.49 337.19 44.45 333.7 66.76"></polygon>
            <polygon class="cls-18" points="337.19 44.45 354.59 58.49 375.44 50.44 358.05 36.38 337.19 44.45"></polygon>
          </g>
        </g>
        <g>
          <g>
            <path class="cls-1" d="M298.4,389.33c-9.73-1.71-27.84,20.24-29.68,41.83-1.31,15.35,5.35,33.65,14.3,34.01,9.41.38,19.63-19.16,23.07-33.6,4.17-17.48,1.55-40.61-7.69-42.24Z"></path>
            <path class="cls-32" d="M291.5,406.26c-.68,2.15-1.26,4.12-1.78,6.02-1.14,4.06-2.18,8.28-3.09,12.54-2.84,13.29-4.31,26.85-4.35,40.3l.53-.03c.05-13.42,1.51-26.95,4.34-40.21.91-4.25,1.95-8.46,3.08-12.52.52-1.89,1.1-3.86,1.78-6.01,1.78-5.69,3.84-11.42,6.13-17.01l-.49-.14c-2.29,5.61-4.36,11.34-6.15,17.05Z"></path>
            <polygon class="cls-32" points="291.67 406.09 291.85 406.53 306.88 400.82 306.7 400.37 291.67 406.09"></polygon>
            <polygon class="cls-32" points="289.88 412.12 290.07 412.56 307.46 405.4 307.28 404.96 289.88 412.12"></polygon>
            <polygon class="cls-32" points="274.7 412.45 286.86 421.17 287.19 420.78 275.04 412.07 274.7 412.45"></polygon>
            <polygon class="cls-32" points="271.89 416.82 286.47 426.6 286.8 426.21 272.21 416.42 271.89 416.82"></polygon>
          </g>
          <g>
            <path class="cls-33" d="M301.61,436.28c-7.49,7.33-12.67,19.17-8.74,22.74,4.13,3.75,17.58-2.34,25.64-8.4,9.76-7.33,18.95-20.11,15.46-24.43-3.68-4.55-21.81-.22-32.35,10.09Z"></path>
            <path class="cls-1" d="M323.15,432.14c-1.3.85-2.45,1.64-3.52,2.4-2.34,1.64-4.71,3.4-7.05,5.23-7.28,5.71-14.04,12.07-20.11,18.9l.4.29c6.04-6.81,12.78-13.15,20.03-18.84,2.33-1.82,4.69-3.58,7.03-5.21,1.07-.76,2.22-1.54,3.51-2.39,3.36-2.22,6.88-4.36,10.44-6.35l-.25-.41c-3.57,1.99-7.1,4.14-10.47,6.37Z"></path>
            <polygon class="cls-1" points="323.21 432.56 332.64 435.33 332.83 434.87 323.4 432.1 323.21 432.56"></polygon>
            <polygon class="cls-1" points="319.69 434.96 330.85 437.89 331.03 437.43 319.86 434.5 319.69 434.96"></polygon>
            <polygon class="cls-1" points="311.47 440.11 312.08 440.09 311.95 429.22 311.34 429.25 311.47 440.11"></polygon>
            <polygon class="cls-1" points="308.46 442.97 309.03 442.94 308.51 431.1 307.94 431.13 308.46 442.97"></polygon>
          </g>
          <g>
            <path class="cls-30" d="M239.88,436.9c-1.18,4.38,10.63,15.28,20.92,21.06,8.5,4.78,21.24,9.03,23.12,5.11,1.79-3.72-6.54-14.18-15.05-20.19-11.97-8.46-27.75-10.59-29-5.98Z"></path>
            <path class="cls-5" d="M254.21,443.13c-1.13-.6-2.31-1.2-3.62-1.85-3.45-1.72-6.99-3.34-10.5-4.81l-.24.44c3.51,1.47,7.03,3.08,10.47,4.8,1.31.65,2.49,1.25,3.61,1.85,2.41,1.27,4.9,2.65,7.39,4.1,7.74,4.52,15.31,9.7,22.51,15.4l.36-.37c-7.21-5.71-14.8-10.9-22.56-15.44-2.5-1.46-4.99-2.84-7.41-4.11Z"></path>
            <polygon class="cls-5" points="264.6 449.39 265.12 449.33 263.44 439.53 262.91 439.59 264.6 449.39"></polygon>
          </g>
          <g>
            <path class="cls-1" d="M91.66,413.21c-6.51,3.5-2.75,21.46,4.69,33.5,6.15,9.95,18.62,22.05,25.57,19.44,6.61-2.48,7.06-17.82,2.29-28.98-6.71-15.7-25.69-27.65-32.55-23.96Z"></path>
            <path class="cls-32" d="M103.83,428.24c-.86-1.29-1.78-2.62-2.82-4.07-2.75-3.83-5.71-7.61-8.81-11.24l-.33.23c3.1,3.62,6.05,7.39,8.79,11.21,1.04,1.44,1.96,2.77,2.81,4.05,1.85,2.75,3.67,5.65,5.4,8.6,5.4,9.22,9.84,18.98,13.19,29.01l.4-.11c-3.36-10.05-7.81-19.84-13.22-29.08-1.74-2.96-3.56-5.87-5.41-8.62Z"></path>
            <polygon class="cls-32" points="88.16 423.9 100.82 424.46 100.84 424.09 88.18 423.52 88.16 423.9"></polygon>
            <polygon class="cls-32" points="88.85 427.47 103.64 428.53 103.67 428.16 88.88 427.1 88.85 427.47"></polygon>
            <polygon class="cls-32" points="107.82 433.97 108.17 434.18 115.11 424.65 114.76 424.45 107.82 433.97"></polygon>
            <polygon class="cls-32" points="109.46 437.93 109.8 438.15 118.29 427.22 117.95 427.01 109.46 437.93"></polygon>
          </g>
          <g>
            <path class="cls-32" d="M100.86,449.13c-10.43-5.11-25.07-3.87-26.7.45-1.54,4.1,8.49,11.39,17.61,14.46,7.53,2.54,19.09,3.78,21.26-.05,2.06-3.64-4.75-11.22-12.16-14.85Z"></path>
            <path class="cls-1" d="M86.95,452.28c-.99-.3-2.05-.6-3.23-.92-3.08-.84-6.24-1.57-9.41-2.18l-.09.37c3.16.61,6.31,1.34,9.38,2.17,1.18.32,2.23.62,3.21.92,2.15.65,4.35,1.37,6.55,2.16,6.83,2.46,13.44,5.54,19.64,9.14l.23-.32c-6.23-3.62-12.86-6.71-19.72-9.18-2.2-.79-4.41-1.52-6.57-2.17Z"></path>
            <polygon class="cls-1" points="77.16 455.8 77.41 456.1 83.79 451.69 83.53 451.39 77.16 455.8"></polygon>
            <polygon class="cls-1" points="79.14 457.26 79.38 457.57 87.01 452.61 86.77 452.31 79.14 457.26"></polygon>
            <polygon class="cls-1" points="91.38 446.41 93.97 454.57 94.44 454.44 91.84 446.27 91.38 446.41"></polygon>
            <polygon class="cls-1" points="94.42 446.96 96.96 455.95 97.4 455.83 94.85 446.85 94.42 446.96"></polygon>
          </g>
        </g>
        <g>
          <path class="cls-40" d="M62.59,466.35c.18-.32.38-.64.58-.95.04-.07.09-.14.13-.21.5-.81.95-1.65,1.35-2.51.15-.32.29-.65.45-.97.13-.27.11-4.95.04-5.86l8.16.12.21,4.34c.64.61,1.18,1.37,1.66,2.17.14.23.27.47.41.71.13.25.26.49.39.74.14.29.28.57.42.85.13.27.26.54.38.8.02.03.03.07.05.1.49,1.02.97,2.05,1.46,3.07.8,1.68,1.6,3.37,2.4,5.06.51,1.07,1.02,2.15,1.76,3.07.1.13.21.25.32.37h0c.69.75,1.57,1.33,2.55,1.51.57.1.96.37.96.83h-8.32c-.38-.34-.73-.74-1.06-1.13-1.37-1.62-2.75-3.31-4.56-4.44-1.42-.88-2.84-1.13-4.37-1.4-.47-.08-.95-.17-1.44-.27-.01,0-.02,0-.03,0-.89-.19-1.8-.54-2.56-1.05-1.14-.76-2.22-1.85-1.96-3.36.1-.57.33-1.09.6-1.59Z"></path>
          <g>
            <g>
              <g>
                <path class="cls-40" d="M33.08,339.63c1.16-.42,2.4-.5,3.63-.56,4.3-.2,8.61-.13,12.9.22,2.11.17,5.13,1.25,6.36,3.1.95,1.42.9,3.26.82,4.97-.5,10.34-1,20.67-1.49,31.01-.08,1.63-.16,3.26-.4,4.88-.71,4.69-2.01,9.15-2.2,13.87-.22,5.4-1.12,10.86-1.63,16.25-.51,5.38-.99,10.76-1.43,16.14-.45,5.46-.88,10.93-1.27,16.39-.27,3.8-.53,7.6-.77,11.4-.14,2.18-.27,4.38-.18,6.56.01.03.03.06.04.08.14.29.28.57.42.85.13.27.25.54.38.8.02.03.03.07.05.1.49,1.02.97,2.05,1.46,3.07.8,1.68,1.6,3.37,2.4,5.06.51,1.07,1.02,2.15,1.76,3.07.1.13.21.25.32.37h0c.69.75,1.57,1.33,2.55,1.51.57.1.96.37.96.83h-8.31c-.38-.34-.73-.74-1.06-1.13-1.37-1.62-2.75-3.31-4.56-4.44-1.42-.88-2.84-1.13-4.37-1.4-.47-.08-.95-.17-1.44-.27,0,0-.02,0-.03,0-.89-.19-1.8-.54-2.56-1.05-1.14-.76-2.22-1.85-1.96-3.36.1-.57.33-1.09.61-1.59.18-.32.38-.64.58-.95.04-.07.09-.14.13-.21.5-.81.95-1.65,1.35-2.51.15-.32.29-.65.45-.97.16-.32.32-.64.52-.94-.42-6.51-1.16-13-2.23-19.43-2.35-14.14-4.8-28.44-3.8-42.91.37-5.36,1.54-10.57,2.14-15.88.63-5.67.33-11.51.05-17.2-.34-6.94-2.87-13.7-3.15-20.73-.03-.88-.04-1.79.29-2.6.46-1.14,1.53-1.95,2.68-2.37Z"></path>
                <path class="cls-41" d="M35.76,463.2s.07.03.1.04c.32.13.57.4.81.67.45.52,1,1.13,1.29,1.78.28.63.45,1.13.88,1.69.42.53.87,1.04,1.36,1.53.64.65,1.33,1.26,2.02,1.86,1.21,1.21,2.44,2.39,3.75,3.47.96.81,1.94,1.51,3.02,1.99.47.21.96.38,1.48.51.12.03.25.06.38.08,1.11.21,2.23.21,3.33.36.07,0,.13.02.2.03.62.09,1.24.24,1.84.49.52.23,1.06.46,1.51.84.34.28.62.66.75,1.08h-10.67c-.13-.14-.27-.3-.4-.5-1.57-2.33-3.29-4.25-5.9-5.28-.43-.17-.92-.41-1.42-.55-.06-.02-.12-.04-.18-.05-.42-.1-.84-.13-1.22.02-.03.02-.07.03-.1.04-.72.35-.43,1.1-.43,1.74,0,.7,0,1.39,0,2.09,0,.81,0,1.61,0,2.42,0,0-1.42-.04-1.52-.04-.39-.01-.93.3-.96-.32-.05-1.11-.09-2.21-.14-3.31-.04-.96-.1-2-.54-2.87-.41-.81-.95-1.57-1.32-2.41-.51-1.13-.5-2.44-.21-3.64.21-.88,1.05-4.18,2.29-3.77Z"></path>
                <path class="cls-41" d="M64,463.2s.07.03.1.04c.32.13.57.4.81.67.45.52,1,1.13,1.29,1.78.28.63.45,1.13.88,1.69.42.53.87,1.04,1.36,1.53.64.65,1.33,1.26,2.02,1.86,1.21,1.21,2.44,2.39,3.75,3.47.96.81,1.94,1.51,3.02,1.99.47.21.96.38,1.48.51.13.03.25.06.38.08,1.11.21,2.23.21,3.33.36.07,0,.13.02.2.03.62.09,1.24.24,1.84.49.52.23,1.06.46,1.51.84.34.28.62.66.75,1.08h-10.67c-.13-.14-.27-.3-.4-.5-1.57-2.33-3.29-4.25-5.9-5.28-.43-.17-.92-.41-1.42-.55-.06-.02-.12-.04-.18-.05-.42-.1-.84-.13-1.22.02-.03.02-.07.03-.1.04-.72.35-.43,1.1-.43,1.74,0,.7,0,1.39,0,2.09,0,.81,0,1.61,0,2.42,0,0-1.42-.04-1.52-.04-.39-.01-.93.3-.96-.32-.05-1.11-.09-2.21-.14-3.31-.04-.96-.1-2-.54-2.87-.42-.81-.95-1.57-1.32-2.41-.5-1.13-.5-2.44-.21-3.64.21-.88,1.05-4.18,2.29-3.77Z"></path>
              </g>
              <path class="cls-29" d="M31.61,277.41c1.24-3.54,2.8-7.18,5.71-9.43,2.31-1.78,5.21-2.48,8.06-2.9,5.57-.82,11.26-.69,16.79.36.9.17,1.83.38,2.57.93,1.84,1.35,1.92,4.12,1.79,6.46-.51,8.98-1.33,17.93-2.47,26.85-1.06,8.33-1.03,16.57-1.43,24.97-2.16,44.77-7.38,89.6-11.94,134.18h-19.36c0-.56,0-1.05-.01-1.37-.13-2.23-.24-4.46-.34-6.7-.38-9.11-.47-18.22-.85-27.33-.36-8.62-.71-17.24-1.08-25.85-.73-17.08-1.51-34.15-2.45-51.21-.69-12.46-1.38-24.94-1.16-37.42.19-10.62,2.69-21.56,6.17-31.54Z"></path>
              <path class="cls-23" d="M31.61,277.41c1.24-3.54,2.8-7.18,5.71-9.43,2.31-1.78,5.21-2.48,8.06-2.9,5.57-.82,11.26-.69,16.79.36.9.17,1.83.38,2.57.93,1.84,1.35,1.92,4.12,1.79,6.46-.51,8.97-1.33,17.93-2.47,26.85-1.06,8.33-1.03,16.57-1.43,24.97-2.16,44.77-7.38,89.6-11.94,134.18l-14.65-5.11-8.63-92c-.26-5.11-.52-10.23-.81-15.34-.69-12.46-1.38-24.94-1.16-37.42.19-10.62,2.69-21.56,6.17-31.54Z"></path>
              <path class="cls-29" d="M53.79,293.49c-.11-8.3-.22-16.67,1.17-24.85.39-2.32,1.16-4.95,3.27-5.84.79-.33,1.66-.36,2.51-.38,8.5-.2,17.01-.15,25.5.16,1.67.06,3.63.3,4.46,1.81.42.76.44,1.68.45,2.55.06,6.92.13,13.84.19,20.76.06,6.57.68,13.41.11,19.92-.49,5.6-.31,11.38-.58,17.01-2.16,44.77-7.38,89.6-11.94,134.18h-19.36c0-.56,0-1.05-.01-1.37-.13-2.23-.24-4.46-.34-6.7-.38-9.11-.47-18.22-.85-27.33-.36-8.62-.71-17.24-1.08-25.85-.73-17.08-1.51-34.15-2.45-51.21-.69-12.46-1.38-24.94-1.16-37.42.09-5.18.18-10.27.11-15.46Z"></path>
              <path class="cls-23" d="M53.79,293.49c-.11-8.3-.22-16.67,1.17-24.85.39-2.32,1.16-4.95,3.26-5.84.79-.33,1.66-.36,2.51-.38,8.5-.2,17.01-.15,25.5.16,1.67.06,3.63.3,4.46,1.81.42.76.44,1.68.45,2.55.06,6.92.13,13.84.19,20.76.06,6.57-3.27,14.77-3.83,21.28-.49,5.6,0,5.65-.28,11.28-.7,14.46,1.93,33.31.72,47.78l-12.55,87.78-15.82,2.99-2.37-63.32c-.71-16.38-4.66-32.82-5.57-49.19-.69-12.46,1.83-24.88,2.05-37.36.09-5.18.18-10.27.11-15.46Z"></path>
            </g>
            <path class="cls-27" d="M58.67,213.21c.18-4.07.36-8.17,1.39-12.11,1.23-4.69,3.99-10.13,8.56-12.33.47-.23.95-.42,1.46-.57,2.62-.79,5.45-.68,8.1,0,1.61.41,3.17,1.03,4.71,1.64,1.87.74,3.75,1.48,5.55,2.39,1.85.93,4.87,2.15,5.55,4.27.9,2.8,1.64,5.63,2.24,8.49,3.63,17.26,2.14,35.46-1.07,52.91-.58,3.16-1.69,6.86-4.76,7.81-1.35.42-2.8.18-4.21.01-8.08-.95-16.26.68-24.39.17-1.19-.07-2.44-.22-3.4-.92-1.76-1.29-1.83-3.85-1.74-6.03.66-15.24,1.32-30.49,1.99-45.73Z"></path>
            <path class="cls-3" d="M32.44,250.1c1.71-6.71,1.68-13.25,2.37-20.14.72-7.2,1.42-14.05,4.12-20.93,1.1-2.79,2.52-5.45,4.25-7.89.87-1.23,1.95-2.3,2.84-3.5.75-1.01.9-2.25,1.88-3.18.84-.79,1.88-1.34,2.9-1.87,2.45-1.27,4.9-2.55,7.5-3.49,2.84-1.03,6.51-2.35,9.53-2.01,3.31.37,6.61.13,9.93.72,2.23.4,4.36,1.15,6.49,1.93,1.59.58,3.18,1.17,4.81,1.64,3.89,1.11,5.79,3.79,8.6,6.56,2.31,2.28,4.55,4.7,6.2,7.52,1.6,2.73,3.34,5.03,3.91,8.27.4,2.29.29,4.64.11,6.95-.13,1.68-.3,3.36-.49,5.03-.16,1.43-.34,2.85-.52,4.28-1.28,10.02-3.12,19.81-5.44,29.63-2.43,10.29-3.76,20.49-4.99,30.97-1.12,9.52-2.24,19.03-3.36,28.55-.34,2.88-5.34,1.21-7.54.8-.38-.07-.78-.17-1.04-.45-.32-.35-.32-.88-.31-1.36.64-19.51,2.2-38.99,4.68-58.35,1.04-8.13,2.44-16.2,3.69-24.3,1.09-7.02,2.06-14.07,2.6-21.15.47-6.22.93-13.06-1.69-18.89-.5-1.11-2.07-1.6-3.1-2.17-1.4-.78-2.8-1.55-4.3-2.12-1-.38-2.04-.65-3.07-.93-2.23-.59-4.45-1.18-6.68-1.78-.62-.16-1.43-.26-1.76.29-.15.25-.14.57-.13.87.18,3.5.6,6.96.67,10.5.14,7.62-1.31,15.49-2.06,23.07-.83,8.42-1.66,16.85-2.49,25.27-1.17,11.84-2.34,23.69-4.11,35.46-.9,5.95-1.95,11.88-3.23,17.77-.78,3.58-.99,7.42-2.67,10.75-2.19,4.36-5,4.67-9.73,4.41-9.84-.55-19.6-2.45-28.92-5.64.83-13.05,3.27-25.97,5.66-38.81,1.39-7.47,3.02-14.89,4.9-22.26Z"></path>
            <path class="cls-10" d="M32.44,250.1c1.71-6.71,1.68-13.25,2.37-20.14.72-7.2,1.42-14.05,4.12-20.93,1.1-2.79,2.52-5.45,4.25-7.89.87-1.23,1.95-2.3,2.84-3.5.75-1.01.9-2.25,1.88-3.18.84-.79,1.88-1.34,2.9-1.87,2.45-1.27,4.9-2.55,7.5-3.49,2.84-1.03,6.51-2.35,9.53-2.01,3.31.37,6.61.13,9.93.72,2.23.4,4.36,1.15,6.49,1.93,1.59.58,3.18,1.17,4.81,1.64,3.89,1.11,5.79,3.79,8.6,6.56,2.31,2.28,7.8,14.63,8.36,17.86.4,2.29,2.04,2.56,1.85,4.88-.13,1.68-.3,3.36-.49,5.03-.16,1.43-.34,2.85-.52,4.28-1.28,10.02-3.12,19.81-5.44,29.63-2.43,10.29-3.76,20.49-4.99,30.97-1.12,9.52-2.24,19.03-3.36,28.55-.34,2.88-5.34,1.21-7.54.8-.38-.07-.78-.17-1.04-.45-.32-.35-.32-.88-.31-1.36.64-19.51,2.2-38.99,4.68-58.35,1.04-8.13,2.44-16.2,3.69-24.3,1.09-7.02,2.06-14.07,2.6-21.15.47-6.22.93-13.06-1.69-18.89-.5-1.11-2.07-1.6-3.1-2.17-1.4-.78-2.8-1.55-4.3-2.12-1-.38-2.04-.65-3.07-.93-2.23-.59-4.45-1.18-6.68-1.78-.62-.16-1.43-.26-1.76.29-.15.25-.14.57-.13.87.18,3.5.6,6.96.67,10.5.14,7.62-3.86,15.92-4.61,23.51-.83,8.42-.74,17.2-1.57,25.62-1.17,11.84-.71,22.9-2.48,34.67-.9,5.95-1.95,11.88-3.23,17.77-.78,3.58-.99,7.42-2.67,10.75-2.19,4.36-5,4.67-9.73,4.41-9.84-.55-16.91-5.17-26.23-8.36.83-13.05.58-23.26,2.97-36.09,1.39-7.47,3.02-14.89,4.9-22.26Z"></path>
            <g>
              <g>
                <path class="cls-27" d="M39.08,268.61c.08.07.17.14.25.21-1.65-.88-3.27-1.82-4.82-2.87-.01,0-.03-.02-.04-.03.39.2.8.38,1.19.57,1.21.58,2.4,1.26,3.43,2.12Z"></path>
                <path class="cls-17" d="M35.4,265.76c.16.08.32.15.49.23,1.47.71,2.6,1.41,3.54,2.19.09.07.18.15.26.23l3.33,3-3.96-2.1c-1.81-.96-3.4-1.91-4.87-2.9-.03-.02-.05-.03-.08-.06l-4.22-3.3,4.8,2.38c.23.11.46.22.7.33Z"></path>
              </g>
              <path class="cls-3" d="M30.05,248.22c1.31-7.56,2.67-15.12,4.33-22.61,1.89-8.56,3.79-17.28,8.1-24.98,1.99-3.56,9.33-11.76,13.34-6.13.44.62.85,1.27,1.23,1.93,2.22,3.93,3.24,8.53,2.84,13.03-.22,2.53-.88,5.01-1.52,7.46-3.18,12.04-6.36,24.09-9.54,36.13,1.26.56,2.6.25,3.5,1.75,1.04,1.73,1.98,2.94.97,5.07-.6,1.26-1.6,2.27-2.45,3.37-1.29,1.66-2.29,3.54-2.92,5.55-.3.94-.74,2.1-1.72,2.18-.29.02-.58-.06-.87-.06-.44,0-.86.21-1.29.3-.95.2-1.94-.18-2.74-.72-.8-.55-1.47-1.27-2.21-1.89-1.03-.86-2.21-1.54-3.43-2.12-1.22-.58-2.52-1.11-3.42-2.11-.51-.57-.87-1.25-1.22-1.93-.54-1.04-1.08-2.2-1.48-3.4-.31-.5-.54-1.09-.64-1.79-.18-1.22.03-2.45.24-3.67.31-1.79.61-3.57.92-5.36Z"></path>
              <path class="cls-10" d="M30.05,248.22c1.31-7.56,5.07-13.91,6.73-21.4,1.89-8.56,2.92-15.7,7.23-23.39,1.99-3.56,7.8-14.56,11.81-8.92.44.62.85,1.27,1.23,1.93,2.22,3.93,4.61,8.4,4.21,12.89-.22,2.53-2.25,5.14-2.9,7.6-3.18,12.04-6.36,24.09-9.54,36.13,1.26.56,2.6.25,3.5,1.75,1.04,1.73,1.98,2.94.97,5.07-.6,1.26-1.6,2.27-2.45,3.37-1.29,1.66-2.29,3.54-2.92,5.55-.3.94-.74,2.1-1.72,2.18-.29.02-.58-.06-.87-.06-.44,0-.86.21-1.29.3-.95.2-1.94-.18-2.74-.72-.8-.55-1.47-1.27-2.21-1.89-1.03-.86-2.21-1.54-3.43-2.12-1.22-.58-2.52-1.11-3.42-2.11-.51-.57-.87-1.25-1.22-1.93-.54-1.04-1.08-2.2-1.48-3.4-.31-.5-.54-1.09-.64-1.79-.18-1.22.03-2.45.24-3.67.31-1.79.61-3.57.92-5.36Z"></path>
            </g>
            <g>
              <g>
                <path class="cls-34" d="M41.1,248.23c.31-.08.63-.12.96-.12.9,0,1.86.32,2.78.92.56.36,1.06.8,1.55,1.23.44.38.89.77,1.38,1.11.2.14.42.27.69.41.79-2.55,1.56-5.11,2.3-7.62,1.34-4.55,2.64-9.19,3.87-13.79,1.23-4.6,2.42-9.3,3.54-13.97.04-.16.21-.26.43-.26.07,0,.26.01.35.13.05.06.06.13.04.2-.62,2.6-1.27,5.23-1.94,7.82-1.18,4.64-2.44,9.32-3.73,13.9-1.29,4.59-2.67,9.25-4.1,13.86,0,.03-.02.05-.04.08.11.05.22.1.32.15.51.23,1.03.47,1.52.77.94.58,1.7,1.41,2.2,2.39.24.47.41.98.52,1.5.06.29.09.59.11.9,0,.04,0,.08,0,.12,0,.18,0,.4.12.48.17.11.15.25.13.3-.05.16-.26.23-.44.23-.07,0-.16-.01-.24-.06-.4-.27-.41-.72-.42-1.12,0-.11,0-.22-.02-.32-.06-.58-.22-1.14-.48-1.69-.45-.96-1.16-1.76-2.05-2.29-.45-.27-.95-.5-1.43-.72-.56-.25-1.13-.52-1.66-.86-.57-.37-1.09-.82-1.59-1.25-.36-.31-.74-.64-1.12-.92-.92-.69-1.79-1.04-2.58-1.04-.22,0-.43.03-.63.08-.06.02-.13.03-.2.03-.19,0-.28-.08-.33-.14-.06-.08-.07-.17-.04-.25.03-.09.11-.16.22-.19Z"></path>
                <path class="cls-34" d="M41.14,248.38c1.26-.34,2.54.08,3.61.78,1.05.69,1.9,1.62,2.93,2.33.29.2.6.37.92.53-.02-.03-.03-.06-.02-.09.8-2.57,1.57-5.15,2.33-7.73,1.35-4.58,2.64-9.18,3.87-13.8,1.24-4.64,2.42-9.3,3.54-13.97.05-.2.55-.17.51,0-.63,2.61-1.27,5.22-1.94,7.82-1.19,4.65-2.43,9.28-3.73,13.9-1.31,4.64-2.67,9.26-4.1,13.86-.03.09-.18.12-.3.1.73.35,1.49.65,2.18,1.08.91.56,1.66,1.37,2.14,2.33.23.46.4.96.5,1.46.06.29.09.58.1.87,0,.23-.03.58.19.73.25.17-.21.3-.36.2-.43-.3-.32-.86-.37-1.32-.07-.6-.24-1.19-.49-1.74-.46-.98-1.19-1.8-2.12-2.36-.99-.6-2.11-.94-3.08-1.58-.97-.63-1.78-1.48-2.71-2.17-.94-.7-2.15-1.3-3.35-.98-.09.02-.29.04-.35-.05-.06-.09,0-.17.09-.19Z"></path>
              </g>
              <g>
                <path class="cls-34" d="M30.09,260.9c.19,0,.33.07.39.2.53,1.18,1.14,2.52,2.03,3.62.4.49.83.9,1.27,1.2.58.4,1.24.64,1.87.84l.25.08c.58.18,1.17.37,1.73.65.58.29,1.13.66,1.61,1,.25-1.06.6-2.09,1.05-3.07,2.02-4.47,5.58-7.87,9.01-11.15.09-.08.21-.1.31-.1.16,0,.37.05.43.21.04.09,0,.19-.07.27-.98.93-1.99,1.9-2.95,2.88-2.75,2.8-6.03,6.63-7.05,11.47.85.57,1.88,1.16,3.1,1.35.29.05.59.07.95.07h0c.28,0,.56-.01.85-.03h.25c.07-.01.14-.02.21-.02.62,0,1.08.14,1.45.44.13.11.1.23.09.26-.07.21-.41.21-.45.21-.08,0-.2-.01-.28-.08-.2-.17-.48-.24-.88-.24-.21,0-.42.02-.63.04-.21.02-.4.04-.59.04h-.05c-.78-.01-1.55-.14-2.27-.38-.86-.28-1.62-.75-2.31-1.22-.15-.03-.24-.1-.27-.19l-.24-.16c-.25-.17-.5-.34-.75-.51-.63-.42-1.25-.73-1.87-.95-.23-.08-.46-.15-.69-.23-.43-.14-.88-.28-1.3-.46-2.32-.99-3.49-3.23-4.57-5.63-.04-.08-.03-.17.02-.24.1-.15.32-.16.38-.16Z"></path>
                <path class="cls-34" d="M30.34,261.17c.57,1.27,1.17,2.57,2.05,3.65.38.46.81.89,1.3,1.23.58.4,1.24.65,1.91.86.66.21,1.33.41,1.96.72.62.31,1.18.7,1.74,1.09.02.01.03.02.05.03.25-1.13.62-2.22,1.09-3.27,1.99-4.41,5.54-7.82,8.98-11.1.13-.12.62-.03.44.14-.99.95-1.99,1.9-2.95,2.88-3.21,3.27-6.18,7.07-7.12,11.66,1,.67,2.03,1.24,3.25,1.44.7.11,1.38.06,2.08.03.55-.02,1.11.04,1.55.4.18.15-.31.25-.44.14-.59-.48-1.55-.19-2.24-.2-.75-.01-1.51-.14-2.23-.38-.84-.28-1.58-.73-2.3-1.22-.11-.01-.19-.05-.19-.13-.35-.24-.69-.48-1.04-.71-.6-.4-1.23-.73-1.91-.96-.66-.23-1.34-.41-1.98-.68-2.34-1-3.5-3.35-4.49-5.55-.09-.19.42-.24.5-.08Z"></path>
              </g>
              <path class="cls-34" d="M93.59,247.66c1.13-3.91,2.23-7.82,3.25-11.76,1.02-3.91,1.94-7.86,2.55-11.86.61-3.95.92-7.96.74-11.95-.18-4.04-.84-8.04-1.6-12.01-.03-.18.48-.2.51,0,.86,4.46,1.57,8.96,1.64,13.5.12,8.05-1.65,15.98-3.71,23.72-2.11,7.93-4.43,15.81-6.9,23.64-.05.17-.56.13-.49-.07,1.38-4.38,2.71-8.79,3.99-13.2Z"></path>
              <g>
                <path class="cls-34" d="M67.5,196.48c.2-2.47.39-4.94.59-7.41.01-.18.18-.29.42-.29.07,0,.24.01.34.12.05.05.07.12.07.2l-1.23,15.72c-.71,9.05-1.44,18.41-1.74,27.79-.33,10.42-.05,19.54.85,27.88,0,.07-.02.14-.06.2-.1.11-.27.12-.34.12-.24,0-.41-.12-.43-.29-.54-4.99-.85-10.11-.95-15.64-.19-10.17.39-20.21.92-27.83.47-6.86,1.03-13.84,1.56-20.58Z"></path>
                <path class="cls-34" d="M68.25,189.08c.02-.2.53-.19.51,0-.41,5.24-.82,10.48-1.23,15.72-.72,9.26-1.44,18.52-1.74,27.8-.29,9.31-.15,18.64.85,27.9.02.19-.49.2-.51,0-.56-5.19-.86-10.41-.95-15.62-.17-9.28.28-18.56.92-27.81.64-9.34,1.42-18.66,2.15-27.99Z"></path>
              </g>
              <g>
                <path class="cls-34" d="M33,274.96c.11-.84.83-1.47,1.68-1.47.07,0,.14,0,.21.01l17.85,2.28c.45.06.85.28,1.12.64.28.36.4.8.34,1.25l-.46,3.59c-.11.84-.83,1.47-1.67,1.47-.07,0-.14,0-.21-.01l-17.85-2.28c-.45-.06-.85-.28-1.12-.64-.28-.36-.4-.8-.34-1.25l.46-3.59ZM33.54,279.29c.14.18.34.3.57.32l17.85,2.28s.07,0,.11,0h0c.43,0,.79-.32.85-.75l.46-3.59c.03-.23-.03-.45-.17-.63-.14-.18-.34-.3-.57-.32l-17.85-2.28s-.07,0-.11,0c-.43,0-.79.32-.85.75l-.46,3.59c-.03.23.03.45.17.63Z"></path>
                <path class="cls-34" d="M33.16,274.98c.11-.84.87-1.43,1.71-1.32l17.85,2.28c.4.05.77.26,1.01.58.25.32.36.72.31,1.13l-.46,3.59c-.1.77-.76,1.33-1.51,1.33-.06,0-.13,0-.19-.01l-17.85-2.28c-.4-.05-.77-.26-1.01-.58-.25-.32-.36-.72-.31-1.13l.46-3.59ZM33.41,279.39c.17.21.4.35.67.38l17.85,2.28c.55.07,1.06-.32,1.13-.88l.46-3.59c.03-.27-.04-.53-.2-.75-.17-.21-.4-.35-.67-.39l-17.85-2.28c-.55-.07-1.06.32-1.13.88l-.46,3.59c-.03.27.04.53.2.75Z"></path>
              </g>
            </g>
            <g>
              <path class="cls-17" d="M66.08,319.55c.1,0,.28.02.39.15.06.07.09.16.08.26l-7.72,74.59c-.02.22-.23.37-.51.37-.1,0-.28-.02-.39-.15-.06-.07-.09-.16-.08-.26,0,0,6.71-64.87,7.72-74.59.02-.22.23-.37.51-.37Z"></path>
              <path class="cls-17" d="M62.79,349.1c1-9.72,2.01-19.44,3.02-29.15.02-.2.53-.2.51-.01-.57,5.48-1.13,10.95-1.7,16.43l-3,29.01c-1.01,9.72-2.01,19.44-3.02,29.15-.02.2-.53.2-.51.01.57-5.48,1.13-10.95,1.7-16.43l3-29.01Z"></path>
            </g>
          </g>
          <g>
            <g>
              <path class="cls-40" d="M77.1,187.96l3.12-11.7,13.85,5.9-2.28,11.65s.64.36,1.67.95c-.07.16-.15.31-.22.46.34.39.61.81.76,1.28.9,2.8,1.64,5.63,2.24,8.49-.97,3.9-2.73,7.6-5.18,10.78-.56.73-1.17,1.44-1.94,1.93-.78.49-1.75.73-2.63.45-.64-.21-1.17-.67-1.65-1.13-2.96-2.85-5.17-6.39-7.31-9.91-1.43-2.37-2.85-4.76-4.15-7.2-1.87-3.5-3.69-7.25-4.77-11.14.47-.23.95-.42,1.46-.57,2.27-.69,4.69-.69,7.02-.24Z"></path>
              <path class="cls-40" d="M92.46,149.15s11.71,2.65,12.36,9.59c.66,6.94,1.35,10.19,3.39,11.38,2.04,1.19-1.9,1.6-2.47,1.72-.57.12-1.51.5-2.57,3.72-1.06,3.22-2.49,8.94-12.39,5.51-9.89-3.43-9.94-3.92-10.59-6.11-.65-2.19-5.75-13.44-2.52-18.61,3.24-5.16,14.77-7.19,14.77-7.19Z"></path>
              <g>
                <g>
                  <path class="cls-17" d="M86.3,160.42h0c1.12,0,3.48.7,4.35,3.37.44,1.35.45,2.43.03,3.21-.39.73-1.01.91-1.08.93l-.14-.53-.16-.52s1.08-.39.31-2.75c-.84-2.56-3.21-2.62-3.31-2.62v-.55s0-.55,0-.55Z"></path>
                  <path class="cls-17" d="M99.19,169.82c-.01.13-.23,3.08,2.55,3.62l-.21,1.08c-3.01-.59-3.56-3.4-3.43-4.8l1.09.1Z"></path>
                  <path class="cls-17" d="M103.91,158.7l.05,1.09c-3.03.13-4.25,3.08-4.3,3.2l-.51-.2.51.2-.51-.2-.51-.2c.06-.15,1.53-3.73,5.27-3.89Z"></path>
                  <path class="cls-17" d="M102.62,162.86c.44.09.7.7.57,1.36-.13.67-.6,1.14-1.04,1.05-.44-.09-.7-.7-.57-1.36.13-.67.6-1.14,1.04-1.05Z"></path>
                </g>
                <g>
                  <path class="cls-17" d="M77.99,150.05c3.4-3.5,8.08-5.59,15.27-4.18,7.19,1.41,12.35,5.21,12.96,6.59.6,1.38-.79,3.62-1.7,3.82,0,0-1.71.68-3.65.12-5.45-1.59-5.41,3.28-8.8,4.75-3.39,1.47-7.29-2.2-8.76-1.13-1.47,1.07-1.56,2.51-2,4.26-.39,1.56,1.35,11.12-1.27,11.49-.1-.38-8.21-6.43-6.54-17.19.43-2.74,1.08-5.03,4.48-8.53Z"></path>
                  <path class="cls-17" d="M77.5,149.58c4.11-4.23,9.31-5.66,15.88-4.37,6.83,1.34,12.62,5.09,13.44,6.98.35.79.24,1.85-.29,2.9-.38.76-1.06,1.63-1.83,1.83-.31.12-2.06.7-4.04.12-3.02-.88-4.02.4-5.3,2.02-.77.98-1.65,2.09-3.05,2.7-2.17.94-4.42.06-6.22-.64-.97-.38-2.07-.81-2.41-.56-1.03.75-1.25,1.71-1.55,3.04-.06.27-.12.55-.2.84-.09.37-.01,1.66.07,2.91.26,4.09.55,8.73-1.89,9.08-.03,0-.06,0-.09,0-.24,0-.46-.13-.58-.33-.06-.06-.19-.19-.31-.31-.84-.82-2.79-2.73-4.35-5.64-1.95-3.64-2.61-7.58-1.97-11.69.41-2.66,1.05-5.17,4.67-8.89ZM79.39,175.93s0,0,0,0c0,0,0,0,0,0ZM80.1,174.84s.07.07.1.1c.21-.24.48-.82.6-2.25.12-1.59,0-3.62-.11-5.26-.11-1.76-.17-2.78-.03-3.33.07-.28.13-.55.19-.81.32-1.43.63-2.79,2.07-3.84.32-.23.68-.33,1.08-.33.76,0,1.64.34,2.61.72,1.66.65,3.53,1.38,5.2.66,1.09-.47,1.78-1.36,2.52-2.29,1.33-1.69,2.85-3.61,6.73-2.48,1.68.49,3.2-.09,3.21-.1.03-.01.07-.02.1-.03.15-.04.61-.42.98-1.14.34-.67.44-1.35.26-1.76-.42-.96-5.12-4.76-12.47-6.2-6.1-1.19-10.89.11-14.66,3.99-3.35,3.45-3.91,5.65-4.3,8.16-.93,5.97,1.07,11.41,5.93,16.16Z"></path>
                </g>
              </g>
            </g>
            <g>
              <path class="cls-17" d="M61.23,183.44c.85-2.27-.48-3.08.19-5.11.67-2.04,3.14-3.01,4.37-3.72,1.22-.71-.53-3.39,2.46-5.51,2.99-2.12,5.6-2.97,7.34-2.9l5.83,7.04s-2.47,4.19-.65,9.42c1.82,5.24,1.62,8.31-.33,9.29-1.95.97-3.12,1.42-2.99,3.48.14,2.06,2.07,2.57,1.04,5.08-1.03,2.51-3.88,1.14-4,3.82-.12,2.69,1.73,2.91,1.58,5.05-.15,2.14-4.69,9.38-8.88,3.82-4.19-5.57-5.57-10.31-7.04-11.82-1.47-1.51-3.82-2.65-4.47-2.77-.65-.13-2.24-.3-2.24-.3,0,0-5.51-4.19-.16-9.44,1.34-1.32,7.1-3.16,7.95-5.43Z"></path>
              <path class="cls-17" d="M55.85,186.7c1.96-.99,4.39-2.23,4.85-3.45.39-1.04.26-1.69.12-2.45-.14-.72-.3-1.54.07-2.65.63-1.92,2.63-2.97,3.95-3.67.25-.13.48-.25.67-.36.2-.12.22-.5.25-1.12.05-1.16.12-2.91,2.16-4.37,2.81-1.99,5.61-3.08,7.69-3,.31.01.55.27.54.59-.01.31-.28.55-.59.54-1.84-.07-4.39.94-7,2.79-1.6,1.13-1.65,2.39-1.69,3.49-.03.79-.06,1.62-.81,2.05-.21.12-.45.25-.71.38-1.23.65-2.92,1.54-3.41,3.02-.27.83-.16,1.41-.03,2.08.16.8.34,1.72-.17,3.06-.61,1.64-3.15,2.93-5.39,4.06-1.16.59-2.26,1.15-2.69,1.57-1.53,1.5-2.25,3.03-2.16,4.56.13,2.06,1.72,3.56,2.16,3.94.43.05,1.58.19,2.12.29.83.16,3.28,1.4,4.77,2.93.67.69,1.27,1.88,2.09,3.52,1.09,2.17,2.57,5.13,4.99,8.35,1.15,1.52,2.38,2.1,3.67,1.72,2.27-.67,4.12-4.02,4.2-5.24.06-.83-.25-1.29-.63-1.88-.46-.7-1.03-1.57-.96-3.16.08-1.79,1.24-2.2,2.17-2.53.79-.28,1.48-.52,1.87-1.48.52-1.26.18-1.84-.29-2.65-.34-.58-.72-1.24-.79-2.18-.16-2.32,1.22-3,2.97-3.86l.33-.16c1.18-.59,2.15-2.56.05-8.6-1.88-5.42.59-9.71.7-9.89.16-.27.5-.36.77-.2.27.16.36.5.2.77-.02.04-2.31,4.04-.61,8.95,1.9,5.47,1.7,8.83-.61,9.98l-.33.17c-1.73.85-2.45,1.21-2.34,2.77.05.68.33,1.17.63,1.69.51.88,1.09,1.87.36,3.65-.59,1.42-1.67,1.8-2.54,2.11-.89.31-1.37.49-1.42,1.52-.05,1.23.35,1.84.77,2.49.42.64.89,1.37.81,2.57-.12,1.7-2.26,5.42-5.01,6.24-.32.1-.69.16-1.09.16-1.11,0-2.46-.51-3.8-2.28-2.48-3.29-4-6.31-5.1-8.52-.75-1.5-1.34-2.68-1.89-3.24-1.42-1.46-3.66-2.51-4.18-2.61-.62-.12-2.18-.3-2.2-.3-.1-.01-.2-.05-.28-.11-.1-.08-2.53-1.95-2.71-4.85-.12-1.87.72-3.7,2.5-5.44.56-.55,1.68-1.12,2.97-1.77Z"></path>
            </g>
          </g>
          <path class="cls-40" d="M46.19,270.98c.99-.08,1.42-1.24,1.72-2.18.63-2.01,1.63-3.89,2.92-5.55.86-1.1,1.86-2.11,2.45-3.37.53-1.11.52-1.97.25-2.79,4.93,3.13,9.52,6.74,14.25,10.27,1.07.8,2.14,1.6,3.22,2.39,4.32,3.22,8.64,6.44,12.97,9.66.03,0,.06-.02.1-.02,1.12-.26,2.24-.52,3.38-.73,1.59-.3,3.18-.53,4.8-.59,1.34-.05,2.78-.06,4.1.23,1.73.39-.36,1.78-.9,2.45-.62.76-.64,1.25.12,1.89.56.47,1.25.74,1.86,1.14,2.08,1.36,4.33,2.38,6.73,3.04.41.11.84.21,1.17.47.34.26.55.73.36,1.12-.17.36-.61.5-1.01.57-1.95.32-3.98-.36-5.74-1.18-.21-.1-.64.07-.63.36.02.84,1.61,1.48,2.22,1.83,1.12.63,2.45.95,3.73.98.35,0,.7,0,1.04.09.47.13.92.54.59,1.02-.41.6-1.11.95-1.82,1.07-.71.12-1.45.01-2.15-.17-1.11-.29-2.16-.77-3.09-1.43-.41-.29-1.39-1.28-1.95-.92-.63.4.43.86.73,1.06.69.46,1.41.89,2.17,1.23.96.42,1.98.68,3.01.88.53.1,2.17.66,1.3,1.46-.18.17-.43.24-.67.3-1.52.35-3.15.2-4.58-.43-.58-.25-1.19-.45-1.72-.8-.73-.49-1.35-.92-2.24-1.08-.02,0-.05,0-.07,0-.02.02-.02.05-.02.08.04.38.3.69.55.97.83.91,1.82,1.57,2.98,2,.43.17,1.23.26,1.02.94-.09.31-.4.52-.72.59-.32.07-.65.03-.97,0-.59-.07-1.19-.15-1.76-.32-1.78-.54-3.61-1.95-5.11-3.02-1.88-1.35-3.66-2.87-5.35-4.45-1.08-1.01-2.24-1.83-3.02-3.01-.49-.1-.98-.27-1.45-.44-10.99-3.97-21.69-8.68-32.38-13.4-1.48-.65-2.96-1.3-4.42-1.98.39-.1.77-.27,1.17-.27.29,0,.58.08.86.06Z"></path>
        </g>
        <path class="cls-40" d="M174.98,220.76s-5.2-.67-5.57-2.04c-.08-.29.51-.3,1.43-.48,8.91-1.75,13.25,12.66,11.41,14.31-5.69-.41-10.16-3.07-10.84-3.49-1.2-.74,5.73-1.01,5.73-1.01,0,0-6.66-1.05-8.46-2.3-1.43-.99,7.55-1.22,7.55-1.22-9.7-2.9-9.4-2.43-9.7-2.9-.77-1.23,8.45-.87,8.45-.87Z"></path>
        <ellipse class="cls-13" cx="198.55" cy="480" rx="41.76" ry="5.37"></ellipse>
        <g>
          <g>
            <path class="cls-43" d="M119.16,150.72l6.85,43.2c.43,2.73,3.64,3.99,5.82,2.29,10.24-8,35.38-25.39,61.87-26.69,2.11-.1,3.68-1.96,3.43-4.06l-5.02-41.64c-.23-1.94-1.95-3.34-3.9-3.18-10.68.88-43.66,5.3-67.89,26.81-.92.82-1.35,2.05-1.16,3.27Z"></path>
            <path class="cls-27" d="M126.08,152.73c.17,1.1.34,2.21.51,3.31.41,2.65.81,5.31,1.22,7.96.49,3.21.98,6.42,1.47,9.63.42,2.77.85,5.55,1.27,8.32.14.91.28,1.82.42,2.73.07.43.11.88.2,1.31,0,.02,0,.04,0,.05.06.4.66.64.98.4.99-.74,2.02-1.44,3.06-2.13,2.71-1.82,5.5-3.53,8.34-5.15,4.01-2.29,8.12-4.4,12.33-6.29,4.88-2.19,9.9-4.07,15.05-5.54,5.41-1.54,10.96-2.63,16.58-2.98.71-.04,1.42-.08,2.13-.1.85-.03.86-1.36,0-1.33-5.72.17-11.41,1.11-16.94,2.55-5.32,1.39-10.5,3.24-15.55,5.41-4.39,1.88-8.68,4.01-12.85,6.34-3.05,1.7-6.04,3.5-8.95,5.42-.89.58-1.77,1.18-2.63,1.79-.39.27-.81.53-1.17.84-.02.01-.03.02-.05.04.33.13.65.26.98.4-.17-1.1-.34-2.21-.51-3.31-.41-2.65-.81-5.31-1.22-7.96-.49-3.21-.98-6.42-1.47-9.63-.42-2.77-.85-5.55-1.27-8.32-.14-.91-.28-1.82-.42-2.73-.07-.43-.11-.88-.2-1.31,0-.02,0-.04,0-.05-.05-.36-.5-.55-.82-.46-.38.1-.52.46-.46.82h0Z"></path>
            <polygon class="cls-27" points="137.24 182.18 133.75 157.64 141.64 153.11 145.05 177.54 137.24 182.18"></polygon>
            <polygon class="cls-27" points="167.4 167.64 163.66 141.34 171.79 138.57 175.53 165.36 167.4 167.64"></polygon>
            <polygon class="cls-27" points="151.98 173.95 147.15 140.18 155.04 135.64 159.5 170.59 151.98 173.95"></polygon>
          </g>
          <g>
            <path class="cls-6" d="M214.88,420.32c-2.87,8.18-10.67,14.04-19.83,14.02-9.16-.02-16.93-5.9-19.78-14.09,4.74,2.64,10.19,4.15,15.98,4.16h7.64c5.79.02,11.25-1.46,16-4.09Z"></path>
            <path class="cls-2" d="M287.55,242.62c-.06,31.91-16.33,60-41.01,76.49-5.59,3.76-9.28,10.21-9.29,17.46l-.02,11.77c0,5.08-1.92,9.74-5.04,13.29-3.06,3.48-7.29,5.91-12.06,6.66-1.03.16-2.09.24-3.16.24h-7.97s-3.29-.02-3.29-.02l-18.23-.03h-3.29s-10.79-.03-10.79-.03c-.12,0-.23,0-.35,0-5.91-.11-11.22-2.79-14.85-6.95-3.12-3.57-5-8.23-4.99-13.31l.02-11.78c.01-7.24-3.65-13.64-9.22-17.42v-.06c-9.51-6.4-17.75-14.53-24.29-23.93,16.11,13.67,36.96,21.93,59.74,21.97,1.01,0,2.01-.01,3.01-.04,1.1-.03,2.2-.09,3.29-.16,7.38-.48,14.52-1.83,21.33-3.94,1.17-.36,2.33-.75,3.48-1.16,35.89-12.71,61.63-46.92,61.7-87.18.03-18.33-5.25-35.42-14.41-49.81,18.3,16.87,29.75,41.07,29.7,67.93Z"></path>
            <path class="cls-9" d="M232.18,361.64l-.05,29.68c-.02,12.46-7,23.36-17.24,29.01-4.75,2.63-10.21,4.12-16,4.11h-7.64c-5.78-.02-11.24-1.53-15.98-4.18-10.22-5.69-17.16-16.61-17.14-29.07l.05-29.68c3.7,4.25,9.15,6.95,15.2,6.96l43.57.08c6.05.01,11.5-2.67,15.22-6.9Z"></path>
            <path class="cls-6" d="M233.18,408.41l-.14,1.08c-.38,2.93-3.09,5.01-6.02,4.63l-29.2-3.82-40.42-5.28c-2.93-.39-5.01-3.09-4.63-6.03l.14-1.08c.38-2.93,3.09-5.01,6.02-4.63l40.42,5.28h0l29.19,3.82c2.93.38,5.01,3.09,4.63,6.02Z"></path>
            <path class="cls-6" d="M236.15,385.93l-.14,1.08c-.38,2.93-3.09,5.01-6.02,4.63l-29.12-3.81-40.5-5.3-4.95-.65c-2.93-.38-5.01-3.09-4.63-6.02l.14-1.08c.38-2.91,3.05-4.98,5.96-4.63.02,0,.04,0,.06,0l69.61,9.1,4.95.65c2.93.38,5.01,3.09,4.63,6.02Z"></path>
            <path class="cls-37" d="M206.93,382.11l-.14,1.08c-.38,2.89-3.03,4.96-5.92,4.64l-40.5-5.3-4.95-.65c-2.93-.38-5.01-3.09-4.63-6.02l.14-1.08c.38-2.91,3.05-4.98,5.96-4.63l40.46,5.29,4.95.65c2.93.38,5.01,3.09,4.63,6.02Z"></path>
            <path class="cls-37" d="M203.99,404.59l-.14,1.08c-.38,2.93-3.09,5.01-6.02,4.63l-40.42-5.28c-2.93-.39-5.01-3.09-4.63-6.03l.14-1.08c.38-2.93,3.09-5.01,6.02-4.63l40.42,5.28h0c2.93.39,5.01,3.09,4.63,6.02Z"></path>
            <path class="cls-28" d="M272.26,224.51c-.07,40.26-25.81,74.47-61.7,87.18-1.15.41-2.31.79-3.48,1.16-6.81,2.11-13.95,3.46-21.33,3.94-1.09.07-2.19.13-3.29.16-1,.03-2,.04-3.01.04-22.78-.04-43.63-8.31-59.74-21.97,0,0,0,0,0,0-10.4-14.95-16.48-33.12-16.44-52.72.09-50.89,41.43-92.07,92.32-91.98,24.03.04,45.89,9.28,62.27,24.38,9.16,14.4,14.45,31.49,14.41,49.81Z"></path>
            <path class="cls-27" d="M161.13,173.01c-1.61,0-3.12.4-4.45,1.1,0,0,0,0-.01,0-.45.24-.88.52-1.29.83-13,8.54-23.72,20.28-31.03,34.11-.35.54-.65,1.12-.89,1.73-.4,1.03-.62,2.15-.62,3.31,0,5.1,4.12,9.25,9.22,9.26,2.79,0,5.3-1.23,6.99-3.18.73-.83,1.31-1.8,1.7-2.85,0,0,0,0,0-.01,6.42-10.38,14.85-19.39,24.74-26.49,0,0,0,0,.01,0,.69-.36,1.33-.81,1.91-1.33,0,0,0,0,0,0,1.92-1.72,3.12-4.22,3.12-7,0-5.22-4.21-9.45-9.42-9.46Z"></path>
            <path class="cls-27" d="M134.48,239.27c0,1.12-.2,2.19-.56,3.18,0,0,0,0,0,.01-.39,1.06-.97,2.02-1.7,2.85-1.7,1.96-4.2,3.19-6.99,3.18-5.1,0-9.23-4.15-9.22-9.26,0-1.17.22-2.29.62-3.31.24-.61.53-1.19.89-1.73,1.65-2.53,4.51-4.19,7.75-4.18,5.1,0,9.23,4.15,9.22,9.26Z"></path>
            <polygon class="cls-26" points="240.02 266.62 240.02 266.62 240.02 266.62 240.02 266.62"></polygon>
            <path class="cls-43" d="M240.02,266.62c-1.9-1.88-4.38-2.8-7.19-2.66-2.38.12-4.9,1.01-7.11,2.52-3.22,2.2-6.08,5.54-8.49,9.91-1.92,3.48-3.6,7.65-5.13,12.76-.25.83-.5,1.68-.73,2.53-1.49.09-4.35.23-8.21.32-2.23.05-4.49.08-6.74.08-2.41,0-4.83-.03-7.23-.09-2.76-.07-5.52-.17-8.22-.32-.24-.84-.48-1.69-.73-2.52-1.54-5.11-3.22-9.28-5.13-12.76-2.41-4.37-5.27-7.71-8.49-9.91-1.11-.76-2.29-1.36-3.5-1.78-1.21-.43-2.43-.68-3.62-.74-2.81-.14-5.29.78-7.19,2.66-2.74,2.72-4.08,7.41-3.48,12.24.85,6.88,3.64,11.35,8.53,13.66,4.16,1.96,9.11,2.04,13.89,2.11,1.39.02,2.7.04,3.99.11,1.06.05,2.12.09,3.19.12,1.77,6.8,3.11,14.11,4.03,22.09,1.1-.03,2.2-.09,3.29-.16-.9-7.83-2.19-15.05-3.89-21.78,2.39.12,4.82.21,7.25.27,4.69.12,9.44.12,14.12.01,1.56-.04,2.96-.08,4.17-.13s2.25-.1,3.07-.14c-1.41,5.58-2.54,11.5-3.4,17.83,1.17-.36,2.33-.75,3.48-1.16.86-5.97,1.98-11.56,3.35-16.83,1.06-.03,2.13-.07,3.19-.12,1.29-.06,2.6-.08,3.99-.11,4.78-.07,9.73-.15,13.89-2.11,4.89-2.31,7.69-6.77,8.53-13.66.59-4.84-.74-9.53-3.48-12.24ZM175.4,291.45c-1.34-.07-2.75-.09-4.11-.11-4.44-.07-9.02-.14-12.54-1.79-3.84-1.81-5.96-5.33-6.67-11.08-.47-3.79.53-7.52,2.53-9.51,1.16-1.15,2.61-1.73,4.33-1.73.13,0,.25,0,.38.01,1.78.09,3.7.78,5.42,1.95,2.79,1.91,5.31,4.86,7.47,8.78,1.81,3.27,3.4,7.24,4.86,12.12.14.48.29.96.43,1.45-.71-.02-1.41-.05-2.11-.09ZM240.24,278.46c-.71,5.75-2.83,9.27-6.67,11.08-3.52,1.66-8.1,1.73-12.54,1.79-1.36.02-2.76.04-4.11.11-.7.03-1.41.06-2.11.09.14-.49.28-.97.43-1.45,1.47-4.88,3.06-8.84,4.86-12.12,2.16-3.92,4.67-6.87,7.47-8.78,1.72-1.17,3.64-1.87,5.42-1.95.13,0,.26-.01.38-.01,1.72,0,3.18.58,4.33,1.73,1.68,1.66,2.64,4.54,2.64,7.65,0,.61-.04,1.23-.11,1.85Z"></path>
            <path class="cls-9" d="M208.66,368.61h-3.29c-.3-11.08-.51-23.08,0-34.87.32-7.42.92-14.33,1.79-20.81,1.17-.36,2.33-.75,3.48-1.16-.99,6.84-1.65,14.17-1.99,22.11-.51,11.72-.3,23.69,0,34.73Z"></path>
            <path class="cls-9" d="M187.14,368.57h-3.29c.3-11.03.51-22.98,0-34.69-.26-5.94-.69-11.55-1.31-16.86,1.1-.03,2.2-.09,3.29-.16.61,5.32,1.04,10.93,1.3,16.87.51,11.79.3,23.78,0,34.83Z"></path>
            <path class="cls-9" d="M219.79,366v2.38c-1.03.16-2.09.25-3.16.24h-7.97s-3.29-.02-3.29-.02l-18.23-.03h-3.29s-10.79-.03-10.79-.03c-.12,0-.23,0-.35,0v-2.54c0-3.61,2.96-6.57,6.57-6.57h33.94c3.61,0,6.57,2.96,6.57,6.57Z"></path>
          </g>
          <g>
            <path class="cls-43" d="M150.65,218.64l-1.21,7.34-8.59,52.12c-.17,1.06-1.12,1.81-2.18,1.75-7.5-.44-35.43-3.95-48.27-31.64-.16-.35-.22-.75-.17-1.13l6.06-48.3.91-7.23c.23-1.84,2.56-2.49,3.71-1.04,5.7,7.15,20.04,21.04,48.04,25.73,1.14.19,1.91,1.26,1.72,2.4Z"></path>
            <path class="cls-9" d="M150.65,218.64l-1.21,7.34c-34.62-4.77-53.16-27.2-53.16-27.2l.91-7.23c.23-1.84,2.56-2.49,3.71-1.04,5.7,7.15,20.04,21.04,48.04,25.73,1.14.19,1.91,1.26,1.72,2.4Z"></path>
            <path class="cls-9" d="M131.86,217.95c-.07.47-.15.94-.22,1.41-.2,1.28-.4,2.55-.6,3.83-.29,1.88-.59,3.76-.88,5.64-.36,2.29-.72,4.59-1.08,6.88-.39,2.52-.79,5.04-1.18,7.56-.4,2.54-.8,5.09-1.19,7.63-.37,2.36-.74,4.73-1.11,7.09-.31,2-.63,4.01-.94,6.01-.23,1.44-.45,2.88-.68,4.32-.11.68-.21,1.36-.32,2.04,0,.03,0,.06-.01.09-.06.35.09.71.46.82.32.09.76-.11.82-.46.07-.47.15-.94.22-1.41.2-1.28.4-2.55.6-3.83.29-1.88.59-3.76.88-5.64.36-2.29.72-4.59,1.08-6.88.39-2.52.79-5.04,1.18-7.56.4-2.54.8-5.09,1.19-7.63.37-2.36.74-4.73,1.11-7.09.31-2,.63-4.01.94-6.01.23-1.44.45-2.88.68-4.32.11-.68.21-1.36.32-2.04,0-.03,0-.06.01-.09.06-.35-.09-.71-.46-.82-.32-.09-.76.11-.82.46h0Z"></path>
            <path class="cls-27" d="M135.14,227.1l-.46,2.81c-.04.22.09.43.3.5l2.63.95c.27.1.56-.07.61-.35l.49-2.8c.04-.22-.09-.43-.3-.51l-2.66-.96c-.27-.1-.56.07-.61.36Z"></path>
            <path class="cls-27" d="M133.67,234.88l-.46,2.81c-.04.22.09.43.3.5l2.63.95c.27.1.56-.07.61-.35l.49-2.8c.04-.22-.09-.43-.3-.51l-2.66-.96c-.27-.1-.56.07-.61.36Z"></path>
            <path class="cls-27" d="M132.21,242.65l-.46,2.81c-.04.22.09.43.3.5l2.63.95c.27.1.56-.07.61-.35l.49-2.8c.04-.22-.09-.43-.3-.51l-2.66-.96c-.27-.1-.56.07-.61.36Z"></path>
            <path class="cls-27" d="M130.74,250.43l-.46,2.81c-.04.22.09.43.3.5l2.63.95c.27.1.56-.07.61-.35l.49-2.8c.04-.22-.09-.43-.3-.51l-2.66-.96c-.27-.1-.56.07-.61.36Z"></path>
            <path class="cls-27" d="M129.27,258.21l-.46,2.81c-.04.22.09.43.3.5l2.63.95c.27.1.56-.07.61-.35l.49-2.8c.04-.22-.09-.43-.3-.51l-2.66-.96c-.27-.1-.56.07-.61.36Z"></path>
            <path class="cls-27" d="M127.8,265.99l-.46,2.81c-.04.22.09.43.3.5l2.63.95c.27.1.56-.07.61-.35l.49-2.8c.04-.22-.09-.43-.3-.51l-2.66-.96c-.27-.1-.56.07-.61.36Z"></path>
            <path class="cls-27" d="M96.48,206.63c.44.53.91,1.04,1.38,1.54,1.25,1.33,2.56,2.61,3.91,3.84,1.97,1.79,4.04,3.48,6.19,5.05,2.51,1.84,5.15,3.51,7.9,4.96,3.02,1.58,6.19,2.91,9.47,3.83.4.11.81.22,1.21.32.34.08.74-.11.82-.46.08-.34-.1-.73-.46-.82-1.67-.42-3.31-.94-4.91-1.55-.4-.15-.8-.31-1.19-.47-.09-.04-.17-.07-.26-.11-.02,0-.19-.08-.05-.02-.03-.01-.07-.03-.1-.04-.2-.09-.41-.17-.61-.26-.76-.34-1.51-.69-2.26-1.06-2.81-1.4-5.5-3.05-8.06-4.87-.59-.42-1.17-.84-1.74-1.28-.14-.1-.27-.21-.41-.31-.02-.02-.05-.04-.07-.06-.13-.1.11.09-.01,0-.08-.06-.16-.12-.24-.18-.27-.21-.53-.42-.8-.63-.99-.8-1.96-1.62-2.91-2.46-1.44-1.28-2.83-2.61-4.15-4-.58-.61-1.12-1.24-1.69-1.86,0,0-.01-.02-.02-.02-.22-.27-.71-.25-.94,0-.26.29-.24.65,0,.94h0Z"></path>
            <path class="cls-27" d="M91.96,244.94c.38.63.8,1.23,1.23,1.83,1.13,1.61,2.34,3.18,3.61,4.69,1.75,2.09,3.61,4.09,5.59,5.96,2.34,2.21,4.85,4.26,7.52,6.06,2.85,1.91,5.91,3.52,9.15,4.69.4.14.8.28,1.21.41.33.11.74-.12.82-.46.08-.36-.11-.7-.46-.82-.82-.26-1.64-.56-2.44-.88-.1-.04-.2-.08-.29-.12-.05-.02-.1-.04-.15-.06-.02-.01-.19-.08-.04-.01-.2-.09-.4-.17-.6-.26-.39-.17-.78-.35-1.16-.54-1.51-.73-2.96-1.55-4.38-2.45-.7-.44-1.39-.91-2.06-1.39-.33-.23-.65-.47-.97-.71-.16-.12-.32-.24-.48-.36-.08-.06-.16-.12-.24-.18-.13-.1.11.09-.02-.02-.05-.04-.1-.08-.16-.12-1.23-.96-2.41-1.97-3.56-3.02-2.05-1.88-3.98-3.89-5.78-6.01-.73-.86-1.44-1.73-2.14-2.62-.04-.05-.08-.1-.12-.15.15.19,0,0-.03-.04-.07-.1-.15-.19-.22-.29-.14-.19-.29-.38-.43-.57-.24-.33-.49-.66-.72-.99-.52-.73-1.02-1.47-1.51-2.22,0,0-.01-.02-.02-.03-.18-.3-.6-.44-.91-.24-.3.19-.43.59-.24.91h0Z"></path>
            <path class="cls-27" d="M95.81,214.52c.91,1.05,1.87,2.05,2.85,3.03,2.1,2.11,4.33,4.11,6.73,5.87,1.38,1.01,2.83,1.95,4.38,2.69.31.15.73.1.91-.24.16-.3.1-.75-.24-.91-1.37-.65-2.66-1.46-3.9-2.34-.31-.22-.63-.45-.93-.68-.08-.06-.16-.12-.24-.18-.03-.02-.06-.04-.09-.07.13.1-.02-.01-.04-.03-.16-.12-.31-.24-.47-.37-.61-.49-1.21-.99-1.79-1.5-1.86-1.62-3.62-3.35-5.29-5.16-.32-.35-.64-.7-.95-1.05-.23-.26-.71-.25-.94,0-.26.28-.24.66,0,.94h0Z"></path>
            <path class="cls-27" d="M95.92,222.38l-2.37,17.19c-.05.37.06.73.3,1.02,2.07,2.43,12.4,14.11,23.03,17.84.77.27,1.59-.22,1.72-1.02l3.05-19.9c.09-.57-.21-1.13-.74-1.37-3.29-1.5-14.98-7.11-22.81-14.51-.77-.72-2.03-.28-2.17.76Z"></path>
          </g>
          <g>
            <path class="cls-42" d="M203.41,180.55l10.64,46.86c.28,1.23,1.5,2,2.73,1.72,10.8-2.46,57.63-14.38,68.29-38.36.2-.46.25-.97.13-1.45l-10.31-42.69c-.43-1.78-2.68-2.35-3.91-.99-5.77,6.39-22.38,19.96-65.96,32.22-1.17.33-1.87,1.51-1.6,2.7Z"></path>
            <path class="cls-23" d="M275.93,182.27c0,10.76-4.52,19.47-10.09,19.47-4.22,0-7.83-4.99-9.34-12.08l9.34-7.4-9.77-4.86c1.12-8.4,5.07-14.61,9.77-14.61,5.57,0,10.09,8.72,10.09,19.47Z"></path>
            <path class="cls-15" d="M252.97,177.9l10.49,4.58-10.49,6.65s-2.13-4.58,0-11.24Z"></path>
            <path class="cls-16" d="M215.37,182.9c1.04,4.35,2.07,8.71,3.11,13.06,1.65,6.91,3.29,13.82,4.94,20.73.38,1.59.76,3.17,1.13,4.76.24.99,1.76.57,1.53-.42-1.04-4.35-2.07-8.71-3.11-13.06-1.65-6.91-3.29-13.82-4.94-20.73-.38-1.59-.76-3.17-1.13-4.76-.24-.99-1.76-.57-1.53.42h0Z"></path>
            <path class="cls-16" d="M226,178.97c1.04,4.35,2.07,8.71,3.11,13.06,1.65,6.91,3.29,13.82,4.94,20.73.38,1.59.76,3.17,1.13,4.76.24.99,1.76.57,1.53-.42-1.04-4.35-2.07-8.71-3.11-13.06l-4.94-20.73c-.38-1.59-.76-3.17-1.13-4.76-.24-.99-1.76-.57-1.53.42h0Z"></path>
            <path class="cls-16" d="M236.32,175.18c1.04,4.35,2.07,8.71,3.11,13.06,1.65,6.91,3.29,13.82,4.94,20.73.38,1.59.76,3.17,1.13,4.76.24.99,1.76.57,1.53-.42-1.04-4.35-2.07-8.71-3.11-13.06-1.65-6.91-3.29-13.82-4.94-20.73-.38-1.59-.76-3.17-1.13-4.76-.24-.99-1.76-.57-1.53.42h0Z"></path>
            <path class="cls-15" d="M225.06,210.74l-3.91,1.17c-.69.21-1.41-.18-1.62-.87h0c-.21-.69.18-1.41.87-1.62l3.91-1.17c.69-.21,1.41.18,1.62.87h0c.21.69-.18,1.41-.87,1.62Z"></path>
            <path class="cls-15" d="M232.02,191.49l-3.91,1.17c-.69.21-1.41-.18-1.62-.87h0c-.21-.69.18-1.41.87-1.62l3.91-1.17c.69-.21,1.41.18,1.62.87h0c.21.69-.18,1.41-.87,1.62Z"></path>
            <path class="cls-15" d="M245.34,199.86l-3.91,1.17c-.69.21-1.41-.18-1.62-.87h0c-.21-.69.18-1.41.87-1.62l3.91-1.17c.69-.21,1.41.18,1.62.87h0c.21.69-.18,1.41-.87,1.62Z"></path>
          </g>
        </g>
        <g id="comment">
          <path id="speech_bubble" data-name="speech bubble" class="cls-43" d="M26.91,123.34h8.35c.65,0,1.28.27,1.73.74l7.59,7.94c.94.98,2.51.98,3.45,0l7.59-7.94c.45-.47,1.07-.74,1.73-.74h8.35c3.96,0,7.17-3.21,7.17-7.17v-24.32c0-3.96-3.21-7.17-7.17-7.17H26.91c-3.96,0-7.17,3.21-7.17,7.17v24.32c0,3.96,3.21,7.17,7.17,7.17Z"></path>
          <path id="comment_icon" data-name="comment icon" class="cls-27" d="M56.39,112.69l-1.12-4.91c.49-1.2.74-2.46.74-3.76,0-5.47-4.45-9.92-9.91-9.92s-9.91,4.45-9.91,9.92,4.44,9.91,9.91,9.91c1.75,0,3.48-.47,4.99-1.35l4,1.3c.1.03.2.05.31.05.25,0,.49-.1.68-.27.27-.24.39-.61.31-.97Z"></path>
        </g>
        <g>
          <g class="cls-48">
            <path class="cls-45" d="M140.77,416.13c-2.59-.86-6.37,4.19-8.44,11.27-2.07,7.08-1.65,13.52.94,14.37,2.59.86,6.36-4.19,8.44-11.28,2.07-7.08,1.65-13.52-.94-14.37Z"></path>
            <path class="cls-27" d="M120.17,460.61c.41,1.49.92,2.81,1.54,3.92,1.08,1.96,2.47,3.28,4.15,3.84,2.37.78,5.07-.05,7.86-2.18.14-.1.27-.21.41-.32.14-.11.27-.22.41-.34.14-.12.27-.23.41-.36.89-.79,1.78-1.7,2.66-2.73.2-.24.41-.48.61-.73,0,0,0,0,0,0,.14-.17.27-.33.41-.51.14-.17.27-.34.41-.52,0,0,0,0,0,0,.75-.97,1.49-2.02,2.23-3.14.13-.2.27-.41.4-.62.07-.1.13-.21.2-.31.13-.21.26-.42.4-.64.13-.22.26-.43.4-.65.13-.22.26-.44.39-.67.07-.11.13-.23.2-.34.11-.19.21-.37.32-.56.05-.08.09-.17.14-.25.17-.31.34-.62.51-.93.13-.24.26-.48.38-.72.1-.2.21-.4.31-.61.04-.08.08-.17.13-.25.1-.2.21-.41.31-.62.12-.25.25-.5.37-.76.39-.8.77-1.62,1.15-2.46.1-.23.2-.45.3-.68,1.71-3.91,3.28-8.2,4.62-12.76,6.37-21.77,5.08-41.55-2.88-44.18-3.01-.99-6.54.61-10.11,4.16-.14.13-.27.27-.41.42-.07.07-.14.14-.21.22-.14.14-.27.29-.41.44-.07.08-.14.15-.21.23-.14.15-.27.31-.41.47,0,0,0,0,0,0-.2.24-.41.48-.61.73t0,0c-.2.25-.41.5-.61.76-.61.78-1.22,1.62-1.83,2.51-.13.2-.27.4-.4.6-.13.2-.27.41-.4.61-.13.21-.27.41-.4.62,0,0,0,0,0,0-.33.53-.66,1.07-.99,1.63-.13.22-.26.45-.39.68-.13.23-.26.45-.39.69-.26.46-.52.94-.77,1.42-.19.36-.38.72-.57,1.09-.06.12-.13.25-.19.37-.1.21-.21.42-.31.63-.08.17-.16.34-.25.51-.12.25-.25.51-.37.77,0,0,0,0,0,0-.12.26-.24.52-.36.78-.06.13-.12.26-.18.4-.1.22-.2.45-.3.67-.04.08-.07.16-.11.25-.16.36-.32.72-.48,1.09-.12.27-.23.55-.35.83-.12.28-.23.55-.34.83-.06.14-.11.28-.17.42-.1.24-.19.48-.29.73-.13.33-.25.65-.38.98-.22.58-.43,1.16-.65,1.75-.17.48-.34.96-.51,1.45-.14.41-.28.83-.42,1.24-.2.61-.4,1.22-.59,1.84-.19.62-.38,1.24-.57,1.87-4.25,14.53-5.09,28.16-2.81,36.41ZM125.16,457c-.63-1.1-1.12-2.46-1.49-4.03-1.52-6.54-.78-16.83,2.42-27.75.87-2.97,1.86-5.78,2.94-8.41.09-.22.18-.44.27-.65.55-1.29,1.11-2.54,1.7-3.73.1-.2.19-.39.29-.59.05-.1.1-.19.15-.29.1-.19.2-.38.3-.57.15-.29.3-.57.45-.84.15-.28.3-.55.46-.82.2-.36.41-.71.61-1.06.26-.43.52-.85.78-1.26.1-.16.21-.33.31-.49.63-.96,1.27-1.85,1.91-2.67.16-.2.32-.4.48-.6.11-.13.21-.26.32-.38.11-.13.21-.25.32-.37.05-.06.11-.12.16-.18.11-.12.21-.24.32-.35.05-.06.11-.11.16-.17.11-.11.21-.22.32-.33.05-.05.11-.11.16-.16,2.8-2.79,5.57-4.04,7.93-3.26,6.24,2.06,7.26,17.59,2.26,34.67-5,17.09-14.11,29.27-20.35,27.2-1.29-.43-2.35-1.42-3.19-2.89Z"></path>
            <path class="cls-27" d="M126.8,445.32c.29,1.72.75,3.16,1.4,4.23.59.98,1.34,1.65,2.23,1.95,4.55,1.5,11.19-7.37,14.83-19.82,3.64-12.45,2.9-23.76-1.65-25.27-4.55-1.5-11.19,7.37-14.83,19.82-2.15,7.36-2.77,14.32-1.98,19.09ZM132.15,440.9c-.71-.99-1.1-2.69-1.13-4.81-.04-2.47.34-5.53,1.31-8.69,2.32-7.53,5.98-12.37,8.44-11.27,2.49,1.11,3.01,7.29.94,14.37-2.07,7.08-5.85,12.13-8.44,11.28-.43-.14-.81-.44-1.12-.88Z"></path>
            <path class="cls-45" d="M123.3,452.97c.37,1.58.86,2.94,1.49,4.03.84,1.46,1.9,2.46,3.19,2.89,6.24,2.06,15.36-10.12,20.35-27.2,5-17.09,3.98-32.61-2.26-34.67-2.36-.78-5.13.48-7.93,3.26-.05.05-.11.11-.16.16-.11.11-.21.22-.32.33-.05.06-.11.11-.16.17-.11.12-.21.23-.32.35-.05.06-.11.12-.16.18-.11.12-.21.25-.32.37-.11.13-.21.26-.32.38-.16.2-.32.4-.48.6-.64.82-1.28,1.71-1.91,2.67-.1.16-.21.32-.31.49-.26.41-.52.83-.78,1.26-.21.35-.41.7-.61,1.06-.15.27-.3.54-.46.82-.15.28-.3.56-.45.84-.1.19-.2.38-.3.57-.05.1-.1.19-.15.29-.1.19-.2.39-.29.59-.58,1.19-1.15,2.43-1.7,3.73-.09.22-.18.43-.27.65-1.08,2.62-2.07,5.44-2.94,8.41-3.19,10.93-3.93,21.21-2.42,27.75ZM128.2,449.55c-.65-1.07-1.12-2.51-1.4-4.23-.79-4.77-.17-11.73,1.98-19.09,3.64-12.45,10.28-21.33,14.83-19.82,4.55,1.5,5.29,12.82,1.65,25.27-3.64,12.45-10.28,21.33-14.83,19.82-.89-.29-1.64-.97-2.23-1.95Z"></path>
            <path class="cls-45" d="M113.18,457.14c0,.46.02.91.03,1.36,0,.29.02.58.03.87.02.5.05.99.09,1.48.26,3.84.85,7.24,1.75,10.09.45,1.42.98,2.7,1.58,3.83,1.41,2.62,3.23,4.4,5.46,5.14,10.29,3.4,25.29-16.66,33.52-44.81,8.23-28.15,6.56-53.72-3.72-57.11-10.29-3.4-25.29,16.66-33.52,44.81-3.67,12.53-5.37,24.56-5.22,34.34ZM121.34,464.53c-.61-1.11-1.13-2.43-1.54-3.92-2.28-8.25-1.44-21.89,2.81-36.41.18-.63.37-1.25.57-1.87.19-.62.39-1.23.59-1.84.14-.42.28-.83.42-1.24.17-.49.34-.97.51-1.45.21-.59.43-1.17.65-1.75.13-.33.25-.66.38-.98.1-.24.19-.49.29-.73.06-.14.11-.28.17-.42.11-.28.23-.56.34-.83.12-.28.23-.55.35-.83.16-.37.32-.73.48-1.09.04-.08.07-.16.11-.25.1-.23.2-.45.3-.67.06-.13.12-.26.18-.4.12-.26.24-.52.36-.78,0,0,0,0,0,0,.12-.26.24-.51.37-.77.08-.17.17-.34.25-.51.1-.21.21-.42.31-.63.06-.12.13-.25.19-.37.19-.37.38-.73.57-1.09.26-.48.51-.95.77-1.42.13-.23.26-.46.39-.69.13-.23.26-.45.39-.68.33-.56.66-1.1.99-1.63,0,0,0,0,0,0,.13-.21.27-.42.4-.62.13-.21.27-.41.4-.61.13-.2.27-.4.4-.6.61-.89,1.22-1.72,1.83-2.51.2-.26.41-.52.61-.76t0,0c.2-.25.41-.49.61-.73,0,0,0,0,0,0,.14-.16.27-.31.41-.47.07-.08.14-.15.21-.23.14-.15.27-.3.41-.44.07-.07.14-.14.21-.22.14-.14.27-.28.41-.42,3.57-3.55,7.1-5.15,10.11-4.16,7.96,2.63,9.24,22.41,2.88,44.18-1.33,4.57-2.9,8.86-4.62,12.76-.1.23-.2.45-.3.68-.38.84-.76,1.66-1.15,2.46-.12.25-.25.51-.37.76-.1.21-.21.41-.31.62-.04.08-.08.17-.13.25-.1.2-.21.41-.31.61-.13.24-.25.48-.38.72-.17.31-.34.62-.51.93-.05.08-.09.17-.14.25-.11.19-.21.38-.32.56-.06.11-.13.23-.2.34-.13.22-.26.45-.39.67-.13.22-.26.44-.4.65-.13.22-.26.43-.4.64-.07.11-.13.21-.2.31-.13.21-.27.42-.4.62-.73,1.12-1.48,2.17-2.23,3.14,0,0,0,0,0,0-.14.18-.27.35-.41.52-.14.17-.27.34-.41.51,0,0,0,0,0,0-.2.25-.41.49-.61.73-.89,1.03-1.78,1.94-2.66,2.73-.14.12-.27.24-.41.36-.14.12-.27.23-.41.34-.14.11-.27.22-.41.32-2.79,2.13-5.49,2.96-7.86,2.18-1.69-.56-3.07-1.89-4.15-3.84Z"></path>
            <path class="cls-11" d="M171.33,390.59s0,0,0,0c0,0,0,0,0,0-.98-3.04-2.4-6.25-5.25-8.19,0,0,0,0,0,0-.43-.29-1.12-.66-1.83-.89l-12.28-3.52c3.75,1.24,5.92,5.32,7.08,9.08,0,0,0,0,0,0,9.11,31.54-16.75,97.02-36.37,92.98l-.51-.15c.11.04.28.09.55.16l11.73,3.36c8.86,2.81,18.54-11.17,22.43-18.08,10.21-17.9,16.46-42.13,16.32-60.63-.06-4.69-.46-9.51-1.87-14.12Z"></path>
          </g>
          <path class="cls-39" d="M136.51,427.75c-.15-.07-.31-.11-.47-.13-.23-.02-.45,0-.66.08-.37.13-.7.41-.88.8l-.52,1.13-2.96,6.47-.05.11-1.3,2.83-.56,1.23-2.32,5.06-.7,1.53-1.2,2.62-.09.2-1.5,3.28-1.04,2.28-1.12,2.46-.24.53-1.08,2.37-1.34,2.93-1.03,2.25-.56,1.22-1.8,3.93c.45,1.42.98,2.7,1.58,3.83l2.85-6.23.62-1.35.87-1.9.35-.77,2.15-4.69.31-.68.92-2,.07-.15,2.65-5.78h0s.76-1.67.76-1.67l.24-.53,3.22-7.04.38-.82.12-.26.75-1.63,4.16-9.1.19-.42c.08-.18.13-.37.14-.56h0c.02-.6-.31-1.18-.88-1.45Z"></path>
          <g>
            <path class="cls-14" d="M136.76,428.1l-75.49-50.24c-.72-.64-1.8-.46-2.24.2-.44.66-.18,1.72.69,2.14l75.49,50.24c.65.43,1.52.25,1.95-.39h0c.43-.65.25-1.52-.39-1.95Z"></path>
            <polygon class="cls-15" points="60.35 369.41 62.76 379.15 84 393.29 81.59 383.55 60.35 369.41"></polygon>
            <polygon class="cls-15" points="51.61 382.55 72.85 396.69 82.76 395.14 61.52 381.01 51.61 382.55"></polygon>
          </g>
        </g>
        <g>
          <g>
            <path class="cls-31" d="M352.07,460.52v5.75s-5.89,8.15-7.26,17.15h29.58s-.96-8.52-4.86-17.15v-5.75h-17.46Z"></path>
            <path class="cls-17" d="M370.79,480.27h-22.39c-.24,0-.44-.2-.44-.44s.2-.44.44-.44h22.39c.24,0,.44.2.44.44s-.2.44-.44.44Z"></path>
          </g>
          <g>
            <path class="cls-31" d="M294.3,461.13v5.65s4.11,8.83,4.01,16.64h-49.09c.27-3.89,2.62-7.36,6.15-9.02,3.18-1.5,6.45-2.62,9.61-3.19,2.95-.53,5.54-2.27,7.28-4.7l3.87-5.38h18.18Z"></path>
            <path class="cls-17" d="M295.19,480.27h-41.7c-.24,0-.44-.2-.44-.44s.2-.44.44-.44h41.7c.24,0,.44.2.44.44s-.2.44-.44.44Z"></path>
          </g>
          <path class="cls-23" d="M361.48,263.12h-62.45l-17.35,94.67c-.99,5.39-1.72,10.83-2.18,16.3l-7.59,89.3h24.65c9.58-36.31,16.97-70.17,15.82-94.49l15.61-52.79,6.57,58.75,15.61,88.53h22.39s4.11-69.43-6.16-89.76c4.31-43.34-2.04-94.28-4.92-110.51Z"></path>
          <g>
            <path class="cls-40" d="M244.19,224.61l-9.76-3.53s-1-4.38-7.57-6.37l-5.75-5.4c-.53-.49-1.34-.52-1.89-.05h0c-.57.49-.67,1.34-.21,1.94l4.06,5.33-10.62-1.59c-1.35-.2-2.53.9-2.42,2.26l.7,11.06c.11,1.36,1.13,2.47,2.48,2.69,5.23.84,17.6,2.83,17.84,2.83.3,0,9.06,5.28,9.06,5.28l4.05-14.44Z"></path>
            <path class="cls-4" d="M220.61,219.6s-.05,0-.07,0l-9.5-1.51c-.24-.04-.41-.27-.37-.51.04-.24.26-.41.51-.37l9.5,1.51c.24.04.41.27.37.51-.03.22-.22.37-.44.37Z"></path>
            <path class="cls-4" d="M220.8,223.72s-.05,0-.07,0l-9.11-1.45c-.24-.04-.41-.27-.37-.51.04-.24.26-.41.51-.37l9.11,1.45c.24.04.41.27.37.51-.03.22-.22.37-.44.37Z"></path>
            <path class="cls-4" d="M221.09,227.24s-.05,0-.07,0l-8.81-1.4c-.24-.04-.41-.26-.37-.51.04-.24.26-.41.51-.37l8.81,1.4c.24.04.41.27.37.51-.03.22-.22.37-.44.37Z"></path>
            <path class="cls-4" d="M221.06,227.48c-.23,0-.43-.18-.44-.42l-.53-9.39c-.01-.24.17-.45.42-.47.25-.02.45.17.47.42l.53,9.39c.01.24-.17.45-.42.47,0,0-.02,0-.03,0Z"></path>
            <path class="cls-4" d="M231.66,227.82c-.12,0-.25-.05-.33-.15h0s-3.24-3.66-8.28-3.46c-.25,0-.45-.18-.46-.42,0-.24.18-.45.42-.46,5.47-.21,8.84,3.6,8.98,3.76.16.18.14.46-.05.62-.08.07-.19.11-.29.11Z"></path>
          </g>
          <path class="cls-24" d="M295.69,191.88l-22.54,39.81-32.87-10.68-6.16,18.46,34.07,15.46c8.14,3.69,17.76,1.14,22.99-6.11l16.81-23.28-12.31-33.65Z"></path>
          <g class="cls-51">
            <path class="cls-44" d="M295.76,201.53l5.56,33.25-10.14,14.04s-.03.04-.04.06c-1.6,2.2-5.11.74-4.78-1.96,2.18-17.63,9.4-45.39,9.4-45.39Z"></path>
          </g>
          <path class="cls-22" d="M295.76,280.96l3.27-17.84h62.45c.74,4.18,1.72,10.68,2.68,18.75.79,6.64-5.75,11.65-12.02,9.33-21.31-7.88-47.73-9.81-56.38-10.24Z"></path>
          <polygon class="cls-27" points="337.59 174.59 320.31 176.43 312.69 263.12 340.01 263.12 337.59 174.59"></polygon>
          <path class="cls-12" d="M371.13,194.43l-5.75,57.4,5.02,24.72c.38,1.87-1.05,3.62-2.96,3.62h-29.43c-3.96,0-7.1-3.35-6.84-7.3l6.43-98.28s28.06,11.92,33.54,19.84Z"></path>
          <g class="cls-51">
            <path class="cls-44" d="M332.94,245.66l32.49,5.62-.05.54,3.4,16.76c.55,2.7-2.21,4.88-4.7,3.71-7.47-3.48-16.73-7.74-16.73-7.74v2.54c.01,1.94-1.85,3.35-3.72,2.8l-12.04-3.54,1.35-20.7Z"></path>
          </g>
          <path class="cls-22" d="M328.07,316.86l-2.09-18.68c-.24-2.14-3.28-2.35-3.79-.25-3.02,12.49-7.14,34.36-3.86,50.82l9.74-31.9Z"></path>
          <path class="cls-7" d="M295.95,457.47h-20.54c-.24,0-.44-.2-.44-.44s.2-.44.44-.44h20.54c.24,0,.44.2.44.44s-.2.44-.44.44Z"></path>
          <path class="cls-7" d="M371.33,457.47h-20.54c-.24,0-.44-.2-.44-.44s.2-.44.44-.44h20.54c.24,0,.44.2.44.44s-.2.44-.44.44Z"></path>
          <path class="cls-7" d="M336.21,298.83s-.03,0-.05,0l-24.51-2.88c-.24-.03-.42-.25-.39-.49.03-.24.25-.42.49-.39l24.51,2.88c.24.03.42.25.39.49-.03.23-.22.39-.44.39Z"></path>
          <path class="cls-7" d="M325.54,297.57c-.23,0-.42-.18-.44-.41l-2.41-32.57c-.02-.24.16-.46.41-.47.24-.02.46.16.47.41l2.41,32.57c.02.24-.16.46-.41.47-.01,0-.02,0-.03,0Z"></path>
          <path class="cls-12" d="M293.43,276.59l3.89-24.36c-2.36-17.99-3.76-38.83-4.43-50.65-.33-5.79,2.66-11.27,7.7-14.14l19.73-11.25-4.61,97.63c-.27,3.58-3.25,6.34-6.84,6.34h-12.38c-1.9,0-3.35-1.7-3.05-3.57Z"></path>
          <path class="cls-24" d="M333.94,230.33l3.65-55.74s2.38,1.01,5.88,2.64l5.06,15.72-8.76,8.35,5.75,10-11.58,19.04Z"></path>
          <polygon class="cls-24" points="319.21 226.91 311.83 205.4 317.28 199.38 311.83 192.12 314.36 179.59 320.31 176.2 319.21 226.91"></polygon>
          <rect class="cls-8" x="297.95" y="218.93" width="52.55" height="41.67" rx="3.13" ry="3.13" transform="translate(76.34 557.83) rotate(-88.55)"></rect>
          <g>
            <path class="cls-40" d="M326.9,237.07l-9.68-.36c-3.28-3.29-7.47-6.14-12.27-8.69-.64-.34-1.43-.12-1.82.49h0c-.36.57-.24,1.32.27,1.76l3.63,3.15-7.71-1.38c-1.45-.26-2.76.98-2.52,2.43.1.63.36,1.3.74,1.99-.63,2.32-.15,5.13.69,7.61.5,1.47,1.73,2.59,3.26,2.89,4.6.9,8.84.38,13.6-.46l9.85,2.74,1.96-12.17Z"></path>
            <path class="cls-4" d="M302.58,237.61s-.06,0-.08,0l-2.47-.47c-.24-.05-.4-.28-.35-.52.05-.24.28-.4.52-.35l2.47.47c.24.05.4.28.35.52-.04.21-.23.36-.43.36Z"></path>
            <path class="cls-4" d="M302.65,241.09s-.06,0-.08,0l-2.78-.53c-.24-.05-.4-.28-.35-.52.05-.24.28-.4.52-.35l2.78.53c.24.05.4.28.35.52-.04.21-.23.36-.43.36Z"></path>
            <path class="cls-4" d="M302.77,244.02s-.06,0-.08,0l-2.47-.47c-.24-.05-.4-.28-.35-.52.05-.24.28-.4.52-.35l2.47.47c.24.05.4.28.35.52-.04.21-.23.36-.43.36Z"></path>
            <polygon class="cls-27" points="326.9 237.07 324.94 249.24 317.18 247.09 319.35 236.79 326.9 237.07"></polygon>
          </g>
          <path class="cls-24" d="M353.18,193.78h0c-3.22,3.34-4.24,8.22-2.63,12.56l10.94,29.56-38.35-2.37-2.53,19.31s52.38,16.84,65.94,7.39c11.81-8.23,3.04-32.83-14.07-63.88-3.93-7.13-13.63-8.45-19.28-2.59Z"></path>
          <g>
            <path class="cls-44" d="M361.48,236.35c-.18,0-.35-.11-.42-.29l-9.63-26.02c-.08-.23.03-.48.26-.57.23-.09.48.03.57.26l9.63,26.02c.08.23-.03.48-.26.57-.05.02-.1.03-.15.03Z"></path>
            <path class="cls-44" d="M370.03,237.2s-.02,0-.03,0l-23.88-1.83c-.24-.02-.43-.23-.41-.48.02-.24.23-.42.48-.41l23.88,1.83c.24.02.43.23.41.48-.02.23-.21.41-.44.41Z"></path>
          </g>
          <g>
            <g>
              <path class="cls-17" d="M343.53,144.27c-1.08-4.78-5.76-4.9-5.76-4.9.44-3.7-3.26-6.33-8.82-5.57-5.57.76-7.08-2.24-13.47-2.8-6.39-.56-9.01,5.69-7.34,10.94,1.67,5.25,7.9,5.53,7.9,5.53l1.1,17.59,15.49-.1c4.02-.14,7.18-3.3,7.05-7.07-.02-.59-.13-1.15-.29-1.69,3-3.22,4.9-8.63,4.15-11.93Z"></path>
              <path class="cls-40" d="M336.69,151.29c-1.86.06-3.41,1.26-4.02,2.9-1.39-1.19-2.69-3.29-2.91-6.98,0,0-5.17,2.46-7.2.6-2.12-1.94-2.07-4.6-2.07-4.6,0,0-1.72,3.95-6.23,2.87l-1.23,16.4s-1.21,7.34,7.43,8.63l-.17,5.31s2.82,2.49,6.84,1.92c8.16-1.15,10.49-3.61,10.49-3.61l-2.67-14.96c.62.29,1.31.45,2.04.42,2.46-.08,4.39-2.15,4.3-4.61-.08-2.46-2.15-4.39-4.61-4.3Z"></path>
              <g class="cls-47">
                <path class="cls-4" d="M329.76,147.21s-5.17,2.46-7.2.6c-2.12-1.94-2.07-4.6-2.07-4.6,0,0-1.72,3.95-6.23,2.87,0,0,2.85,2.01,6.03,1.05,0,0,2.32,4.36,6.54,3.65,0,0,2.6,4.12,5.83,3.42-1.39-1.19-2.69-3.29-2.91-6.98Z"></path>
              </g>
              <path class="cls-4" d="M320.47,171.12s7.66.92,10.32-6.1c0,0-.21,10.3-10.49,11.42l.17-5.31Z"></path>
              <path class="cls-19" d="M337.79,158.42s-.08,0-.11-.02l-3.39-1.53c-.1-.04-.16-.14-.16-.24,0-.1.05-.2.14-.25l4.51-2.56c.13-.08.3-.03.38.1.08.13.03.3-.1.38l-4.04,2.29,2.89,1.31c.14.06.2.23.14.37-.05.1-.15.16-.25.16Z"></path>
              <path class="cls-19" d="M318.85,160.47s-.08,0-.12-.02l-2.45-.84c-.42-.14-.75-.47-.91-.88-.16-.42-.12-.87.1-1.26l2.81-4.95c.1-.17.31-.23.49-.13.17.1.23.31.13.49l-2.81,4.95c-.11.2-.13.44-.05.66.08.22.25.38.47.46l2.45.84c.19.06.28.27.22.45-.05.15-.19.24-.34.24Z"></path>
              <path class="cls-19" d="M319.13,162.84c-1.03,0-1.82-.21-1.85-.22-.15-.04-.23-.19-.19-.34.04-.15.19-.24.34-.2.03,0,3.33.87,5.03-1.09.1-.12.28-.13.39-.03.12.1.13.28.03.39-.8.93-2.03,1.43-3.55,1.47-.07,0-.13,0-.19,0Z"></path>
              <path class="cls-17" d="M316.44,151.97c.02.61-.31,1.11-.74,1.12-.43.01-.79-.46-.81-1.07-.02-.61.31-1.11.74-1.12.43-.01.79.46.81,1.07Z"></path>
              <path class="cls-17" d="M324.13,152.88c.02.61-.31,1.11-.74,1.12-.43.01-.79-.46-.81-1.07-.02-.61.31-1.11.74-1.12.43-.01.79.46.81,1.07Z"></path>
              <path class="cls-17" d="M325.99,151.24c-.12,0-.24-.06-.32-.16-1.33-1.87-3.38-1.24-3.46-1.21-.2.07-.43-.05-.49-.25-.07-.2.04-.43.25-.49.03,0,2.67-.85,4.35,1.5.13.18.08.42-.09.55-.07.05-.15.07-.23.07Z"></path>
              <path class="cls-17" d="M313.76,149.56c-.15,0-.29-.09-.36-.23-.09-.2,0-.43.2-.52.06-.03,1.52-.67,3.4-.13.21.06.33.28.27.48-.06.21-.28.33-.48.27-1.59-.46-2.85.08-2.87.09-.05.02-.11.03-.16.03Z"></path>
              <g class="cls-46">
                <path class="cls-21" d="M314.25,134.59s-2.44.43-2.48,2.71c-.04,2.29,2.14,3.98,5.75,2.83,0,0,3.97,4.09,8.68-.07,0,0-4.02,2.76-7.84-2.02,0,0-3.02,1.99-4.63-.18-1.62-2.17.52-3.27.52-3.27Z"></path>
              </g>
            </g>
            <g class="cls-47">
              <path class="cls-4" d="M329.99,157.26c-.05,1.02-1.88,1.76-4.08,1.64-2.2-.12-3.93-1.04-3.88-2.06.05-1.02,1.88-1.76,4.08-1.64,2.2.12,3.93,1.04,3.88,2.06Z"></path>
            </g>
          </g>
        </g>
      </g>
    </g>
  </g>
</svg>
