<?xml version="1.0" encoding="UTF-8"?>
<svg xmlns="http://www.w3.org/2000/svg" viewBox="0 0 500 500">
  <defs>
    <style>
      .cls-1, .cls-2 {
        fill: #104cba;
      }

      .cls-3 {
        fill: #fff;
      }

      .cls-4 {
        fill: #fafafa;
      }

      .cls-5 {
        fill: #f5f5f5;
      }

      .cls-6 {
        fill: #455a64;
      }

      .cls-7 {
        opacity: .2;
      }

      .cls-8 {
        fill: #e0e0e0;
      }

      .cls-9 {
        fill: #eb996e;
      }

      .cls-10 {
        opacity: .3;
      }

      .cls-11 {
        fill: #ffbe9d;
      }

      .cls-12 {
        fill: #ebebeb;
      }

      .cls-13 {
        stroke: #263238;
      }

      .cls-13, .cls-2 {
        stroke-miterlimit: 10;
        stroke-width: .25px;
      }

      .cls-13, .cls-14 {
        fill: #263238;
      }

      .cls-2 {
        stroke: #104cba;
      }
    </style>
  </defs>
  <g id="Background_Complete" data-name="Background Complete">
    <g>
      <rect class="cls-12" x="21.99" y="46.14" width="99.74" height="129.34"/>
      <g>
        <g>
          <path class="cls-8" d="m28.8,144.3s.18-.05.5.07c.3.13.73.49.87,1.13.07.31.05.7-.14,1.05-.19.35-.52.66-.96.82-.43.17-.97.18-1.45-.05-.48-.22-.88-.64-1.14-1.16-.54-1.05-.34-2.46.38-3.58.36-.57.86-1.09,1.52-1.41.33-.16.71-.25,1.09-.24.39.02.77.15,1.1.36.66.44,1.09,1.13,1.37,1.86.28.74.42,1.53.48,2.35.09,1.62-.28,3.34-1.15,4.84-.85,1.5-2,2.73-2.99,3.97-.99,1.24-1.86,2.53-2.26,3.92-.39,1.38-.33,2.83.25,3.96.56,1.15,1.76,1.75,2.83,1.73.53-.01,1.04-.17,1.42-.45.39-.28.65-.67.76-1.08.2-.83-.04-1.61-.38-2.1-.33-.52-.79-.74-1.09-.8-.16-.04-.28-.04-.36-.03-.08,0-.13,0-.13,0,0,0,.04-.01.13-.02.08-.01.21-.03.38,0,.32.04.82.26,1.19.79.37.51.66,1.31.45,2.22-.1.45-.39.89-.81,1.2-.42.32-.97.49-1.54.51-.58,0-1.19-.12-1.73-.44-.56-.3-1.03-.81-1.34-1.4-.64-1.2-.71-2.73-.3-4.17.42-1.45,1.3-2.78,2.3-4.03,1-1.26,2.12-2.48,2.95-3.94.84-1.44,1.2-3.09,1.11-4.66-.05-.78-.18-1.55-.45-2.25-.27-.69-.67-1.34-1.25-1.72-.57-.39-1.31-.41-1.9-.11-.6.28-1.08.77-1.42,1.3-.69,1.06-.89,2.37-.4,3.33.23.48.59.87,1.02,1.07.42.21.9.21,1.3.06.4-.14.71-.41.89-.73.18-.31.21-.66.15-.95-.11-.6-.49-.96-.77-1.1-.29-.14-.47-.11-.47-.13Z"/>
          <path class="cls-8" d="m29.67,132.53s-.18.05-.5-.07c-.3-.13-.73-.49-.87-1.13-.07-.31-.05-.7.14-1.05.19-.35.53-.66.96-.82.43-.17.97-.18,1.45.05.48.22.88.64,1.14,1.16.54,1.05.34,2.46-.38,3.58-.36.57-.86,1.09-1.53,1.41-.33.16-.71.25-1.09.24-.39-.01-.77-.15-1.1-.36-.66-.44-1.09-1.13-1.37-1.86-.28-.74-.42-1.53-.48-2.35-.09-1.62.28-3.34,1.15-4.84.85-1.5,2-2.73,2.99-3.97.99-1.24,1.86-2.53,2.26-3.92.39-1.38.33-2.83-.25-3.96-.56-1.15-1.76-1.75-2.83-1.73-.53.01-1.04.17-1.42.45-.39.28-.65.67-.76,1.08-.2.83.04,1.61.38,2.1.33.52.79.74,1.09.8.16.04.28.04.36.03.08,0,.13,0,.13,0,0,0-.04.01-.13.02-.08.01-.21.03-.38,0-.32-.04-.82-.26-1.19-.79-.37-.51-.66-1.31-.45-2.22.1-.45.39-.89.81-1.2.42-.32.97-.49,1.54-.51.58,0,1.19.12,1.73.44.56.3,1.03.81,1.34,1.4.64,1.2.71,2.73.3,4.17-.42,1.45-1.3,2.78-2.3,4.03-1,1.26-2.12,2.48-2.95,3.94-.84,1.44-1.2,3.09-1.11,4.66.05.78.18,1.55.45,2.25.27.69.67,1.34,1.25,1.72.57.39,1.31.41,1.9.11.6-.28,1.08-.77,1.42-1.3.69-1.06.89-2.37.4-3.33-.23-.48-.59-.87-1.02-1.07-.42-.21-.9-.21-1.3-.06-.4.14-.71.41-.89.73-.18.31-.21.66-.15.95.11.6.49.96.77,1.1.29.14.47.11.47.13Z"/>
          <path class="cls-8" d="m30.24,138.18c0,.56-.45,1.01-1.01,1.01s-1.01-.45-1.01-1.01.45-1.01,1.01-1.01,1.01.45,1.01,1.01Z"/>
          <circle class="cls-8" cx="29.67" cy="111.16" r="1.01"/>
        </g>
        <g>
          <path class="cls-8" d="m29.24,77.92s.18,0,.47-.14c.28-.14.66-.5.77-1.1.06-.29.03-.64-.15-.95-.18-.31-.49-.59-.89-.73-.4-.14-.88-.15-1.3.07-.43.21-.79.6-1.02,1.08-.48.97-.29,2.28.41,3.34.34.53.82,1.02,1.42,1.3.59.3,1.33.28,1.9-.12.57-.39.98-1.03,1.25-1.73.26-.7.4-1.47.45-2.26.08-1.57-.27-3.22-1.11-4.67-.83-1.46-1.95-2.69-2.95-3.95-1-1.25-1.88-2.59-2.3-4.04-.4-1.44-.33-2.97.3-4.18.31-.6.78-1.11,1.33-1.41.55-.32,1.16-.45,1.74-.44.58.02,1.13.2,1.55.52.42.32.7.76.81,1.21.2.91-.08,1.71-.45,2.22-.36.53-.86.75-1.19.8-.17.03-.29.02-.38,0-.08-.01-.13-.02-.13-.02s.04,0,.13,0c.08,0,.21,0,.36-.03.31-.06.77-.29,1.09-.81.34-.49.58-1.27.38-2.1-.1-.41-.37-.8-.76-1.08-.39-.28-.89-.44-1.43-.45-1.07-.02-2.27.59-2.83,1.74-.58,1.13-.64,2.59-.25,3.97.4,1.39,1.27,2.69,2.26,3.93.99,1.25,2.13,2.48,2.99,3.99.87,1.5,1.24,3.22,1.15,4.85-.05.81-.19,1.61-.47,2.35-.28.73-.72,1.43-1.37,1.87-.33.21-.71.35-1.1.36-.39.01-.76-.08-1.09-.24-.67-.32-1.17-.85-1.53-1.41-.72-1.12-.92-2.53-.39-3.59.26-.52.66-.94,1.14-1.17.48-.23,1.02-.22,1.45-.05.44.16.77.47.96.82.19.35.21.74.14,1.05-.14.64-.56,1-.87,1.13-.32.13-.5.08-.5.08Z"/>
          <path class="cls-8" d="m29.54,89.72s-.18,0-.47.13c-.28.14-.66.5-.77,1.1-.06.29-.03.64.15.95.18.31.49.59.89.73.39.14.88.15,1.3-.07.43-.21.79-.6,1.02-1.08.48-.97.29-2.28-.41-3.34-.34-.53-.82-1.02-1.42-1.3-.59-.3-1.33-.28-1.9.12-.57.39-.98,1.03-1.25,1.73-.26.7-.4,1.47-.45,2.26-.08,1.57.27,3.22,1.11,4.67.83,1.46,1.95,2.69,2.95,3.95,1,1.25,1.88,2.59,2.3,4.04.4,1.44.33,2.97-.3,4.18-.31.6-.78,1.11-1.33,1.41-.55.32-1.16.45-1.74.44-.58-.02-1.13-.2-1.55-.52-.42-.32-.71-.76-.81-1.21-.2-.91.08-1.71.45-2.22.36-.53.86-.75,1.19-.8.17-.03.29-.02.38,0,.08.01.13.02.13.02,0,0-.04,0-.13,0-.08,0-.21,0-.36.03-.31.06-.77.29-1.09.81-.34.49-.58,1.27-.38,2.1.1.41.37.8.76,1.08.39.28.89.44,1.43.45,1.07.02,2.27-.59,2.83-1.74.58-1.13.64-2.59.25-3.97-.4-1.39-1.27-2.69-2.26-3.93-.99-1.25-2.13-2.48-2.99-3.99-.87-1.5-1.24-3.22-1.15-4.85.05-.81.19-1.61.47-2.35.28-.73.72-1.43,1.37-1.87.33-.21.71-.35,1.1-.36.39-.01.76.08,1.09.24.67.32,1.17.85,1.53,1.41.72,1.12.92,2.53.39,3.59-.26.52-.66.94-1.14,1.17-.48.23-1.02.22-1.45.05-.44-.16-.77-.47-.96-.82-.19-.35-.21-.74-.14-1.05.14-.64.56-1,.87-1.13.32-.13.5-.08.5-.08Z"/>
          <circle class="cls-8" cx="29.67" cy="84.05" r="1.01"/>
        </g>
      </g>
      <g>
        <g>
          <path class="cls-8" d="m112.98,144.3s.18-.05.5.07c.3.13.73.49.87,1.13.07.31.05.7-.14,1.05-.19.35-.52.66-.96.82-.43.17-.97.18-1.45-.05-.48-.22-.88-.64-1.14-1.16-.54-1.05-.34-2.46.38-3.58.36-.57.86-1.09,1.53-1.41.33-.16.71-.25,1.09-.24.39.02.77.15,1.1.36.66.44,1.09,1.13,1.37,1.86.28.74.42,1.53.48,2.35.09,1.62-.28,3.34-1.15,4.84-.85,1.5-2,2.73-2.99,3.97-.99,1.24-1.86,2.53-2.26,3.92-.39,1.38-.33,2.83.25,3.96.56,1.15,1.76,1.75,2.83,1.73.53-.01,1.04-.17,1.42-.45.39-.28.65-.67.76-1.08.2-.83-.04-1.61-.38-2.1-.33-.52-.79-.74-1.09-.8-.16-.04-.28-.04-.36-.03-.08,0-.13,0-.13,0,0,0,.04-.01.13-.02.08-.01.21-.03.38,0,.32.04.82.26,1.19.79.37.51.66,1.31.45,2.22-.1.45-.39.89-.81,1.2-.42.32-.97.49-1.54.51-.58,0-1.19-.12-1.73-.44-.56-.3-1.03-.81-1.34-1.4-.64-1.2-.71-2.73-.3-4.17.42-1.45,1.3-2.78,2.3-4.03,1-1.26,2.12-2.48,2.95-3.94.84-1.44,1.2-3.09,1.11-4.66-.05-.78-.18-1.55-.45-2.25-.27-.69-.67-1.34-1.25-1.72-.57-.39-1.31-.41-1.9-.11-.6.28-1.08.77-1.42,1.3-.69,1.06-.89,2.37-.4,3.33.23.48.59.87,1.02,1.07.42.21.9.21,1.3.06.4-.14.71-.41.89-.73.18-.31.21-.66.15-.95-.11-.6-.49-.96-.77-1.1-.29-.14-.47-.11-.47-.13Z"/>
          <path class="cls-8" d="m113.86,132.53s-.18.05-.5-.07c-.3-.13-.73-.49-.87-1.13-.07-.31-.05-.7.14-1.05.19-.35.52-.66.96-.82.43-.17.97-.18,1.45.05.48.22.88.64,1.14,1.16.54,1.05.34,2.46-.38,3.58-.36.57-.86,1.09-1.53,1.41-.33.16-.71.25-1.09.24-.39-.01-.77-.15-1.1-.36-.66-.44-1.09-1.13-1.37-1.86-.28-.74-.42-1.53-.48-2.35-.09-1.62.28-3.34,1.15-4.84.85-1.5,2-2.73,2.99-3.97.99-1.24,1.86-2.53,2.26-3.92.39-1.38.33-2.83-.25-3.96-.56-1.15-1.76-1.75-2.83-1.73-.53.01-1.04.17-1.42.45-.39.28-.65.67-.76,1.08-.2.83.04,1.61.38,2.1.33.52.79.74,1.09.8.16.04.28.04.36.03.08,0,.13,0,.13,0,0,0-.04.01-.13.02-.08.01-.21.03-.38,0-.32-.04-.82-.26-1.19-.79-.37-.51-.66-1.31-.45-2.22.1-.45.39-.89.81-1.2.42-.32.97-.49,1.54-.51.58,0,1.19.12,1.73.44.56.3,1.03.81,1.34,1.4.64,1.2.71,2.73.3,4.17-.42,1.45-1.3,2.78-2.3,4.03-1,1.26-2.12,2.48-2.95,3.94-.84,1.44-1.2,3.09-1.11,4.66.05.78.18,1.55.45,2.25.27.69.67,1.34,1.25,1.72.57.39,1.31.41,1.9.11.6-.28,1.08-.77,1.42-1.3.69-1.06.89-2.37.4-3.33-.23-.48-.59-.87-1.02-1.07-.42-.21-.9-.21-1.3-.06-.4.14-.71.41-.89.73-.18.31-.21.66-.15.95.11.6.49.96.77,1.1.29.14.47.11.47.13Z"/>
          <path class="cls-8" d="m114.43,138.18c0,.56-.45,1.01-1.01,1.01s-1.01-.45-1.01-1.01.45-1.01,1.01-1.01,1.01.45,1.01,1.01Z"/>
          <circle class="cls-8" cx="113.86" cy="111.16" r="1.01"/>
        </g>
        <g>
          <path class="cls-8" d="m113.42,77.92s.18,0,.47-.14c.28-.14.66-.5.77-1.1.06-.29.03-.64-.15-.95-.18-.31-.49-.59-.89-.73-.39-.14-.88-.15-1.3.07-.43.21-.79.6-1.02,1.08-.48.97-.29,2.28.41,3.34.34.53.82,1.02,1.42,1.3.59.3,1.33.28,1.9-.12.57-.39.98-1.03,1.25-1.73.26-.7.4-1.47.45-2.26.08-1.57-.27-3.22-1.11-4.67-.83-1.46-1.95-2.69-2.95-3.95-1-1.25-1.88-2.59-2.3-4.04-.4-1.44-.33-2.97.3-4.18.31-.6.78-1.11,1.33-1.41.55-.32,1.16-.45,1.74-.44.58.02,1.13.2,1.55.52.42.32.71.76.81,1.21.2.91-.08,1.71-.45,2.22-.36.53-.86.75-1.19.8-.17.03-.29.02-.38,0-.08-.01-.13-.02-.13-.02s.04,0,.13,0c.08,0,.21,0,.36-.03.31-.06.76-.29,1.09-.81.34-.49.58-1.27.38-2.1-.1-.41-.37-.8-.76-1.08-.39-.28-.89-.44-1.43-.45-1.07-.02-2.27.59-2.83,1.74-.58,1.13-.64,2.59-.25,3.97.4,1.39,1.27,2.69,2.26,3.93.99,1.25,2.13,2.48,2.99,3.99.87,1.5,1.24,3.22,1.15,4.85-.05.81-.19,1.61-.47,2.35-.28.73-.72,1.43-1.37,1.87-.33.21-.71.35-1.1.36-.39.01-.76-.08-1.09-.24-.67-.32-1.17-.85-1.53-1.41-.72-1.12-.92-2.53-.38-3.59.26-.52.66-.94,1.14-1.17.48-.23,1.02-.22,1.45-.05.44.16.77.47.96.82.19.35.21.74.14,1.05-.14.64-.56,1-.87,1.13-.32.13-.5.08-.5.08Z"/>
          <path class="cls-8" d="m113.73,89.72s-.18,0-.47.13c-.28.14-.66.5-.77,1.1-.06.29-.03.64.15.95.18.31.49.59.89.73.39.14.88.15,1.3-.07.43-.21.79-.6,1.02-1.08.48-.97.29-2.28-.41-3.34-.34-.53-.82-1.02-1.42-1.3-.59-.3-1.33-.28-1.9.12-.57.39-.98,1.03-1.25,1.73-.26.7-.4,1.47-.45,2.26-.08,1.57.27,3.22,1.11,4.67.83,1.46,1.95,2.69,2.95,3.95,1,1.25,1.88,2.59,2.3,4.04.4,1.44.33,2.97-.3,4.18-.31.6-.78,1.11-1.33,1.41-.55.32-1.16.45-1.74.44-.58-.02-1.13-.2-1.55-.52-.42-.32-.71-.76-.81-1.21-.2-.91.08-1.71.45-2.22.36-.53.86-.75,1.19-.8.17-.03.29-.02.38,0,.08.01.13.02.13.02,0,0-.04,0-.13,0-.08,0-.21,0-.36.03-.31.06-.76.29-1.09.81-.34.49-.58,1.27-.38,2.1.1.41.37.8.76,1.08.39.28.89.44,1.43.45,1.07.02,2.27-.59,2.83-1.74.58-1.13.64-2.59.25-3.97-.4-1.39-1.27-2.69-2.26-3.93-.99-1.25-2.13-2.48-2.99-3.99-.87-1.5-1.24-3.22-1.15-4.85.05-.81.19-1.61.47-2.35.28-.73.72-1.43,1.37-1.87.33-.21.71-.35,1.1-.36.39-.01.76.08,1.09.24.67.32,1.17.85,1.53,1.41.72,1.12.92,2.53.38,3.59-.26.52-.66.94-1.14,1.17-.48.23-1.02.22-1.45.05-.44-.16-.77-.47-.96-.82-.19-.35-.21-.74-.14-1.05.14-.64.56-1,.87-1.13.32-.13.5-.08.5-.08Z"/>
          <circle class="cls-8" cx="113.86" cy="84.05" r="1.01"/>
        </g>
      </g>
      <g>
        <path class="cls-8" d="m64.94,168.26s0-.18-.13-.47c-.14-.28-.5-.66-1.1-.77-.29-.06-.64-.03-.95.15-.31.18-.59.49-.73.89-.14.39-.15.88.07,1.3.21.43.6.79,1.08,1.02.97.48,2.28.29,3.34-.41.53-.34,1.02-.82,1.3-1.42.3-.59.28-1.33-.12-1.9-.39-.57-1.03-.98-1.73-1.25-.7-.26-1.47-.4-2.26-.45-1.57-.08-3.22.27-4.67,1.11-1.46.83-2.69,1.95-3.95,2.95-1.25,1-2.59,1.88-4.04,2.3-1.44.4-2.97.33-4.18-.3-.6-.31-1.11-.78-1.41-1.33-.32-.55-.45-1.16-.44-1.74.02-.58.2-1.13.52-1.55.32-.42.76-.7,1.21-.81.91-.2,1.71.08,2.22.45.53.36.75.86.8,1.19.03.17.02.29,0,.38-.01.08-.02.13-.02.13,0,0,0-.04,0-.13,0-.08,0-.21-.03-.36-.06-.31-.29-.77-.8-1.09-.49-.34-1.27-.58-2.1-.38-.41.1-.8.37-1.08.76-.28.39-.44.89-.45,1.43-.02,1.07.59,2.27,1.74,2.83,1.13.58,2.59.64,3.97.25,1.39-.4,2.69-1.27,3.93-2.26,1.25-.99,2.48-2.13,3.99-2.99,1.5-.87,3.22-1.24,4.85-1.15.81.05,1.61.19,2.35.47.73.28,1.43.72,1.87,1.37.21.33.35.71.36,1.1.01.39-.08.76-.24,1.09-.32.67-.85,1.17-1.41,1.53-1.12.72-2.53.92-3.59.39-.52-.26-.94-.66-1.17-1.14-.23-.48-.22-1.02-.05-1.45.16-.44.47-.77.82-.96.35-.19.74-.21,1.05-.14.64.14,1,.56,1.13.87.13.32.08.5.08.5Z"/>
        <path class="cls-8" d="m93.32,167.96s.05.18-.08.5c-.13.3-.49.73-1.13.87-.31.07-.7.05-1.05-.14-.35-.19-.66-.53-.82-.96-.17-.43-.18-.97.05-1.45.22-.48.65-.88,1.17-1.14,1.05-.54,2.46-.33,3.59.39.57.36,1.1.86,1.41,1.53.16.33.25.71.24,1.09-.02.39-.15.77-.36,1.1-.44.66-1.14,1.09-1.87,1.37-.74.28-1.54.42-2.35.47-1.63.09-3.35-.28-4.85-1.15-1.51-.85-2.74-1.99-3.99-2.99-1.24-.99-2.53-1.86-3.93-2.26-1.38-.39-2.84-.33-3.97.25-1.16.56-1.76,1.76-1.74,2.83.01.53.17,1.04.45,1.43.29.39.67.65,1.08.76.83.2,1.61-.04,2.1-.38.52-.33.74-.79.81-1.09.04-.16.04-.28.03-.36,0-.08,0-.13,0-.13,0,0,.01.04.02.13.01.08.03.21,0,.38-.05.32-.26.82-.8,1.19-.51.37-1.31.65-2.22.45-.45-.1-.89-.39-1.21-.81-.32-.42-.5-.97-.52-1.55,0-.58.12-1.19.44-1.74.3-.56.81-1.02,1.41-1.33,1.21-.64,2.73-.7,4.18-.3,1.46.41,2.79,1.3,4.04,2.3,1.26,1,2.48,2.12,3.95,2.95,1.45.84,3.1,1.2,4.67,1.11.78-.05,1.56-.18,2.26-.45.7-.26,1.34-.67,1.73-1.25.39-.57.41-1.31.12-1.9-.28-.6-.77-1.08-1.3-1.42-1.06-.69-2.37-.89-3.34-.41-.48.23-.87.59-1.08,1.02-.21.43-.21.91-.07,1.3.14.4.41.71.73.89.31.18.66.21.95.15.6-.11.96-.49,1.1-.77.14-.29.11-.47.13-.47Z"/>
        <path class="cls-8" d="m71.07,166.81c-.56,0-1.02.45-1.02,1.01s.46,1.01,1.02,1.01,1.02-.45,1.02-1.01-.46-1.01-1.02-1.01Z"/>
        <path class="cls-8" d="m103.22,166.81c-.56,0-1.02.45-1.02,1.01s.46,1.01,1.02,1.01,1.02-.45,1.02-1.01-.45-1.01-1.02-1.01Z"/>
        <circle class="cls-8" cx="40.52" cy="167.83" r="1.02"/>
      </g>
      <g>
        <path class="cls-8" d="m64.94,53.69s0-.18-.13-.47c-.14-.28-.5-.66-1.1-.77-.29-.06-.64-.03-.95.15-.31.18-.59.49-.73.89-.14.4-.15.88.07,1.3.21.43.6.79,1.08,1.02.97.48,2.28.29,3.34-.41.53-.34,1.02-.82,1.3-1.42.3-.59.28-1.33-.12-1.9-.39-.57-1.03-.98-1.73-1.25-.7-.26-1.47-.4-2.26-.45-1.57-.08-3.22.27-4.67,1.11-1.46.83-2.69,1.95-3.95,2.95-1.25,1-2.59,1.88-4.04,2.3-1.44.4-2.97.33-4.18-.3-.6-.31-1.11-.78-1.41-1.33-.32-.55-.45-1.16-.44-1.74.02-.58.2-1.13.52-1.55.32-.42.76-.71,1.21-.81.91-.2,1.71.08,2.22.45.53.36.75.86.8,1.19.03.17.02.29,0,.38-.01.08-.02.13-.02.13,0,0,0-.04,0-.13,0-.08,0-.21-.03-.36-.06-.31-.29-.76-.8-1.09-.49-.34-1.27-.58-2.1-.38-.41.1-.8.37-1.08.76-.28.39-.44.89-.45,1.43-.02,1.07.59,2.27,1.74,2.83,1.13.58,2.59.64,3.97.25,1.39-.4,2.69-1.27,3.93-2.26,1.25-.99,2.48-2.13,3.99-2.99,1.5-.87,3.22-1.24,4.85-1.15.81.05,1.61.19,2.35.47.73.28,1.43.72,1.87,1.37.21.33.35.71.36,1.1.01.39-.08.76-.24,1.09-.32.67-.85,1.17-1.41,1.53-1.12.72-2.53.92-3.59.38-.52-.26-.94-.66-1.17-1.14-.23-.48-.22-1.02-.05-1.45.16-.44.47-.77.82-.96.35-.19.74-.21,1.05-.14.64.14,1,.56,1.13.87.13.32.08.5.08.5Z"/>
        <path class="cls-8" d="m93.32,53.39s.05.18-.08.5c-.13.3-.49.73-1.13.87-.31.07-.7.05-1.05-.14-.35-.19-.66-.52-.82-.96-.17-.43-.18-.97.05-1.45.22-.48.65-.88,1.17-1.14,1.05-.54,2.46-.33,3.59.39.57.36,1.1.86,1.41,1.53.16.33.25.71.24,1.09-.02.39-.15.77-.36,1.1-.44.66-1.14,1.09-1.87,1.37-.74.28-1.54.42-2.35.47-1.63.09-3.35-.28-4.85-1.15-1.51-.85-2.74-2-3.99-2.99-1.24-.99-2.53-1.86-3.93-2.26-1.38-.39-2.84-.33-3.97.25-1.16.56-1.76,1.76-1.74,2.83.01.53.17,1.04.45,1.43.29.39.67.65,1.08.76.83.2,1.61-.04,2.1-.38.52-.33.74-.79.81-1.09.04-.16.04-.28.03-.36,0-.08,0-.13,0-.13,0,0,.01.04.02.13.01.08.03.21,0,.38-.05.32-.26.82-.8,1.19-.51.37-1.31.65-2.22.45-.45-.1-.89-.39-1.21-.81-.32-.42-.5-.97-.52-1.55,0-.58.12-1.19.44-1.74.3-.56.81-1.02,1.41-1.33,1.21-.64,2.73-.7,4.18-.3,1.46.42,2.79,1.3,4.04,2.3,1.26,1,2.48,2.12,3.95,2.95,1.45.84,3.1,1.2,4.67,1.11.78-.05,1.56-.18,2.26-.45.7-.26,1.34-.67,1.73-1.25.39-.57.41-1.31.12-1.9-.28-.6-.77-1.08-1.3-1.42-1.06-.69-2.37-.89-3.34-.41-.48.23-.87.59-1.08,1.02-.21.42-.21.91-.07,1.3.14.4.41.71.73.89.31.18.66.21.95.15.6-.11.96-.49,1.1-.77.14-.29.11-.47.13-.47Z"/>
        <path class="cls-8" d="m71.07,52.24c-.56,0-1.02.45-1.02,1.01s.46,1.01,1.02,1.01,1.02-.45,1.02-1.01-.46-1.01-1.02-1.01Z"/>
        <path class="cls-8" d="m103.22,52.24c-.56,0-1.02.45-1.02,1.01s.46,1.01,1.02,1.01,1.02-.45,1.02-1.01-.45-1.01-1.02-1.01Z"/>
        <circle class="cls-8" cx="40.52" cy="53.26" r="1.02"/>
      </g>
      <g>
        <path class="cls-8" d="m107.3,161.4s0-.17,0-.49c0-.32,0-.8,0-1.42,0-1.26-.01-3.11-.02-5.51,0-4.82-.02-11.86-.04-20.76-.02-17.79-.04-43.02-.07-72.83l.15.15c-21.48,0-45.55,0-70.91.01h0l.16-.16c-.01,37.89-.02,72.91-.03,101.01l-.13-.13c21.54.03,39.25.05,51.59.07,6.17.01,11,.03,14.29.03,1.64,0,2.9.01,3.75.01.85,0,1.29.01,1.29.01,0,0-.42,0-1.26.01-.85,0-2.1,0-3.73.01-3.28,0-8.1.02-14.26.03-12.35.02-30.1.04-51.67.07h-.13s0-.13,0-.13c0-28.1-.02-63.12-.03-101.01v-.16s.16,0,.16,0h0c25.36,0,49.43.01,70.91.01h.15v.15c-.03,29.85-.06,55.12-.07,72.93-.02,8.89-.03,15.91-.04,20.72,0,2.39-.01,4.24-.02,5.49,0,.62,0,1.09,0,1.41,0,.31,0,.47,0,.47Z"/>
        <path class="cls-8" d="m121.71,46.22c.03.07-1.09.4-2.6,1.44-1.52,1.03-3.4,2.77-5.23,4.91-1.85,2.12-3.38,4.17-4.56,5.6-.58.72-1.08,1.29-1.43,1.67-.37.37-.58.56-.6.54-.02-.02.16-.24.5-.63.32-.4.79-.99,1.34-1.72,1.12-1.47,2.63-3.54,4.49-5.67,1.84-2.15,3.77-3.89,5.35-4.89.38-.27.76-.46,1.09-.63.16-.08.31-.16.46-.23.15-.06.29-.11.41-.15.49-.17.76-.26.77-.24Z"/>
        <path class="cls-8" d="m122.05,176.08s-.21-.2-.55-.6c-.38-.45-.86-1.02-1.43-1.69-1.21-1.42-2.93-3.35-4.95-5.36-2.02-2.01-3.95-3.73-5.38-4.93-.68-.57-1.25-1.04-1.7-1.42-.4-.33-.62-.53-.6-.55.01-.02.26.14.68.45.43.3,1.03.76,1.77,1.34,1.47,1.16,3.43,2.86,5.46,4.88,2.03,2.02,3.73,3.98,4.9,5.44.59.73,1.05,1.34,1.35,1.76.31.43.47.67.45.68Z"/>
        <path class="cls-8" d="m21.72,175.89s.13-.26.4-.7c.27-.44.7-1.06,1.25-1.82,1.1-1.5,2.74-3.49,4.78-5.48,2.04-1.98,4.07-3.57,5.61-4.63.77-.53,1.4-.94,1.85-1.2.45-.27.7-.4.71-.38.01.02-.22.19-.64.49-.43.29-1.04.73-1.78,1.28-1.49,1.1-3.49,2.71-5.51,4.68-2.02,1.97-3.68,3.92-4.82,5.38-.57.73-1.02,1.33-1.33,1.75-.31.42-.49.64-.51.63Z"/>
        <path class="cls-8" d="m21.97,46.22s.23.17.6.53c.42.4.94.91,1.56,1.51,1.32,1.27,3.17,2.99,5.23,4.88,2.06,1.89,3.89,3.64,5.17,4.96.64.66,1.15,1.2,1.49,1.58.34.38.52.6.51.62s-.23-.17-.6-.53c-.42-.4-.94-.91-1.56-1.51-1.32-1.27-3.17-2.99-5.23-4.88-2.06-1.89-3.89-3.64-5.17-4.96-.64-.66-1.15-1.2-1.49-1.58-.34-.38-.52-.6-.51-.62Z"/>
        <path class="cls-8" d="m117.79,49.2c.09,0,.16,27.42.16,61.24s-.07,61.24-.16,61.24-.16-27.41-.16-61.24.07-61.24.16-61.24Z"/>
        <path class="cls-8" d="m116.38,48.92c0,.09-20.47.16-45.72.16s-45.72-.07-45.72-.16,20.47-.16,45.72-.16,45.72.07,45.72.16Z"/>
        <path class="cls-8" d="m25.22,169.71c-.09,0-.16-26.98-.16-60.25s.07-60.26.16-60.26.16,26.97.16,60.26-.07,60.25-.16,60.25Z"/>
        <path class="cls-8" d="m117.79,171.96c0,.09-20.22.16-45.15.16s-45.16-.07-45.16-.16,20.21-.16,45.16-.16,45.15.07,45.15.16Z"/>
        <path class="cls-8" d="m110.09,163.62s0-.17,0-.51c0-.34,0-.84,0-1.49,0-1.31-.01-3.25-.02-5.77-.01-5.04-.03-12.41-.06-21.74-.03-18.64-.08-45.09-.14-76.4l.15.15c-23.13-.08-49.21-.18-76.71-.27l.16-.16s0,.08,0,.12c.12,39.77.22,76.57.31,106.29l-.13-.13c23.19-.04,42.28-.07,55.59-.09,6.66,0,11.87,0,15.42,0,1.77,0,3.13,0,4.05,0,.92,0,1.4.01,1.4.01,0,0-.46.01-1.37.02-.91,0-2.26.01-4.03.03-3.54.02-8.74.04-15.39.08-13.33.05-32.45.13-55.67.23h-.13s0-.13,0-.13c-.1-29.72-.23-66.52-.37-106.29,0-.04,0-.08,0-.12v-.16s.16,0,.16,0c27.5.11,53.58.21,76.71.31h.15v.15c0,31.34,0,57.84-.01,76.5,0,9.31-.02,16.67-.02,21.7,0,2.51,0,4.43-.01,5.74,0,.65,0,1.14,0,1.47,0,.33,0,.49,0,.49Z"/>
        <g class="cls-7">
          <path class="cls-8" d="m36.35,63.62c0,.09-.69.16-1.55.16s-1.55-.07-1.55-.16.69-.16,1.55-.16,1.55.07,1.55.16Z"/>
        </g>
        <g>
          <path class="cls-8" d="m39.63,163.82c-.1,0-.19-.53-.16-1.19.03-.65.08-1.17.16-1.18.1,0,.19.53.16,1.19-.03.65-.08,1.17-.16,1.18Z"/>
          <path class="cls-8" d="m37.14,163.85c-.1,0-.19-.53-.16-1.19.03-.65.08-1.17.16-1.18.1,0,.19.53.16,1.19-.03.65-.08,1.17-.16,1.18Z"/>
          <path class="cls-8" d="m42.45,163.71c-.09,0-.18-.5-.2-1.13-.02-.63.03-1.14.12-1.15.09,0,.18.5.2,1.13.02.63-.03,1.14-.12,1.15Z"/>
          <path class="cls-8" d="m45.04,163.71c-.09,0-.18-.5-.2-1.13-.02-.63.03-1.14.12-1.15.09,0,.18.5.2,1.13.02.63-.03,1.14-.12,1.15Z"/>
          <path class="cls-8" d="m47.62,163.71c-.09,0-.18-.5-.2-1.13-.02-.63.03-1.14.12-1.15.09,0,.18.5.2,1.13.02.63-.03,1.14-.12,1.15Z"/>
          <path class="cls-8" d="m50.21,163.71c-.09,0-.18-.5-.2-1.13-.02-.63.03-1.14.12-1.15.09,0,.18.5.2,1.13.02.63-.03,1.14-.12,1.15Z"/>
          <path class="cls-8" d="m52.79,163.71c-.09,0-.18-.5-.2-1.13-.02-.63.03-1.14.12-1.15.09,0,.18.5.2,1.13.02.63-.03,1.14-.12,1.15Z"/>
          <path class="cls-8" d="m55.38,163.71c-.09,0-.18-.5-.2-1.13-.02-.63.03-1.14.12-1.15.09,0,.18.5.2,1.13.02.63-.03,1.14-.12,1.15Z"/>
          <path class="cls-8" d="m57.97,163.71c-.09,0-.18-.5-.2-1.13-.02-.63.03-1.14.12-1.15.09,0,.18.5.2,1.13.02.63-.03,1.14-.12,1.15Z"/>
          <path class="cls-8" d="m60.55,163.71c-.09,0-.18-.5-.2-1.13-.02-.63.03-1.14.12-1.15.09,0,.18.5.2,1.13.02.63-.03,1.14-.12,1.15Z"/>
          <path class="cls-8" d="m63.14,163.71c-.09,0-.18-.5-.2-1.13-.02-.63.03-1.14.12-1.15.09,0,.18.5.2,1.13.02.63-.03,1.14-.12,1.15Z"/>
          <path class="cls-8" d="m65.72,163.71c-.09,0-.18-.5-.2-1.13-.02-.63.03-1.14.12-1.15.09,0,.18.5.2,1.13.02.63-.03,1.14-.12,1.15Z"/>
          <path class="cls-8" d="m68.31,163.71c-.09,0-.18-.5-.2-1.13-.02-.63.03-1.14.12-1.15.09,0,.18.5.2,1.13.02.63-.03,1.14-.12,1.15Z"/>
          <path class="cls-8" d="m70.89,163.71c-.09,0-.18-.5-.2-1.13-.02-.63.03-1.14.12-1.15.09,0,.18.5.2,1.13.02.63-.03,1.14-.12,1.15Z"/>
          <path class="cls-8" d="m73.48,163.71c-.09,0-.18-.5-.2-1.13-.02-.63.03-1.14.12-1.15.09,0,.18.5.2,1.13.02.63-.03,1.14-.12,1.15Z"/>
          <path class="cls-8" d="m76.07,163.71c-.09,0-.18-.5-.2-1.13-.02-.63.03-1.14.12-1.15.09,0,.18.5.2,1.13.02.63-.03,1.14-.12,1.15Z"/>
          <path class="cls-8" d="m78.65,163.71c-.09,0-.18-.5-.2-1.13-.02-.63.03-1.14.12-1.15.09,0,.18.5.2,1.13.02.63-.03,1.14-.12,1.15Z"/>
          <path class="cls-8" d="m81.24,163.71c-.09,0-.18-.5-.2-1.13-.02-.63.03-1.14.12-1.15.09,0,.18.5.2,1.13.02.63-.03,1.14-.12,1.15Z"/>
          <path class="cls-8" d="m83.82,163.71c-.09,0-.18-.5-.2-1.13-.02-.63.03-1.14.12-1.15.09,0,.18.5.2,1.13.02.63-.03,1.14-.12,1.15Z"/>
          <path class="cls-8" d="m86.41,163.71c-.09,0-.18-.5-.2-1.13-.02-.63.03-1.14.12-1.15.09,0,.18.5.2,1.13.02.63-.03,1.14-.12,1.15Z"/>
          <path class="cls-8" d="m88.99,163.71c-.09,0-.18-.5-.2-1.13-.02-.63.03-1.14.12-1.15.09,0,.18.5.2,1.13.02.63-.03,1.14-.12,1.15Z"/>
          <path class="cls-8" d="m91.58,163.71c-.09,0-.18-.5-.2-1.13-.02-.63.03-1.14.12-1.15.09,0,.18.5.2,1.13.02.63-.03,1.14-.12,1.15Z"/>
          <path class="cls-8" d="m94.17,163.71c-.09,0-.18-.5-.2-1.13-.02-.63.03-1.14.12-1.15.09,0,.18.5.2,1.13.02.63-.03,1.14-.12,1.15Z"/>
          <path class="cls-8" d="m96.75,163.71c-.09,0-.18-.5-.2-1.13-.02-.63.03-1.14.12-1.15.09,0,.18.5.2,1.13.02.63-.03,1.14-.12,1.15Z"/>
          <path class="cls-8" d="m99.34,163.71c-.09,0-.18-.5-.2-1.13-.02-.63.03-1.14.12-1.15.09,0,.18.5.2,1.13.02.63-.03,1.14-.12,1.15Z"/>
          <path class="cls-8" d="m101.92,163.71c-.09,0-.18-.5-.2-1.13-.02-.63.03-1.14.12-1.15.09,0,.18.5.2,1.13.02.63-.03,1.14-.12,1.15Z"/>
          <path class="cls-8" d="m104.51,163.71c-.09,0-.18-.5-.2-1.13-.02-.63.03-1.14.12-1.15.09,0,.18.5.2,1.13.02.63-.03,1.14-.12,1.15Z"/>
          <path class="cls-8" d="m107.1,163.71c-.09,0-.18-.5-.2-1.13-.02-.63.03-1.14.12-1.15.09,0,.18.5.2,1.13.02.63-.03,1.14-.12,1.15Z"/>
          <path class="cls-8" d="m110,160.71c0,.09-.61.16-1.36.16s-1.36-.07-1.36-.16.61-.16,1.36-.16,1.36.07,1.36.16Z"/>
          <path class="cls-8" d="m110,157.83c0,.09-.61.16-1.36.16s-1.36-.07-1.36-.16.61-.16,1.36-.16,1.36.07,1.36.16Z"/>
          <path class="cls-8" d="m110,154.95c0,.09-.61.16-1.36.16s-1.36-.07-1.36-.16.61-.16,1.36-.16,1.36.07,1.36.16Z"/>
          <path class="cls-8" d="m110,152.08c0,.09-.61.16-1.36.16s-1.36-.07-1.36-.16.61-.16,1.36-.16,1.36.07,1.36.16Z"/>
          <path class="cls-8" d="m110,149.2c0,.09-.61.16-1.36.16s-1.36-.07-1.36-.16.61-.16,1.36-.16,1.36.07,1.36.16Z"/>
          <path class="cls-8" d="m110,146.32c0,.09-.61.16-1.36.16s-1.36-.07-1.36-.16.61-.16,1.36-.16,1.36.07,1.36.16Z"/>
          <path class="cls-8" d="m110,143.44c0,.09-.61.16-1.36.16s-1.36-.07-1.36-.16.61-.16,1.36-.16,1.36.07,1.36.16Z"/>
          <path class="cls-8" d="m110,140.56c0,.09-.61.16-1.36.16s-1.36-.07-1.36-.16.61-.16,1.36-.16,1.36.07,1.36.16Z"/>
          <path class="cls-8" d="m110,137.68c0,.09-.61.16-1.36.16s-1.36-.07-1.36-.16.61-.16,1.36-.16,1.36.07,1.36.16Z"/>
          <path class="cls-8" d="m110,134.81c0,.09-.61.16-1.36.16s-1.36-.07-1.36-.16.61-.16,1.36-.16,1.36.07,1.36.16Z"/>
          <path class="cls-8" d="m110,131.93c0,.09-.61.16-1.36.16s-1.36-.07-1.36-.16.61-.16,1.36-.16,1.36.07,1.36.16Z"/>
          <path class="cls-8" d="m110,129.05c0,.09-.61.16-1.36.16s-1.36-.07-1.36-.16.61-.16,1.36-.16,1.36.07,1.36.16Z"/>
          <path class="cls-8" d="m110,126.17c0,.09-.61.16-1.36.16s-1.36-.07-1.36-.16.61-.16,1.36-.16,1.36.07,1.36.16Z"/>
          <path class="cls-8" d="m110,123.29c0,.09-.61.16-1.36.16s-1.36-.07-1.36-.16.61-.16,1.36-.16,1.36.07,1.36.16Z"/>
          <path class="cls-8" d="m110,120.41c0,.09-.61.16-1.36.16s-1.36-.07-1.36-.16.61-.16,1.36-.16,1.36.07,1.36.16Z"/>
          <path class="cls-8" d="m110,117.54c0,.09-.61.16-1.36.16s-1.36-.07-1.36-.16.61-.16,1.36-.16,1.36.07,1.36.16Z"/>
          <path class="cls-8" d="m110,114.66c0,.09-.61.16-1.36.16s-1.36-.07-1.36-.16.61-.16,1.36-.16,1.36.07,1.36.16Z"/>
          <path class="cls-8" d="m110,111.78c0,.09-.61.16-1.36.16s-1.36-.07-1.36-.16.61-.16,1.36-.16,1.36.07,1.36.16Z"/>
          <path class="cls-8" d="m110,108.9c0,.09-.61.16-1.36.16s-1.36-.07-1.36-.16.61-.16,1.36-.16,1.36.07,1.36.16Z"/>
          <path class="cls-8" d="m110,106.02c0,.09-.61.16-1.36.16s-1.36-.07-1.36-.16.61-.16,1.36-.16,1.36.07,1.36.16Z"/>
          <path class="cls-8" d="m110,103.14c0,.09-.61.16-1.36.16s-1.36-.07-1.36-.16.61-.16,1.36-.16,1.36.07,1.36.16Z"/>
          <path class="cls-8" d="m110,100.26c0,.09-.61.16-1.36.16s-1.36-.07-1.36-.16.61-.16,1.36-.16,1.36.07,1.36.16Z"/>
          <path class="cls-8" d="m110,97.39c0,.09-.61.16-1.36.16s-1.36-.07-1.36-.16.61-.16,1.36-.16,1.36.07,1.36.16Z"/>
          <path class="cls-8" d="m110,94.51c0,.09-.61.16-1.36.16s-1.36-.07-1.36-.16.61-.16,1.36-.16,1.36.07,1.36.16Z"/>
          <path class="cls-8" d="m110,91.63c0,.09-.61.16-1.36.16s-1.36-.07-1.36-.16.61-.16,1.36-.16,1.36.07,1.36.16Z"/>
          <path class="cls-8" d="m110,88.75c0,.09-.61.16-1.36.16s-1.36-.07-1.36-.16.61-.16,1.36-.16,1.36.07,1.36.16Z"/>
          <path class="cls-8" d="m110,85.87c0,.09-.61.16-1.36.16s-1.36-.07-1.36-.16.61-.16,1.36-.16,1.36.07,1.36.16Z"/>
          <path class="cls-8" d="m110,82.99c0,.09-.61.16-1.36.16s-1.36-.07-1.36-.16.61-.16,1.36-.16,1.36.07,1.36.16Z"/>
          <path class="cls-8" d="m110,80.12c0,.09-.61.16-1.36.16s-1.36-.07-1.36-.16.61-.16,1.36-.16,1.36.07,1.36.16Z"/>
          <path class="cls-8" d="m110,77.24c0,.09-.61.16-1.36.16s-1.36-.07-1.36-.16.61-.16,1.36-.16,1.36.07,1.36.16Z"/>
          <path class="cls-8" d="m110,74.36c0,.09-.61.16-1.36.16s-1.36-.07-1.36-.16.61-.16,1.36-.16,1.36.07,1.36.16Z"/>
          <path class="cls-8" d="m110,71.48c0,.09-.61.16-1.36.16s-1.36-.07-1.36-.16.61-.16,1.36-.16,1.36.07,1.36.16Z"/>
          <path class="cls-8" d="m110,68.6c0,.09-.61.16-1.36.16s-1.36-.07-1.36-.16.61-.16,1.36-.16,1.36.07,1.36.16Z"/>
          <path class="cls-8" d="m110,65.72c0,.09-.61.16-1.36.16s-1.36-.07-1.36-.16.61-.16,1.36-.16,1.36.07,1.36.16Z"/>
          <path class="cls-8" d="m110,62.85c0,.09-.61.16-1.36.16s-1.36-.07-1.36-.16.61-.16,1.36-.16,1.36.07,1.36.16Z"/>
          <path class="cls-8" d="m110,59.97c0,.09-.61.16-1.36.16s-1.36-.07-1.36-.16.61-.16,1.36-.16,1.36.07,1.36.16Z"/>
          <path class="cls-8" d="m106.89,60.38c-.09,0-.16-.6-.16-1.35s.07-1.35.16-1.35.16.6.16,1.35-.07,1.35-.16,1.35Z"/>
          <path class="cls-8" d="m104.14,60.38c-.09,0-.16-.6-.16-1.35s.07-1.35.16-1.35.16.6.16,1.35-.07,1.35-.16,1.35Z"/>
          <path class="cls-8" d="m101.4,60.38c-.09,0-.16-.6-.16-1.35s.07-1.35.16-1.35.16.6.16,1.35-.07,1.35-.16,1.35Z"/>
          <path class="cls-8" d="m98.66,60.38c-.09,0-.16-.6-.16-1.35s.07-1.35.16-1.35.16.6.16,1.35-.07,1.35-.16,1.35Z"/>
          <path class="cls-8" d="m95.92,60.38c-.09,0-.16-.6-.16-1.35s.07-1.35.16-1.35.16.6.16,1.35-.07,1.35-.16,1.35Z"/>
          <path class="cls-8" d="m93.18,60.38c-.09,0-.16-.6-.16-1.35s.07-1.35.16-1.35.16.6.16,1.35-.07,1.35-.16,1.35Z"/>
          <path class="cls-8" d="m90.43,60.38c-.09,0-.16-.6-.16-1.35s.07-1.35.16-1.35.16.6.16,1.35-.07,1.35-.16,1.35Z"/>
          <path class="cls-8" d="m87.69,60.38c-.09,0-.16-.6-.16-1.35s.07-1.35.16-1.35.16.6.16,1.35-.07,1.35-.16,1.35Z"/>
          <path class="cls-8" d="m84.95,60.38c-.09,0-.16-.6-.16-1.35s.07-1.35.16-1.35.16.6.16,1.35-.07,1.35-.16,1.35Z"/>
          <path class="cls-8" d="m82.21,60.38c-.09,0-.16-.6-.16-1.35s.07-1.35.16-1.35.16.6.16,1.35-.07,1.35-.16,1.35Z"/>
          <path class="cls-8" d="m79.46,60.38c-.09,0-.16-.6-.16-1.35s.07-1.35.16-1.35.16.6.16,1.35-.07,1.35-.16,1.35Z"/>
          <path class="cls-8" d="m76.72,60.38c-.09,0-.16-.6-.16-1.35s.07-1.35.16-1.35.16.6.16,1.35-.07,1.35-.16,1.35Z"/>
          <path class="cls-8" d="m73.98,60.38c-.09,0-.16-.6-.16-1.35s.07-1.35.16-1.35.16.6.16,1.35-.07,1.35-.16,1.35Z"/>
          <path class="cls-8" d="m71.24,60.38c-.09,0-.16-.6-.16-1.35s.07-1.35.16-1.35.16.6.16,1.35-.07,1.35-.16,1.35Z"/>
          <path class="cls-8" d="m68.5,60.38c-.09,0-.16-.6-.16-1.35s.07-1.35.16-1.35.16.6.16,1.35-.07,1.35-.16,1.35Z"/>
          <path class="cls-8" d="m65.75,60.38c-.09,0-.16-.6-.16-1.35s.07-1.35.16-1.35.16.6.16,1.35-.07,1.35-.16,1.35Z"/>
          <path class="cls-8" d="m63.01,60.38c-.09,0-.16-.6-.16-1.35s.07-1.35.16-1.35.16.6.16,1.35-.07,1.35-.16,1.35Z"/>
          <path class="cls-8" d="m60.27,60.38c-.09,0-.16-.6-.16-1.35s.07-1.35.16-1.35.16.6.16,1.35-.07,1.35-.16,1.35Z"/>
          <path class="cls-8" d="m57.53,60.38c-.09,0-.16-.6-.16-1.35s.07-1.35.16-1.35.16.6.16,1.35-.07,1.35-.16,1.35Z"/>
          <path class="cls-8" d="m54.78,60.38c-.09,0-.16-.6-.16-1.35s.07-1.35.16-1.35.16.6.16,1.35-.07,1.35-.16,1.35Z"/>
          <path class="cls-8" d="m52.04,60.38c-.09,0-.16-.6-.16-1.35s.07-1.35.16-1.35.16.6.16,1.35-.07,1.35-.16,1.35Z"/>
          <path class="cls-8" d="m49.3,60.38c-.09,0-.16-.6-.16-1.35s.07-1.35.16-1.35.16.6.16,1.35-.07,1.35-.16,1.35Z"/>
          <path class="cls-8" d="m46.56,60.38c-.09,0-.16-.6-.16-1.35s.07-1.35.16-1.35.16.6.16,1.35-.07,1.35-.16,1.35Z"/>
          <path class="cls-8" d="m43.81,60.38c-.09,0-.16-.6-.16-1.35s.07-1.35.16-1.35.16.6.16,1.35-.07,1.35-.16,1.35Z"/>
          <path class="cls-8" d="m41.07,60.38c-.09,0-.16-.6-.16-1.35s.07-1.35.16-1.35.16.6.16,1.35-.07,1.35-.16,1.35Z"/>
          <path class="cls-8" d="m38.33,60.38c-.09,0-.16-.6-.16-1.35s.07-1.35.16-1.35.16.6.16,1.35-.07,1.35-.16,1.35Z"/>
          <path class="cls-8" d="m36.35,61.32c0,.09-.69.16-1.55.16s-1.55-.07-1.55-.16.69-.16,1.55-.16,1.55.07,1.55.16Z"/>
          <path class="cls-8" d="m36.35,65.91c0,.09-.69.16-1.55.16s-1.55-.07-1.55-.16.69-.16,1.55-.16,1.55.07,1.55.16Z"/>
          <path class="cls-8" d="m36.35,68.2c0,.09-.69.16-1.55.16s-1.55-.07-1.55-.16.69-.16,1.55-.16,1.55.07,1.55.16Z"/>
          <path class="cls-8" d="m36.35,70.5c0,.09-.69.16-1.55.16s-1.55-.07-1.55-.16.69-.16,1.55-.16,1.55.07,1.55.16Z"/>
          <path class="cls-8" d="m36.35,72.79c0,.09-.69.16-1.55.16s-1.55-.07-1.55-.16.69-.16,1.55-.16,1.55.07,1.55.16Z"/>
          <path class="cls-8" d="m36.35,75.08c0,.09-.69.16-1.55.16s-1.55-.07-1.55-.16.69-.16,1.55-.16,1.55.07,1.55.16Z"/>
          <path class="cls-8" d="m36.35,77.37c0,.09-.69.16-1.55.16s-1.55-.07-1.55-.16.69-.16,1.55-.16,1.55.07,1.55.16Z"/>
          <path class="cls-8" d="m36.35,79.67c0,.09-.69.16-1.55.16s-1.55-.07-1.55-.16.69-.16,1.55-.16,1.55.07,1.55.16Z"/>
          <path class="cls-8" d="m36.35,81.96c0,.09-.69.16-1.55.16s-1.55-.07-1.55-.16.69-.16,1.55-.16,1.55.07,1.55.16Z"/>
          <path class="cls-8" d="m36.35,84.25c0,.09-.69.16-1.55.16s-1.55-.07-1.55-.16.69-.16,1.55-.16,1.55.07,1.55.16Z"/>
          <path class="cls-8" d="m36.35,86.54c0,.09-.69.16-1.55.16s-1.55-.07-1.55-.16.69-.16,1.55-.16,1.55.07,1.55.16Z"/>
          <path class="cls-8" d="m36.35,88.84c0,.09-.69.16-1.55.16s-1.55-.07-1.55-.16.69-.16,1.55-.16,1.55.07,1.55.16Z"/>
          <path class="cls-8" d="m36.35,91.13c0,.09-.69.16-1.55.16s-1.55-.07-1.55-.16.69-.16,1.55-.16,1.55.07,1.55.16Z"/>
          <path class="cls-8" d="m36.35,93.42c0,.09-.69.16-1.55.16s-1.55-.07-1.55-.16.69-.16,1.55-.16,1.55.07,1.55.16Z"/>
          <path class="cls-8" d="m36.35,95.72c0,.09-.69.16-1.55.16s-1.55-.07-1.55-.16.69-.16,1.55-.16,1.55.07,1.55.16Z"/>
          <path class="cls-8" d="m36.35,98.01c0,.09-.69.16-1.55.16s-1.55-.07-1.55-.16.69-.16,1.55-.16,1.55.07,1.55.16Z"/>
          <path class="cls-8" d="m36.35,100.3c0,.09-.69.16-1.55.16s-1.55-.07-1.55-.16.69-.16,1.55-.16,1.55.07,1.55.16Z"/>
          <path class="cls-8" d="m36.35,102.59c0,.09-.69.16-1.55.16s-1.55-.07-1.55-.16.69-.16,1.55-.16,1.55.07,1.55.16Z"/>
          <path class="cls-8" d="m36.35,104.89c0,.09-.69.16-1.55.16s-1.55-.07-1.55-.16.69-.16,1.55-.16,1.55.07,1.55.16Z"/>
          <path class="cls-8" d="m36.35,107.18c0,.09-.69.16-1.55.16s-1.55-.07-1.55-.16.69-.16,1.55-.16,1.55.07,1.55.16Z"/>
          <path class="cls-8" d="m36.35,109.47c0,.09-.69.16-1.55.16s-1.55-.07-1.55-.16.69-.16,1.55-.16,1.55.07,1.55.16Z"/>
          <path class="cls-8" d="m36.35,111.76c0,.09-.69.16-1.55.16s-1.55-.07-1.55-.16.69-.16,1.55-.16,1.55.07,1.55.16Z"/>
          <path class="cls-8" d="m36.35,114.06c0,.09-.69.16-1.55.16s-1.55-.07-1.55-.16.69-.16,1.55-.16,1.55.07,1.55.16Z"/>
          <path class="cls-8" d="m36.35,116.35c0,.09-.69.16-1.55.16s-1.55-.07-1.55-.16.69-.16,1.55-.16,1.55.07,1.55.16Z"/>
          <path class="cls-8" d="m36.35,118.64c0,.09-.69.16-1.55.16s-1.55-.07-1.55-.16.69-.16,1.55-.16,1.55.07,1.55.16Z"/>
          <path class="cls-8" d="m36.35,120.94c0,.09-.69.16-1.55.16s-1.55-.07-1.55-.16.69-.16,1.55-.16,1.55.07,1.55.16Z"/>
          <path class="cls-8" d="m36.35,123.23c0,.09-.69.16-1.55.16s-1.55-.07-1.55-.16.69-.16,1.55-.16,1.55.07,1.55.16Z"/>
          <path class="cls-8" d="m36.35,125.52c0,.09-.69.16-1.55.16s-1.55-.07-1.55-.16.69-.16,1.55-.16,1.55.07,1.55.16Z"/>
          <path class="cls-8" d="m36.35,127.81c0,.09-.69.16-1.55.16s-1.55-.07-1.55-.16.69-.16,1.55-.16,1.55.07,1.55.16Z"/>
          <path class="cls-8" d="m36.35,130.11c0,.09-.69.16-1.55.16s-1.55-.07-1.55-.16.69-.16,1.55-.16,1.55.07,1.55.16Z"/>
          <path class="cls-8" d="m36.35,132.4c0,.09-.69.16-1.55.16s-1.55-.07-1.55-.16.69-.16,1.55-.16,1.55.07,1.55.16Z"/>
          <path class="cls-8" d="m36.35,134.69c0,.09-.69.16-1.55.16s-1.55-.07-1.55-.16.69-.16,1.55-.16,1.55.07,1.55.16Z"/>
          <path class="cls-8" d="m36.35,136.98c0,.09-.69.16-1.55.16s-1.55-.07-1.55-.16.69-.16,1.55-.16,1.55.07,1.55.16Z"/>
          <path class="cls-8" d="m36.35,139.28c0,.09-.69.16-1.55.16s-1.55-.07-1.55-.16.69-.16,1.55-.16,1.55.07,1.55.16Z"/>
          <path class="cls-8" d="m36.35,141.57c0,.09-.69.16-1.55.16s-1.55-.07-1.55-.16.69-.16,1.55-.16,1.55.07,1.55.16Z"/>
          <path class="cls-8" d="m36.35,143.86c0,.09-.69.16-1.55.16s-1.55-.07-1.55-.16.69-.16,1.55-.16,1.55.07,1.55.16Z"/>
          <path class="cls-8" d="m36.35,146.16c0,.09-.69.16-1.55.16s-1.55-.07-1.55-.16.69-.16,1.55-.16,1.55.07,1.55.16Z"/>
          <path class="cls-8" d="m36.35,148.45c0,.09-.69.16-1.55.16s-1.55-.07-1.55-.16.69-.16,1.55-.16,1.55.07,1.55.16Z"/>
          <path class="cls-8" d="m36.35,150.74c0,.09-.69.16-1.55.16s-1.55-.07-1.55-.16.69-.16,1.55-.16,1.55.07,1.55.16Z"/>
          <path class="cls-8" d="m36.35,153.03c0,.09-.69.16-1.55.16s-1.55-.07-1.55-.16.69-.16,1.55-.16,1.55.07,1.55.16Z"/>
          <path class="cls-8" d="m36.35,155.33c0,.09-.69.16-1.55.16s-1.55-.07-1.55-.16.69-.16,1.55-.16,1.55.07,1.55.16Z"/>
          <path class="cls-8" d="m36.35,157.62c0,.09-.69.16-1.55.16s-1.55-.07-1.55-.16.69-.16,1.55-.16,1.55.07,1.55.16Z"/>
          <path class="cls-8" d="m36.35,159.91c0,.09-.69.16-1.55.16s-1.55-.07-1.55-.16.69-.16,1.55-.16,1.55.07,1.55.16Z"/>
        </g>
      </g>
      <rect class="cls-3" x="36.45" y="60.39" width="70.44" height="101.07"/>
      <path class="cls-5" d="m36.3,71.72c11.95,14.22,26.05,29.16,37.51,43.79l-37.45,10.01-.06-53.8Z"/>
      <path class="cls-4" d="m36.41,123.83l.04,37.62,70.84-.55-.27-52.34c-23.6,4.79-47.14,9.88-70.61,15.27"/>
    </g>
    <g>
      <g>
        <rect class="cls-8" x="160.23" y="25.77" width="70.82" height="73.83"/>
        <g>
          <rect class="cls-6" x="155.43" y="25.77" width="70.82" height="73.83"/>
          <path class="cls-5" d="m226.28,99.62h-70.87V25.75h70.87v73.87Z"/>
        </g>
        <rect class="cls-3" x="164.95" y="35.69" width="51.78" height="53.98"/>
        <path class="cls-8" d="m164.95,90.03s-.45.61-1.28,1.49c-.83.87-1.99,2.05-3.29,3.34-1.3,1.28-2.5,2.43-3.38,3.24-.88.81-1.45,1.29-1.5,1.25s.44-.61,1.27-1.48c.83-.87,1.99-2.06,3.3-3.34,1.31-1.29,2.51-2.43,3.39-3.24.88-.81,1.45-1.29,1.49-1.24Z"/>
        <path class="cls-8" d="m216.73,89.9s.61.45,1.49,1.28c.87.83,2.05,1.99,3.34,3.29,1.28,1.3,2.43,2.5,3.24,3.38.81.88,1.29,1.45,1.25,1.5-.04.04-.61-.44-1.48-1.27-.87-.83-2.06-1.99-3.34-3.3-1.29-1.31-2.43-2.51-3.24-3.39-.81-.88-1.29-1.45-1.24-1.49Z"/>
        <path class="cls-8" d="m216.59,35.84s.45-.61,1.28-1.49c.83-.87,1.99-2.05,3.29-3.34,1.3-1.28,2.5-2.43,3.38-3.24.88-.81,1.45-1.29,1.5-1.25.04.04-.44.61-1.27,1.48-.83.87-1.99,2.06-3.3,3.34-1.31,1.29-2.51,2.43-3.39,3.24-.88.81-1.45,1.29-1.49,1.24Z"/>
        <path class="cls-8" d="m164.81,35.97s-.61-.45-1.49-1.28c-.87-.83-2.05-1.99-3.34-3.29-1.28-1.3-2.43-2.5-3.24-3.38-.81-.88-1.29-1.45-1.25-1.5.04-.04.61.44,1.48,1.27.87.83,2.06,1.99,3.34,3.3,1.29,1.31,2.43,2.51,3.24,3.39.81.88,1.29,1.45,1.24,1.49Z"/>
        <path class="cls-8" d="m216.59,89.67s0-.09-.01-.26c0-.18,0-.43-.01-.75,0-.68-.01-1.65-.02-2.91-.01-2.56-.03-6.28-.05-11-.02-9.45-.06-22.92-.1-39.05l.2.2c-15.07,0-32.78.02-51.64.03h0l.23-.23c-.01,19.81-.02,38.35-.03,53.98l-.2-.2c15.47.04,28.36.08,37.39.1,4.51.02,8.06.04,10.5.05,1.21,0,2.13.02,2.78.02.31,0,.54,0,.72.01.16,0,.25,0,.25.01,0,0-.07,0-.23.01-.17,0-.4,0-.7.01-.64,0-1.55.01-2.74.02-2.43.01-5.96.03-10.46.05-9.06.02-21.99.06-37.52.1h-.2s0-.2,0-.2c0-15.63-.02-34.17-.03-53.98v-.23s.23,0,.23,0h0c18.86.01,36.56.02,51.64.03h.2s0,.2,0,.2c-.04,16.18-.08,29.69-.1,39.18-.02,4.7-.04,8.41-.05,10.96-.01,1.25-.02,2.21-.02,2.88,0,.31,0,.55-.01.73,0,.16,0,.24-.01.24Z"/>
      </g>
      <g>
        <path class="cls-5" d="m181.29,77.31c-3.91-3.91-4.14-10.9-.51-15.07,1.44-1.65,3.35-2.86,4.69-4.6,2.89-3.76,2.85-9.69,6.86-12.22,2.93-1.84,7.14-.79,9.28,1.93,2.14,2.72,2.32,6.67.93,9.84-1.03,2.34-2.81,4.33-3.54,6.78-.75,2.5-.32,5.25-1.1,7.74-.94,3.01-4.13,4.92-7.08,6.01-2.96,1.1-6.76.84-9.53-.42"/>
        <path class="cls-8" d="m195.86,52.44s-.15.52-.5,1.43c-.35.91-.89,2.21-1.61,3.79-1.43,3.17-3.6,7.47-6.4,11.99-2.8,4.52-5.68,8.38-7.89,11.07-1.1,1.35-2.02,2.41-2.68,3.13-.66.72-1.03,1.1-1.05,1.08-.02-.02.3-.45.92-1.2.62-.75,1.5-1.85,2.56-3.21,2.14-2.73,4.96-6.61,7.75-11.11,2.78-4.5,5-8.76,6.5-11.88.75-1.56,1.34-2.84,1.74-3.73.4-.88.64-1.37.67-1.36Z"/>
        <path class="cls-8" d="m185.15,61.8c.06,0,.21,1.03.42,2.73.2,1.7.46,4.08.72,6.76l-.35-.18c.36-.21.73-.43,1.12-.65,2.59-1.51,4.94-2.85,6.66-3.81,1.72-.95,2.8-1.51,2.83-1.46.03.06-.99.72-2.66,1.74-1.67,1.03-4,2.42-6.59,3.93-.38.22-.76.44-1.12.65l-.31.18-.03-.36c-.25-2.68-.45-5.06-.57-6.78s-.17-2.75-.11-2.76Z"/>
        <path class="cls-8" d="m198.75,57.8c.03.06-.64.43-1.74.98-1.1.55-2.64,1.28-4.35,2.06-.18.08-.36.17-.53.24l-.28.13-.05-.3c-.27-1.72-.49-3.26-.62-4.38-.14-1.11-.19-1.79-.13-1.8.06,0,.22.66.44,1.75.22,1.1.49,2.63.77,4.35l-.33-.17c.17-.08.35-.16.53-.24,1.71-.78,3.27-1.46,4.41-1.94,1.14-.47,1.86-.74,1.88-.68Z"/>
      </g>
    </g>
    <g>
      <g>
        <g>
          <rect class="cls-12" x="305.47" y="424.43" width="10.33" height="48.77"/>
          <rect class="cls-12" x="393.27" y="424.43" width="10.33" height="48.77"/>
          <rect class="cls-12" x="288.37" y="363.12" width="130.36" height="12.06"/>
          <polygon class="cls-12" points="413.54 425.04 296.31 425.3 296.31 375.18 413.54 375.18 413.54 425.04"/>
          <path class="cls-8" d="m418.73,375.18c0,.13-29.18.23-65.18.23s-65.18-.11-65.18-.23,29.18-.23,65.18-.23,65.18.1,65.18.23Z"/>
          <path class="cls-8" d="m413.11,425.3c0,.13-26.05.23-58.18.23s-58.19-.1-58.19-.23,26.05-.23,58.19-.23,58.18.1,58.18.23Z"/>
          <path class="cls-8" d="m403.87,415.14s-.01-.2-.02-.58c0-.39,0-.94-.02-1.66,0-1.47-.02-3.63-.04-6.41-.02-5.58-.05-13.69-.08-23.87l.15.15c-23.51.02-58.68.05-97.89.08h0l.23-.23c0,11.3,0,22.26,0,32.52l-.23-.23c28.16.04,52.6.08,70.02.11,8.71.03,15.67.05,20.46.06,2.39.01,4.23.02,5.5.03.62,0,1.09.01,1.43.01.32,0,.49.01.49.01,0,0-.15,0-.47.01-.33,0-.79,0-1.4.01-1.25,0-3.08.02-5.45.03-4.78.02-11.72.04-20.41.06-17.46.03-41.95.06-70.17.11h-.23s0-.23,0-.23c0-10.26,0-21.22,0-32.52v-.23h.24c39.21.03,74.38.06,97.89.08h.15s0,.15,0,.15c-.04,10.21-.06,18.36-.08,23.96-.02,2.77-.03,4.91-.04,6.38,0,.71-.01,1.26-.02,1.64,0,.37-.02.54-.02.54Z"/>
          <path class="cls-8" d="m309.85,410.88c.09.09-.67,1.06-1.7,2.17-1.03,1.11-1.95,1.94-2.04,1.85-.09-.09.67-1.06,1.7-2.17,1.03-1.11,1.95-1.94,2.04-1.85Z"/>
          <path class="cls-8" d="m309.85,386.89c-.1.09-1.04-.8-2.11-1.97-1.07-1.18-1.86-2.2-1.77-2.29.1-.09,1.04.8,2.11,1.97,1.07,1.18,1.86,2.2,1.77,2.29Z"/>
          <path class="cls-8" d="m404.05,382.72c.1.1-.84,1.14-2.13,2.26-1.3,1.11-2.35,1.99-2.44,1.91-.1-.1.84-1.14,2.13-2.26,1.29-1.11,2.35-1.99,2.44-1.9Z"/>
          <path class="cls-8" d="m403.87,415.14c-.09.09-1.15-.79-2.36-1.96-1.21-1.18-2.13-2.21-2.04-2.3.09-.09,1.15.79,2.36,1.96,1.21,1.18,2.13,2.21,2.04,2.3Z"/>
          <path class="cls-8" d="m399.47,410.88s0-.15-.01-.42c0-.29,0-.69-.01-1.22,0-1.08-.02-2.66-.03-4.71-.02-4.11-.05-10.09-.08-17.64l.14.14c-20.45.02-53.01.05-89.62.09h0l.23-.23c0,8.25,0,16.29,0,23.99l-.23-.23c25.58.04,47.96.08,63.95.1,8,.03,14.4.05,18.82.07,2.2.01,3.9.02,5.07.03.57,0,1.01.01,1.32.01.3,0,.46.01.46.01,0,0-.14,0-.43.01-.31,0-.73,0-1.29.01-1.16,0-2.85.02-5.02.03-4.41.02-10.79.04-18.77.07-16.03.03-38.46.06-64.11.1h-.23s0-.23,0-.23c0-7.7,0-15.74,0-23.99v-.23h.24c36.61.04,69.17.07,89.62.09h.14s0,.14,0,.14c-.03,7.59-.06,13.6-.08,17.73-.02,2.03-.03,3.6-.03,4.67,0,.52-.01.91-.01,1.19,0,.27-.01.39-.01.39Z"/>
          <g>
            <path class="cls-8" d="m363.54,396.65c-.74-.49-1.56-.82-2.41-1.09-.77-.25-1.57-.37-2.38-.37h-6.6c-1.94,0-3.85.69-5.25,2.03-.35.33-.63.66-.79.95-.57,1.02-.59,2.43.26,3.23.85.79,2.58.41,2.72-.75-.04,1.52,1.52,2.8,3.04,2.7,1.52-.1,2.82-1.35,3.24-2.81-.02,1.29,1.09,2.5,2.38,2.6,1.29.1,2.57-.93,2.75-2.21.81,1.06,2.02,2.05,3.41,1.6.79-.26,1.38-.95,1.58-1.76.41-1.67-.61-3.21-1.95-4.11Z"/>
            <path class="cls-12" d="m353.34,395.15c.07.13-1.52.81-2.71,2.48-1.22,1.64-1.39,3.37-1.53,3.34-.06,0-.1-.44.04-1.13.13-.69.48-1.62,1.11-2.49.64-.87,1.41-1.49,2.03-1.82.61-.34,1.04-.43,1.06-.38Z"/>
            <path class="cls-12" d="m355.86,395.43c.13.02.11,1.19-.04,2.62-.15,1.43-.38,2.58-.51,2.57-.13,0-.11-1.18.04-2.62.15-1.44.38-2.59.51-2.57Z"/>
            <path class="cls-12" d="m359.04,395.35s.37.09.77.52c.39.43.78,1.16.93,2.03.15.87.08,1.65.01,2.2-.08.55-.17.89-.23.88-.07,0-.09-.35-.1-.9-.01-.55,0-1.3-.14-2.1-.14-.8-.43-1.47-.73-1.91-.29-.44-.55-.67-.5-.73Z"/>
          </g>
        </g>
        <rect class="cls-12" x="314.66" y="440.85" width="80.33" height="9.41"/>
      </g>
      <g>
        <g>
          <path class="cls-8" d="m374.79,350.91v12.12h-52.1c-3.35,0-6.06-2.71-6.06-6.06h0c0-3.35,2.71-6.06,6.06-6.06"/>
          <path class="cls-12" d="m357.17,353.45h17.62v7.04h-17.62c-1.68,0-3.05-1.37-3.05-3.05v-.93c0-1.68,1.37-3.05,3.05-3.05Z"/>
        </g>
        <g>
          <path class="cls-12" d="m374.79,338.8v12.12h-52.1c-3.35,0-6.06-2.71-6.06-6.06h0c0-3.35,2.71-6.06,6.06-6.06h52.1Z"/>
          <path class="cls-5" d="m357.17,341.34h17.62v7.04h-17.62c-1.68,0-3.05-1.37-3.05-3.05v-.93c0-1.68,1.37-3.05,3.05-3.05Z"/>
        </g>
        <g>
          <polygon class="cls-8" points="337.17 319.36 328.89 338.8 334.22 338.8 337.89 328.42 337.17 319.36"/>
          <g>
            <g>
              <polygon class="cls-5" points="362.57 301.78 365.77 338.8 338.73 338.8 335.76 301.78 362.57 301.78"/>
              <polygon class="cls-4" points="359.93 304.71 362.73 335.72 342.43 335.99 339.69 304.53 359.93 304.71"/>
            </g>
            <polygon class="cls-8" points="355.62 309.01 357.22 330.34 346.39 330.34 344.48 309.01 355.62 309.01"/>
          </g>
        </g>
      </g>
    </g>
  </g>
  <g id="Floor">
    <path class="cls-14" d="m460.97,473.74c0,.14-94.01.26-209.96.26s-209.98-.12-209.98-.26,93.99-.26,209.98-.26,209.96.12,209.96.26Z"/>
  </g>
  <g id="Plant">
    <g>
      <path class="cls-6" d="m458.84,246.96c-11.82,6.12-20.88,16.66-27.39,28.26-6.52,11.6-10.71,24.34-14.87,36.98l-3.64,65.19c13.75-23.39,24.79-50.89,27.77-77.86-3.05-.27-6.1-.54-9.15-.81,6.13-.94,11.28-5.38,14.56-10.65,3.28-5.27,4.96-11.35,6.61-17.33-3.72.55-7.44,1.11-11.16,1.66,8.74-5.83,15.08-15.16,17.28-25.44Z"/>
      <g class="cls-10">
        <path d="m458.84,246.96c-11.82,6.12-20.88,16.66-27.39,28.26-6.52,11.6-10.71,24.34-14.87,36.98l-3.64,65.19c13.75-23.39,24.79-50.89,27.77-77.86-3.05-.27-6.1-.54-9.15-.81,6.13-.94,11.28-5.38,14.56-10.65,3.28-5.27,4.96-11.35,6.61-17.33-3.72.55-7.44,1.11-11.16,1.66,8.74-5.83,15.08-15.16,17.28-25.44Z"/>
      </g>
      <path class="cls-6" d="m410.9,392.67s-29.84-35.72-29.5-69.82h12.06s-13.09-8.61-12.06-13.43,1.38-23.08,1.38-23.08l11.02,2.76s-8.27-4.13-9.3-10.68c-1.03-6.54,2.41-36.86,2.41-36.86,0,0,13.43,14.12,17.57,28.59,4.13,14.47,14.98,31.34,11.8,75.43-3.19,44.09-5.38,47.09-5.38,47.09Z"/>
      <path class="cls-6" d="m426.03,396.04s32.33-21.54,39.52-49.03l-9.69-2.64s12.41-4.06,12.63-8.16c.22-4.1,3.94-18.86,3.94-18.86l-9.46-.2s7.55-1.51,9.81-6.55c2.26-5.04,6.12-30.16,6.12-30.16,0,0-13.89,8.41-20.38,19.14-6.49,10.73-18.9,21.92-25.99,58.07-7.08,36.14-6.5,38.38-6.5,38.38Z"/>
      <path class="cls-14" d="m395.07,272.7s.04.12.11.37c.06.27.15.64.26,1.1.22,1,.54,2.42.94,4.24.41,1.84.89,4.1,1.41,6.73.53,2.63,1.15,5.61,1.75,8.93,1.28,6.62,2.62,14.54,4.01,23.35,1.34,8.82,2.69,18.53,3.88,28.75,1.17,10.23,2.08,19.99,2.78,28.89.66,8.89,1.15,16.91,1.42,23.65.17,3.37.25,6.42.33,9.1.09,2.68.14,4.98.16,6.87.02,1.86.04,3.32.05,4.34,0,.48,0,.85,0,1.13,0,.25,0,.38-.02.39,0,0-.02-.13-.04-.38-.01-.28-.03-.65-.05-1.13-.03-1.02-.08-2.48-.15-4.34-.05-1.88-.13-4.19-.25-6.86-.11-2.68-.22-5.72-.41-9.09-.32-6.73-.85-14.74-1.53-23.63-.73-8.88-1.65-18.64-2.82-28.86-1.19-10.22-2.52-19.92-3.84-28.74-1.36-8.81-2.67-16.73-3.9-23.36-.58-3.32-1.17-6.31-1.68-8.94-.49-2.63-.94-4.89-1.33-6.74-.36-1.83-.65-3.26-.85-4.26-.09-.47-.16-.84-.21-1.11-.04-.25-.06-.38-.05-.38Z"/>
      <path class="cls-6" d="m406.76,414.54s-27.31-30.99-35.79-49.72l6.4-2.74c-4.64.77-9.39-1.23-12.99-4.26-3.6-3.03-6.24-7.01-8.83-10.94l8.43-1.42c-7.67-2.15-14.43-7.39-18.43-14.27,9.95,1.64,18.95,7.1,26.37,13.93,6.01,5.53,11.1,11.96,15.98,18.52,2.38,3.2,4.47,6.61,6.21,10.2,4.59,9.49,12.66,29.31,12.64,40.69Z"/>
      <path class="cls-14" d="m465.98,298.49s-.04.11-.13.31c-.11.23-.25.52-.42.9-.4.82-.95,1.97-1.67,3.44-1.47,2.97-3.54,7.3-6.05,12.67-2.52,5.37-5.42,11.8-8.53,18.99-3.09,7.2-6.38,15.17-9.65,23.6-3.25,8.44-6.18,16.55-8.74,23.96-2.53,7.42-4.72,14.13-6.47,19.8-1.75,5.66-3.13,10.26-4.04,13.45-.46,1.57-.82,2.79-1.08,3.66-.12.4-.22.71-.29.95-.07.21-.11.32-.12.32,0,0,.01-.11.07-.33.06-.24.14-.56.24-.96.23-.88.56-2.11.99-3.69.86-3.2,2.18-7.82,3.89-13.5,1.7-5.68,3.85-12.41,6.36-19.84,2.54-7.42,5.45-15.54,8.71-23.99,3.27-8.44,6.58-16.4,9.69-23.6,3.14-7.19,6.08-13.61,8.64-18.96,2.56-5.35,4.68-9.66,6.21-12.6.75-1.45,1.34-2.59,1.75-3.39.19-.37.35-.65.47-.88.11-.2.17-.29.18-.29Z"/>
      <path class="cls-14" d="m409.08,427.82s-.06-.19-.13-.57c-.07-.43-.16-.98-.26-1.65-.1-.72-.24-1.59-.42-2.6-.18-1.01-.36-2.17-.63-3.43-.49-2.54-1.19-5.53-2.08-8.83-.92-3.29-2.05-6.87-3.44-10.56-1.4-3.68-2.92-7.12-4.4-10.2-1.51-3.06-2.96-5.78-4.27-8-.63-1.13-1.26-2.11-1.79-2.99-.53-.88-1-1.63-1.4-2.23-.36-.57-.66-1.04-.89-1.41-.2-.33-.3-.5-.28-.51.01-.01.14.15.37.45.26.36.58.81.97,1.36.42.59.93,1.32,1.48,2.19.55.87,1.21,1.84,1.86,2.96,1.35,2.21,2.85,4.91,4.39,7.98,1.51,3.08,3.05,6.52,4.46,10.22,1.39,3.71,2.51,7.31,3.41,10.62.87,3.32,1.54,6.33,1.98,8.89.25,1.27.4,2.43.56,3.45.16,1.02.26,1.9.34,2.62.07.67.12,1.22.17,1.66.03.38.04.58.02.58Z"/>
      <rect class="cls-1" x="385.34" y="420.53" width="59.77" height="12.19"/>
      <polygon class="cls-1" points="391.04 432.73 397.5 473.74 433.62 473.74 439.65 432.73 391.04 432.73"/>
      <path class="cls-14" d="m441.45,432.73c0,.14-11.31.26-25.25.26s-25.25-.12-25.25-.26,11.3-.26,25.25-.26,25.25.12,25.25.26Z"/>
    </g>
  </g>
  <g id="Character">
    <g>
      <g>
        <g>
          <g>
            <path class="cls-14" d="m154.96,121.92c.97-4.88,4.42-7.48,9.02-9.39,4.59-1.91,10.12-1.39,14.27,1.36,2.77,1.84,5.04,4.62,8.25,5.5,5.28,1.45,11.08-2.81,16.19-.82,3.02,1.18,4.96,4.64,4.39,7.83-.57,3.19-3.6,5.77-6.84,5.82,3.45,1.01,4.82,5.75,3.05,8.88-1.77,3.13-5.74,4.53-9.31,4.11-3.57-.42-6.79-2.36-9.61-4.58-2.83-2.22-5.4-4.78-8.39-6.77-3-1.99-6.56-3.41-10.13-2.98-4.83.58-8.75,4.52-10.63,9.01-1.87,4.49-2.04,9.5-1.99,14.36.05,4.87.29,9.8-.84,14.54-.13.56-.35,1.18-.88,1.39-.77.29-1.5-.5-1.94-1.2-4.96-7.9-8.34-16.77-9.9-25.97-.9-5.34-1.1-10.44,1.56-15.16,2.66-4.72,9.9-8.54,13.75-5.93"/>
            <g>
              <g>
                <path class="cls-11" d="m147.07,145.05l1.02,49.7c.19,9.28,4.85,18.88,19.51,17.91h0c12.66-1.8,12.99-10.68,12.92-21.68,0,0-.02.42,0,0,0,0,13.87-1.59,14.59-15.36.35-6.66-.05-20.42-.56-32.87-.54-13.37-11.28-24.08-24.65-24.61l-1.33-.05c-14.37.26-22.17,12.62-21.51,26.97Z"/>
                <path class="cls-9" d="m180.53,190.98s-8.71.16-17.73-6.02c0,0,3.91,10.86,17.71,10.17l.02-4.15Z"/>
              </g>
              <g>
                <g>
                  <g>
                    <path class="cls-14" d="m189.68,156.59c0,1.04-.89,1.89-1.98,1.91-1.08.01-1.96-.81-1.96-1.86,0-1.04.89-1.9,1.97-1.91,1.09-.02,1.96.82,1.96,1.86Z"/>
                    <path class="cls-14" d="m191.33,149.39c-.25.25-1.7-.92-3.82-.99-2.11-.11-3.71.92-3.93.65-.11-.12.16-.57.85-1.04.69-.46,1.84-.9,3.16-.84,1.32.06,2.41.59,3.03,1.11.63.53.83,1,.71,1.11Z"/>
                  </g>
                  <g>
                    <path class="cls-14" d="m170.06,155.73c0,1.04-.89,1.89-1.98,1.91-1.08.02-1.96-.81-1.96-1.86,0-1.04.89-1.9,1.98-1.91,1.09-.02,1.96.82,1.96,1.86Z"/>
                    <path class="cls-14" d="m170.5,148.95c-.25.25-1.7-.92-3.82-.99-2.11-.11-3.71.92-3.93.65-.11-.12.16-.57.86-1.04.69-.46,1.84-.9,3.16-.84,1.32.06,2.41.59,3.03,1.11.63.53.83,1,.71,1.11Z"/>
                  </g>
                  <path class="cls-14" d="m177.56,164.96c0-.12,1.32-.3,3.46-.48.54-.03,1.06-.12,1.16-.49.14-.39-.06-.98-.3-1.62-.46-1.33-.93-2.72-1.43-4.18-1.99-5.95-3.4-10.83-3.16-10.91.24-.08,2.05,4.68,4.03,10.63.48,1.47.93,2.87,1.37,4.2.18.62.5,1.33.2,2.13-.16.4-.57.68-.92.75-.35.09-.66.09-.92.09-2.15.03-3.48-.01-3.49-.13Z"/>
                </g>
                <path class="cls-14" d="m171.38,140.68c-.23.57-2.34.21-4.83.41-2.5.15-4.53.8-4.84.27-.14-.25.23-.78,1.07-1.31.82-.52,2.13-1,3.63-1.11,1.5-.1,2.85.19,3.74.59.9.4,1.34.87,1.24,1.14Z"/>
                <path class="cls-14" d="m190.8,143.23c-.39.47-1.83-.09-3.58-.18-1.75-.16-3.25.19-3.57-.32-.14-.25.11-.72.78-1.15.66-.43,1.74-.76,2.95-.67,1.2.09,2.23.56,2.82,1.08.6.52.78,1.02.61,1.25Z"/>
              </g>
            </g>
            <g>
              <path class="cls-11" d="m147.79,155.3c-.23-.11-9.36-3.18-9.43,6.25-.08,9.43,9.41,7.56,9.43,7.29.02-.27,0-13.55,0-13.55Z"/>
              <path class="cls-9" d="m144.93,165.25s-.17.11-.44.24c-.27.12-.74.2-1.23.02-.99-.37-1.82-1.96-1.85-3.66-.02-.86.17-1.67.48-2.35.29-.69.74-1.17,1.25-1.25.5-.11.85.19.97.46.12.26.06.45.11.47.03.02.2-.16.13-.55-.04-.19-.15-.41-.37-.59-.22-.19-.56-.28-.91-.25-.73.04-1.39.71-1.73,1.45-.38.74-.61,1.66-.59,2.62.05,1.9,1,3.69,2.36,4.09.66.18,1.22-.02,1.5-.24.29-.23.35-.44.31-.46Z"/>
            </g>
            <path class="cls-14" d="m195.24,129.92c-1.12-2.76-3.22-5.01-5.52-6.9-4.96-4.07-11.14-6.72-17.55-7.08-6.4-.35-12.99,1.68-17.8,5.93-3.85,3.39-6.46,8.07-7.78,13.03-1.32,4.96-1.4,10.19-.7,15.28.31,2.23.82,4.56,2.31,6.24.93,1.06,2.57,1.79,3.72.98.68-.48.95-1.33,1.18-2.13,2.1-7.2,4.2-14.94,1.82-22.05,1.89-2.28,4.08-4.38,6.73-5.7,2.65-1.33,5.81-1.81,8.61-.83,4.15,1.46,6.57,5.65,9.81,8.63,4.63,4.25,11.39,6.06,17.52,4.69l-2.35-10.08Z"/>
          </g>
          <g>
            <path class="cls-9" d="m178.6,170.86c-.27.85-.55,1.71-1.05,2.45-.5.74-1.27,1.35-2.16,1.45-.95.11-1.9-.39-2.48-1.15-.58-.75-.83-1.73-.85-2.68-.02-.86.31-1.91,1.15-2.07.35-.07.71.05,1.05.16,1.53.51,3.07,1.01,4.6,1.52"/>
            <path class="cls-14" d="m177.05,174.67c-.03-.14-.99.33-2.41-.14-.69-.23-1.46-.71-1.92-1.52-.46-.8-.61-1.92-.25-2.93.08-.25.22-.49.35-.7.17-.2.13-.19.33-.17.19.04.49.16.74.23.26.09.51.17.76.25.99.32,1.88.61,2.63.83,1.5.45,2.45.68,2.49.57.04-.1-.85-.52-2.3-1.11-.73-.29-1.6-.63-2.57-.99-.24-.09-.49-.18-.75-.28-.27-.09-.48-.19-.84-.28-.18-.04-.43-.05-.66.06-.23.11-.37.28-.47.42-.18.28-.34.57-.45.88-.45,1.26-.23,2.61.37,3.58.62.99,1.59,1.51,2.4,1.69.82.19,1.51.09,1.95-.05.44-.15.64-.31.62-.36Z"/>
          </g>
        </g>
        <path class="cls-6" d="m205.52,120.9s.05.21.1.64c0,.42.02,1.05-.2,1.83-.37,1.54-1.62,3.76-4.16,5.21-2.53,1.49-6.24,1.71-9.87.61-3.69-1.05-7.19-3.38-10.89-5.55-3.68-2.17-7.58-3.83-11.28-3.68-3.7.1-6.79,1.79-8.92,3.56-2.16,1.79-3.5,3.69-4.31,5.03-.8,1.36-1.12,2.18-1.18,2.15-.02,0,.05-.22.2-.61.14-.4.41-.95.77-1.66.76-1.39,2.06-3.36,4.24-5.24,2.14-1.86,5.31-3.65,9.18-3.79,3.88-.19,7.9,1.53,11.61,3.71,3.73,2.19,7.18,4.5,10.74,5.54,3.52,1.09,7.07.91,9.5-.45,2.46-1.34,3.71-3.43,4.14-4.9.45-1.51.25-2.41.33-2.41Z"/>
        <path class="cls-6" d="m140.74,140.53c-.06-.02.08-1.02.72-2.51.62-1.49,1.8-3.45,3.6-5.18.89-.87,1.84-1.58,2.76-2.14.92-.57,1.87-.94,2.73-.97.85-.04,1.52.22,1.9.49.39.27.51.51.48.53-.04.09-.8-.76-2.35-.59-1.51.17-3.36,1.5-5.1,3.12-1.73,1.67-2.92,3.52-3.63,4.92-.73,1.4-1.02,2.35-1.11,2.32Z"/>
        <path class="cls-6" d="m142.07,148.89c-.06-.02.16-1.01.89-2.48.72-1.46,2.01-3.36,3.86-5.04,1.86-1.68,3.88-2.76,5.41-3.33,1.53-.57,2.54-.69,2.55-.63.03.1-.94.37-2.39,1.03-1.45.65-3.37,1.76-5.17,3.38-1.8,1.63-3.09,3.42-3.89,4.8-.8,1.38-1.17,2.3-1.27,2.27Z"/>
      </g>
      <polygon class="cls-11" points="211.44 285.1 261.6 305.31 253.61 319.64 196.72 310.91 211.44 285.1"/>
      <g>
        <path class="cls-1" d="m211.54,226.71c.26,14.12-.2,48.11-.2,48.11l8.04,12.64-14.07,18.96-16.26,2.29-1.62,12.61s-28.48,12.75-51.27,5.02c-17.73-6.01-38.46,14.21-38.46,14.21,0,0-1.89-3.3,1.18-31.83,2.93-27.19,8.06-72.05,8.06-72.05l16.39-40.99,24.62-4.27c10.31,17.53,30.92,17.63,32.58,6.97l16.37,6.81c4.77,1.98,8.86,5.39,11.46,9.85,1.75,3.02,3.1,6.88,3.19,11.67Z"/>
        <path class="cls-14" d="m197.35,231.01c.14.02-1.59,16.21-3.86,36.16-2.28,19.96-4.24,36.12-4.38,36.11-.14-.02,1.59-16.2,3.86-36.16,2.28-19.95,4.24-36.12,4.38-36.1Z"/>
        <path class="cls-14" d="m189.23,267.55c.08.12-7.96,5.43-17.96,11.86-10,6.43-18.17,11.54-18.24,11.42-.08-.12,7.96-5.43,17.96-11.86,10-6.43,18.16-11.54,18.24-11.42Z"/>
      </g>
      <polygon class="cls-14" points="160.46 473.74 151 473.74 145.6 410.17 160.46 410.17 160.46 473.74"/>
      <polygon class="cls-14" points="86.81 473.74 77.36 473.74 71.96 410.17 86.81 410.17 86.81 473.74"/>
      <polygon class="cls-14" points="264.94 473.74 255.49 473.74 250.09 410.17 264.94 410.17 264.94 473.74"/>
      <g>
        <path class="cls-6" d="m112.73,353.52l9.01-137.82H36.75c-6.47,0-11.35,5.87-10.17,12.23l34.19,184.61c10.88-.15,209.15,0,209.15,0v-59.02H112.73Z"/>
        <path class="cls-14" d="m238.81,392.23c0,.14-18.84.26-42.07.26s-42.07-.12-42.07-.26,18.83-.26,42.07-.26,42.07.12,42.07.26Z"/>
      </g>
      <g>
        <g>
          <path class="cls-1" d="m314.07,424.3l6.12,29.18s31.71,3.58,33.37,8.86l-56.15,13.89-11.4-45.07,28.06-6.86Z"/>
          <path class="cls-8" d="m302.22,455.34c-1.01.57-1.46,1.97-.94,3.01.52,1.04,1.95,1.5,2.97.96,1.02-.55,1.61-2.22.98-3.19-.64-.97-2.34-1.43-3.2-.65"/>
          <path class="cls-8" d="m297.66,477.43l-1.11-4.37,54.08-13.02s2.77.47,2.92,2.3l-55.9,15.09Z"/>
          <path class="cls-14" d="m321.02,452.97c.06.28-1.28.74-2.41,1.96-1.16,1.19-1.56,2.55-1.84,2.5-.27,0-.26-1.73,1.13-3.18,1.38-1.46,3.12-1.54,3.12-1.28Z"/>
          <path class="cls-14" d="m327.52,453.94c.13.25-.94,1.01-1.59,2.4-.68,1.37-.61,2.68-.89,2.74-.25.11-.83-1.45,0-3.16.82-1.72,2.4-2.23,2.47-1.97Z"/>
          <path class="cls-14" d="m332.6,460.17c-.23.12-.96-1.16-.62-2.83.32-1.68,1.47-2.59,1.64-2.39.21.19-.42,1.2-.67,2.58-.28,1.37-.08,2.55-.34,2.64Z"/>
          <path class="cls-14" d="m318.89,446.47c-.05.28-1.4.21-2.93.7-1.53.46-2.61,1.28-2.81,1.08-.21-.16.72-1.47,2.52-2.02,1.8-.56,3.3,0,3.22.24Z"/>
        </g>
        <g class="cls-10">
          <path d="m314.07,424.3l6.12,29.18s31.71,3.58,33.37,8.86l-55.9,15.09-11.65-46.26,28.06-6.86Z"/>
        </g>
      </g>
      <path class="cls-14" d="m284.23,336.32l35.54,103.19-30.7,11.35-56.57-113.12-93.97-14.7,56.4-15.17,80.45,20.32c4.13,1.04,7.45,4.1,8.84,8.12Z"/>
      <g>
        <path class="cls-1" d="m313.09,412.84l20.3,22.29s29.48-13.15,33.63-9.39l-41.81,40.91-33.05-33.44,20.94-20.38Z"/>
        <path class="cls-8" d="m318.68,445.97c-.59,1.01-.26,2.47.73,3.1.99.63,2.47.31,3.08-.69.61-1,.27-2.76-.79-3.28-1.05-.52-2.77-.04-3.13,1.08"/>
        <path class="cls-8" d="m326.03,467.56l-3.21-3.24,40.46-39.09s2.65-1.01,3.73.51l-40.98,41.82Z"/>
        <path class="cls-14" d="m333.85,434.25c.19.21-.74,1.3-1.1,2.94-.41,1.63-.06,3.02-.32,3.12-.23.14-1.12-1.37-.64-3.35.46-1.98,1.93-2.95,2.07-2.71Z"/>
        <path class="cls-14" d="m340.02,431.78c.24.15-.3,1.36-.15,2.91.11,1.55.84,2.65.63,2.84-.16.22-1.47-.84-1.62-2.76-.17-1.92.95-3.18,1.14-2.99Z"/>
        <path class="cls-14" d="m347.64,434.59c-.14.23-1.43-.52-1.99-2.15-.58-1.63-.05-3.01.2-2.93.28.06.25,1.26.73,2.59.46,1.34,1.24,2.26,1.06,2.48Z"/>
        <path class="cls-14" d="m328.66,429.69c.1.27-1.12.9-2.19,2.11-1.1,1.19-1.62,2.45-1.9,2.38-.26-.03-.13-1.65,1.16-3.05,1.28-1.41,2.87-1.7,2.93-1.44Z"/>
      </g>
      <g>
        <path class="cls-14" d="m128.43,366.52l81.94-.35,90.94,84.68,28.27-26.33s-77.22-87.14-86.14-96.13c-8.93-8.99-94.88-14.98-94.88-14.98l-51.67,22.45,1.17,5.86c2.89,14.46,15.62,24.86,30.37,24.79Z"/>
        <path class="cls-6" d="m208.46,355.41c.14-.02.54,2.22.88,5,.34,2.78.51,5.04.36,5.06-.14.02-.54-2.22-.88-5-.34-2.78-.51-5.04-.36-5.06Z"/>
        <path class="cls-6" d="m320.14,414.03s-.34.45-1.02,1.19c-.68.74-1.68,1.8-2.93,3.1-2.5,2.59-6.01,6.11-9.98,9.9-3.97,3.79-7.66,7.13-10.36,9.51-1.35,1.19-2.46,2.14-3.23,2.78-.77.64-1.21.99-1.24.96-.02-.03.37-.42,1.1-1.11.8-.75,1.85-1.72,3.12-2.9,2.64-2.44,6.28-5.82,10.25-9.61,3.97-3.79,7.52-7.26,10.08-9.78,1.23-1.21,2.26-2.21,3.04-2.98.72-.7,1.14-1.07,1.16-1.05Z"/>
        <path class="cls-6" d="m271.22,422.84s.19.15.54.47c.36.33.88.8,1.56,1.42,1.38,1.27,3.4,3.13,6,5.52,5.21,4.83,12.75,11.81,22.12,20.48h-.25c8.03-7.5,17.62-16.45,28.24-26.37l-.02.32c-11.91-13.89-26.18-29.1-41.13-45.29-6.61-7.14-13.06-14.13-19.22-20.93-6.16-6.8-12.04-13.43-17.41-19.94-2.67-3.25-5.33-6.41-8.49-8.82-1.57-1.21-3.27-2.19-5.04-2.93-1.77-.75-3.6-1.25-5.42-1.66-3.65-.79-7.25-1.25-10.68-1.8-3.44-.53-6.74-1.05-9.89-1.54-12.59-1.97-22.78-3.57-29.84-4.67-3.51-.56-6.24-1-8.11-1.3-.91-.15-1.62-.27-2.11-.35-.47-.08-.71-.14-.71-.14,0,0,.25.02.72.08.49.07,1.2.17,2.11.3,1.87.28,4.61.68,8.12,1.2,7.07,1.07,17.27,2.61,29.87,4.51,3.15.48,6.46.98,9.9,1.51,3.44.55,7.03.99,10.72,1.78,1.84.41,3.7.92,5.5,1.68,1.81.75,3.55,1.75,5.14,2.98,3.22,2.44,5.9,5.63,8.58,8.87,5.37,6.49,11.26,13.1,17.42,19.9,6.16,6.8,12.61,13.77,19.22,20.92,14.95,16.18,29.21,31.41,41.11,45.34l.15.17-.16.15c-10.64,9.89-20.26,18.82-28.31,26.29l-.13.12-.12-.12c-9.32-8.72-16.82-15.75-22-20.6-2.57-2.42-4.56-4.3-5.93-5.59-.66-.63-1.17-1.12-1.53-1.46-.34-.33-.51-.51-.51-.51Z"/>
      </g>
      <g>
        <path class="cls-11" d="m199.3,301.01l-24.72,8.33-45.52-18.51-24.3,22.59,64.92,11.65c2.19.36,4.43.2,6.55-.47l19.14-6.01s6.26,7.07,7.56,7.17c1.3.1,3.94-.08,2.69-2.41s-4.47-6.4-4.47-6.4c0,0,8.79,7.25,9.79,6.28,1-.97.6-3.21-.96-5.04-1.56-1.83-6.73-7.76-6.73-7.76,0,0,10.83,8.97,11.86,7.61,1.03-1.36,1.54-3.51-2.8-7.67-2.85-2.73-7.24-6.63-9.55-8.67-.95-.84-2.27-1.1-3.47-.7Z"/>
        <path class="cls-9" d="m173.91,309.56c.1.1-1,1.37-2.36,2.92-1.36,1.55-2.47,2.81-2.58,2.72-.11-.08.82-1.5,2.19-3.07,1.37-1.57,2.65-2.68,2.75-2.58Z"/>
        <path class="cls-9" d="m210.37,318.66c-.06.07-.91-.72-2.08-2.13-1.19-1.4-2.77-3.39-4.56-5.54-1.82-2.06-3.35-4.41-5.33-4.02-.88.05-1.56.34-1.99.6-.43.26-.63.46-.66.43-.02-.02.13-.27.55-.6.41-.33,1.12-.7,2.07-.8.48-.05,1.01-.02,1.56.13.27.06.56.21.82.39.23.19.48.38.7.59.9.85,1.77,1.86,2.68,2.94,1.79,2.16,3.33,4.18,4.44,5.64.5.64.94,1.21,1.32,1.72.31.41.5.61.47.65Z"/>
        <path class="cls-9" d="m192.83,312.32s.15-.25.57-.52c.42-.26,1.14-.54,2.05-.52.46.01.94.07,1.47.29.52.24.95.66,1.31,1.13.37.47.68,1,1.02,1.5.34.49.76,1.01,1.15,1.54,3.22,4.23,5.61,7.85,5.39,7.98-.04.02-.18-.21-.47-.6-.37-.49-.78-1.03-1.24-1.65-1.15-1.53-2.55-3.38-4.1-5.42-.4-.54-.79-1.03-1.16-1.57-.35-.53-.65-1.05-.98-1.5-.33-.45-.7-.82-1.11-1.03-.41-.19-.89-.28-1.3-.31-1.72-.11-2.57.77-2.61.67Z"/>
        <path class="cls-9" d="m212.94,310.99c-.05.05-.81-.56-2.01-1.59-1.19-1.03-2.82-2.48-4.59-4.1-.87-.81-1.71-1.58-2.49-2.3-.75-.74-1.43-1.32-2.13-1.64-1.41-.65-2.42-.27-2.42-.35-.02-.03.21-.17.66-.24.45-.07,1.13-.05,1.9.25.38.15.77.37,1.17.65.39.29.75.62,1.14.97.79.71,1.63,1.48,2.52,2.27,1.78,1.62,3.36,3.12,4.5,4.22,1.13,1.1,1.81,1.81,1.76,1.86Z"/>
      </g>
      <g>
        <path class="cls-1" d="m102.47,314.04s-9.24-10.37-8.66-24.21c.58-13.84,4.55-53.9,6.32-64.9,1.75-10.87,10.03-25.99,23.2-29.26,9.63-2.39,11.62,26.74,11.62,26.74l-7.27,64.31,14.5,8.42-13.53,22.92-26.18-4.03Z"/>
        <path class="cls-14" d="m133.7,219.2c-.1.01-.22-1.41-.83-3.6-.3-1.1-.76-2.37-1.38-3.73-.64-1.35-1.45-2.79-2.46-4.2-1.02-1.4-2.14-2.61-3.22-3.65-1.1-1.01-2.17-1.85-3.12-2.48-1.89-1.26-3.2-1.82-3.16-1.91.01-.03.35.09.94.34.3.12.66.28,1.06.5.4.22.88.44,1.35.76.99.59,2.1,1.42,3.24,2.43,1.12,1.03,2.27,2.27,3.32,3.7,1.03,1.44,1.84,2.91,2.47,4.31.61,1.4,1.04,2.71,1.3,3.84.16.56.22,1.08.3,1.53.09.45.12.84.14,1.16.05.64.06,1,.02,1Z"/>
        <path class="cls-14" d="m127.65,286.77c.03.07-.87.53-2.29,1.34-1.42.8-3.34,1.98-5.34,3.46-1.99,1.49-3.67,2.99-4.86,4.11-1.19,1.12-1.91,1.84-1.96,1.78-.05-.04.57-.85,1.7-2.04,1.13-1.19,2.79-2.76,4.81-4.26,2.02-1.5,4-2.64,5.48-3.36,1.48-.73,2.44-1.07,2.46-1.01Z"/>
      </g>
      <g>
        <path class="cls-8" d="m223.65,272.11l-15.9,57.76h74.27l18.09-55.03c.71-2.15-.88-4.36-3.14-4.39l-70.06-.8c-1.52-.02-2.86.99-3.26,2.46Z"/>
        <path class="cls-14" d="m228.46,269.67c.14.04-3.46,13.55-8.05,30.17-4.58,16.63-8.41,30.07-8.55,30.03-.14-.04,3.46-13.54,8.05-30.17,4.58-16.62,8.41-30.07,8.55-30.03Z"/>
        <path class="cls-3" d="m257.16,298.86c-.86,1.77-.3,3.81,1.25,4.56,1.54.75,3.49-.08,4.35-1.86.86-1.77.3-3.81-1.25-4.56-1.54-.75-3.49.08-4.35,1.86Z"/>
        <path class="cls-8" d="m207.74,329.87h-49.7c0-2.35,1.9-4.25,4.25-4.25h47.29l-1.84,4.25Z"/>
      </g>
      <path class="cls-14" d="m93.81,289.82s.02.16.03.47c0,.33.02.79.03,1.37-.01.6.07,1.34.15,2.21.05.88.25,1.87.43,2.98.45,2.22,1.2,4.9,2.5,7.84,1.29,2.92,3.11,6.14,5.67,9.22l-.12-.06c7.46,1.13,16.39,2.49,26.19,3.98l-.25.12c3.29-5.58,6.85-11.62,10.54-17.87,1-1.7,2-3.39,2.98-5.05l.09.36c-5.06-2.94-9.93-5.77-14.49-8.43l-.14-.08v-.16c1.34-14.72,2.49-27.38,3.3-36.39.42-4.47.76-8.03.99-10.51.12-1.2.22-2.14.29-2.8.03-.3.06-.54.08-.72.02-.16.04-.24.04-.24,0,0,0,.08,0,.25-.01.19-.02.42-.04.73-.05.67-.12,1.61-.21,2.81-.2,2.48-.49,6.05-.85,10.52-.77,9.02-1.85,21.68-3.1,36.41l-.12-.24c4.57,2.65,9.44,5.48,14.5,8.41l.23.13-.13.23c-.98,1.67-1.98,3.35-2.98,5.05-3.69,6.25-7.26,12.28-10.56,17.86l-.09.15-.17-.03c-9.79-1.53-18.71-2.92-26.17-4.08h-.08s-.04-.06-.04-.06c-5.14-6.35-7.27-12.82-8.09-17.28-.17-1.13-.35-2.13-.38-3.01-.06-.88-.13-1.62-.1-2.22.01-.58.02-1.03.03-1.37,0-.31.02-.47.03-.47Z"/>
      <g>
        <g>
          <path class="cls-6" d="m56.61,307.87s87.83,11.12,90.97,14.2c2.75,2.71,6.27,74.04,7.05,73.7l-81.97-3.11-16.05-84.79Z"/>
          <path class="cls-14" d="m129.07,412.33c-.14.01-1.97-20.56-4.08-45.95-2.11-25.4-3.71-45.99-3.57-46,.14-.01,1.97,20.56,4.08,45.96,2.11,25.39,3.71,45.98,3.57,46Z"/>
          <path class="cls-14" d="m39.33,215.7s.04.11.1.34c.06.25.14.59.25,1.01.21.92.51,2.23.89,3.9.76,3.43,1.85,8.33,3.19,14.38,2.65,12.18,6.31,28.95,10.34,47.48,1,4.64,1.98,9.17,2.92,13.54.47,2.19.93,4.34,1.39,6.44.11.53.23,1.05.34,1.57.12.53.2,1.04.4,1.49.38.93,1.07,1.7,1.91,2.2.42.25.88.43,1.35.54.46.1.98.15,1.47.22.99.13,1.97.26,2.94.39,1.93.25,3.81.5,5.62.74,3.62.48,7,.93,10.08,1.33,6.14.83,11.12,1.5,14.6,1.97,1.7.24,3.03.43,3.97.56.43.07.77.12,1.03.16.23.04.35.06.35.07,0,0-.12,0-.36-.02-.26-.03-.6-.06-1.04-.11-.94-.11-2.28-.27-3.98-.46-3.48-.43-8.47-1.04-14.62-1.8-3.09-.39-6.47-.81-10.09-1.27-1.81-.23-3.69-.47-5.62-.71-.97-.12-1.95-.25-2.94-.37-.5-.07-.99-.11-1.52-.22-.52-.12-1.02-.31-1.49-.59-.93-.54-1.7-1.4-2.12-2.42-.22-.52-.31-1.06-.42-1.57-.11-.52-.23-1.04-.34-1.57-.46-2.1-.92-4.25-1.4-6.44-.95-4.37-1.93-8.9-2.93-13.54-3.98-18.54-7.58-35.33-10.19-47.52-1.28-6.06-2.31-10.98-3.03-14.41-.34-1.68-.61-3-.8-3.93-.08-.43-.15-.77-.19-1.02-.04-.23-.06-.35-.05-.35Z"/>
        </g>
        <path class="cls-14" d="m148.89,327.74c.14-.01,1.82,18.96,3.74,42.38,1.92,23.42,3.37,42.41,3.22,42.42-.14.01-1.82-18.96-3.74-42.38-1.92-23.41-3.37-42.41-3.22-42.42Z"/>
      </g>
    </g>
  </g>
  <g id="Screen">
    <g>
      <g>
        <g>
          <rect class="cls-4" x="253.79" y="12.26" width="226.17" height="226.17"/>
          <path class="cls-14" d="m479.96,238.43c0-1.63-.08-90.55-.19-226.17l.19.19c-65.73,0-143.34.02-226.15.03h-.02l.22-.22c-.01,82.82-.02,160.44-.03,226.17l-.19-.19c135.63.11,224.54.19,226.17.19-1.63,0-90.54.08-226.17.19h-.19s0-.19,0-.19c0-65.73-.02-143.35-.03-226.17v-.22s.22,0,.22,0h.02c82.8.01,160.41.02,226.15.03h.19s0,.19,0,.19c-.11,135.61-.19,224.54-.19,226.17Z"/>
        </g>
        <g>
          <path class="cls-1" d="m320.91,41.02h2.48v4.76c-1.29.97-3.07,1.49-4.74,1.49-3.69,0-6.4-2.53-6.4-6.07s2.71-6.07,6.45-6.07c2.06,0,3.77.7,4.91,2.03l-1.74,1.61c-.86-.9-1.84-1.32-3.03-1.32-2.28,0-3.84,1.53-3.84,3.75s1.56,3.75,3.8,3.75c.74,0,1.42-.13,2.11-.5v-3.44Z"/>
          <path class="cls-1" d="m334.49,43.3h-6.82c.25,1.12,1.21,1.81,2.58,1.81.96,0,1.64-.29,2.26-.87l1.39,1.51c-.84.96-2.1,1.46-3.72,1.46-3.12,0-5.14-1.96-5.14-4.64s2.06-4.64,4.81-4.64,4.69,1.78,4.69,4.68c0,.2-.03.49-.05.7Zm-6.85-1.53h4.44c-.18-1.14-1.04-1.88-2.21-1.88s-2.04.72-2.23,1.88Z"/>
          <path class="cls-1" d="m342.1,46.63c-.54.39-1.32.57-2.13.57-2.13,0-3.37-1.09-3.37-3.23v-3.7h-1.39v-2.01h1.39v-2.2h2.61v2.2h2.25v2.01h-2.25v3.67c0,.77.42,1.19,1.12,1.19.39,0,.77-.12,1.06-.34l.7,1.84Z"/>
          <path class="cls-1" d="m348,35.34c0-.82.65-1.46,1.63-1.46s1.63.6,1.63,1.41c0,.87-.65,1.51-1.63,1.51s-1.63-.64-1.63-1.46Zm.32,2.71h2.61v9.02h-2.61v-9.02Z"/>
          <path class="cls-1" d="m362.57,41.91v5.16h-2.61v-4.76c0-1.46-.67-2.13-1.83-2.13-1.26,0-2.16.77-2.16,2.43v4.46h-2.61v-9.02h2.5v1.06c.7-.77,1.76-1.19,2.98-1.19,2.13,0,3.74,1.24,3.74,3.99Z"/>
          <path class="cls-1" d="m375.49,46.63c-.54.39-1.32.57-2.13.57-2.13,0-3.37-1.09-3.37-3.23v-3.7h-1.39v-2.01h1.39v-2.2h2.61v2.2h2.25v2.01h-2.25v3.67c0,.77.42,1.19,1.12,1.19.39,0,.77-.12,1.06-.34l.7,1.84Z"/>
          <path class="cls-1" d="m376.01,42.56c0-2.71,2.09-4.64,4.96-4.64s4.94,1.93,4.94,4.64-2.08,4.64-4.94,4.64-4.96-1.93-4.96-4.64Zm7.26,0c0-1.56-.99-2.5-2.3-2.5s-2.31.94-2.31,2.5,1.01,2.5,2.31,2.5,2.3-.94,2.3-2.5Z"/>
          <path class="cls-1" d="m396.73,38.05v9.02h-2.48v-1.07c-.69.79-1.69,1.21-2.8,1.21-2.26,0-3.85-1.27-3.85-4.06v-5.09h2.61v4.71c0,1.51.67,2.18,1.83,2.18s2.08-.77,2.08-2.43v-4.46h2.61Z"/>
          <path class="cls-1" d="m398.49,42.56c0-2.71,2.09-4.64,5.03-4.64,1.89,0,3.38.82,4.04,2.3l-2.03,1.09c-.49-.85-1.21-1.24-2.03-1.24-1.32,0-2.36.92-2.36,2.5s1.04,2.5,2.36,2.5c.82,0,1.54-.37,2.03-1.24l2.03,1.11c-.65,1.44-2.14,2.28-4.04,2.28-2.93,0-5.03-1.93-5.03-4.64Z"/>
          <path class="cls-1" d="m418.21,41.91v5.16h-2.61v-4.76c0-1.46-.67-2.13-1.83-2.13-1.26,0-2.16.77-2.16,2.43v4.46h-2.61v-12.43h2.61v4.36c.7-.7,1.71-1.07,2.87-1.07,2.13,0,3.74,1.24,3.74,3.99Z"/>
        </g>
        <path class="cls-13" d="m426.9,56.22c0,.12-27.66.22-61.78.22s-61.78-.1-61.78-.22,27.66-.22,61.78-.22,61.78.1,61.78.22Z"/>
        <g>
          <path class="cls-13" d="m462.56,86.73s-.01-.33-.02-.97c0-.65-.01-1.6-.02-2.85-.01-2.51-.03-6.22-.05-11.06l.1.1c-29.93.03-103.89.09-190.35.16h0l.26-.26c0,5.1,0,10.15,0,14.88l-.26-.26c53.24.04,100.79.08,135.04.11,17.14.03,30.95.06,40.49.08,4.77.02,8.46.03,10.98.04,1.25,0,2.2.01,2.86.02.65,0,.98.02.98.02,0,0-.32.01-.95.02-.65,0-1.59,0-2.82.02-2.5,0-6.18.02-10.92.04-9.52.02-23.31.04-40.43.08-34.3.03-81.92.07-135.23.11h-.26s0-.26,0-.26c0-4.73,0-9.78,0-14.88v-.26s.26,0,.26,0h0c86.46.07,160.42.14,190.35.16h.1s0,.1,0,.1c-.02,4.86-.04,8.59-.05,11.11,0,1.24-.02,2.18-.02,2.83,0,.63-.02.94-.02.94Z"/>
          <g>
            <path class="cls-14" d="m276.68,61.35v4.32h-.82l-2.16-2.62v2.62h-.99v-4.32h.83l2.15,2.62v-2.62h.99Z"/>
            <path class="cls-14" d="m280.57,63.78v1.9h-.9v-.41c-.18.3-.52.46-1.01.46-.78,0-1.24-.43-1.24-1.01s.41-.99,1.43-.99h.77c0-.41-.25-.65-.77-.65-.35,0-.72.12-.96.31l-.35-.67c.36-.26.9-.4,1.43-.4,1.01,0,1.6.47,1.6,1.48Zm-.96.85v-.34h-.66c-.45,0-.59.17-.59.39,0,.24.2.4.54.4.32,0,.6-.15.71-.45Z"/>
            <path class="cls-14" d="m287.05,63.78v1.9h-.96v-1.75c0-.54-.24-.78-.63-.78-.43,0-.73.28-.73.87v1.67h-.96v-1.75c0-.54-.23-.78-.63-.78-.43,0-.73.28-.73.87v1.67h-.96v-3.32h.92v.38c.25-.28.62-.43,1.04-.43.46,0,.86.18,1.09.54.27-.34.7-.54,1.2-.54.79,0,1.36.46,1.36,1.47Z"/>
            <path class="cls-14" d="m291.19,64.29h-2.51c.09.41.44.67.95.67.35,0,.6-.11.83-.32l.51.56c-.31.35-.77.54-1.37.54-1.15,0-1.9-.72-1.9-1.71s.76-1.71,1.77-1.71,1.73.65,1.73,1.72c0,.07-.01.18-.02.26Zm-2.53-.56h1.64c-.07-.42-.38-.69-.81-.69s-.75.27-.82.69Z"/>
          </g>
          <path class="cls-13" d="m462.56,123.88s-.01-.33-.02-.97c0-.65-.01-1.6-.02-2.85-.01-2.51-.03-6.22-.05-11.06l.1.1c-29.93.03-103.89.09-190.35.16h0l.26-.26c0,5.1,0,10.15,0,14.88l-.26-.26c53.24.04,100.79.08,135.04.11,17.14.03,30.95.06,40.49.08,4.77.02,8.46.03,10.98.04,1.25,0,2.2.01,2.86.02.65,0,.98.02.98.02,0,0-.32.01-.95.02-.65,0-1.59,0-2.82.02-2.5,0-6.18.02-10.92.04-9.52.02-23.31.04-40.43.08-34.3.03-81.92.07-135.23.11h-.26s0-.26,0-.26c0-4.73,0-9.78,0-14.88v-.26s.26,0,.26,0h0c86.46.07,160.42.14,190.35.16h.1s0,.1,0,.1c-.02,4.86-.04,8.59-.05,11.11,0,1.24-.02,2.18-.02,2.83,0,.63-.02.94-.02.94Z"/>
          <path class="cls-13" d="m462.56,198.53s-.01-.35-.02-1.02c0-.68,0-1.67-.02-2.97,0-2.62-.02-6.48-.04-11.49-.02-10.02-.05-24.62-.09-43.01l.16.16c-44.79.02-113.5.06-190.34.09h-.01l.26-.26c0,20.25,0,39.93,0,58.49l-.25-.25c54.64.05,102.2.09,136.1.11,16.97.03,30.51.05,39.83.07,4.66.01,8.25.02,10.7.03,1.21,0,2.14.01,2.77.02.63,0,.95.02.95.02,0,0-.31.01-.92.02-.63,0-1.54,0-2.74.02-2.43,0-6.01.02-10.64.03-9.3.02-22.83.04-39.77.07-33.95.03-81.56.07-136.28.11h-.25s0-.25,0-.25c0-18.56,0-38.24,0-58.49v-.26s.26,0,.26,0h.01c76.84.04,145.55.07,190.34.09h.16s0,.16,0,.16c-.04,18.44-.07,33.07-.09,43.11-.02,4.99-.03,8.84-.04,11.45,0,1.29-.01,2.27-.02,2.94,0,.66-.02.99-.02.99Z"/>
          <g>
            <path class="cls-14" d="m276.06,102.02v.8h-3.35v-4.32h3.27v.8h-2.27v.94h2.01v.78h-2.01v1h2.35Z"/>
            <path class="cls-14" d="m282.4,100.92v1.9h-.96v-1.75c0-.54-.24-.78-.63-.78-.43,0-.73.28-.73.87v1.67h-.96v-1.75c0-.54-.23-.78-.63-.78-.43,0-.73.28-.73.87v1.67h-.96v-3.32h.92v.38c.25-.28.62-.43,1.04-.43.46,0,.86.18,1.09.54.27-.34.7-.54,1.2-.54.79,0,1.36.46,1.36,1.47Z"/>
            <path class="cls-14" d="m286.2,100.93v1.9h-.9v-.41c-.18.3-.52.46-1.01.46-.78,0-1.24-.43-1.24-1.01s.41-.99,1.43-.99h.77c0-.41-.25-.65-.77-.65-.35,0-.72.12-.96.31l-.35-.67c.36-.26.9-.4,1.43-.4,1.01,0,1.6.47,1.6,1.48Zm-.96.85v-.34h-.66c-.45,0-.59.17-.59.39,0,.24.2.4.54.4.32,0,.6-.15.71-.45Z"/>
            <path class="cls-14" d="m286.95,98.5c0-.3.24-.54.6-.54s.6.22.6.52c0,.32-.24.56-.6.56s-.6-.23-.6-.54Zm.12,1h.96v3.32h-.96v-3.32Z"/>
            <path class="cls-14" d="m288.93,98.24h.96v4.58h-.96v-4.58Z"/>
            <path class="cls-14" d="m295.47,100.93v1.9h-.9v-.41c-.18.3-.52.46-1.01.46-.78,0-1.24-.43-1.24-1.01s.41-.99,1.43-.99h.77c0-.41-.25-.65-.77-.65-.35,0-.72.12-.96.31l-.35-.67c.36-.26.9-.4,1.43-.4,1.01,0,1.6.47,1.6,1.48Zm-.96.85v-.34h-.66c-.45,0-.59.17-.59.39,0,.24.2.4.54.4.32,0,.6-.15.71-.45Z"/>
            <path class="cls-14" d="m299.76,98.24v4.58h-.92v-.38c-.24.29-.59.43-1.04.43-.94,0-1.66-.67-1.66-1.71s.72-1.71,1.66-1.71c.41,0,.75.13.99.4v-1.61h.96Zm-.94,2.92c0-.57-.37-.92-.85-.92s-.85.35-.85.92.37.92.85.92.85-.35.85-.92Z"/>
            <path class="cls-14" d="m304.03,98.24v4.58h-.92v-.38c-.24.29-.59.43-1.04.43-.94,0-1.66-.67-1.66-1.71s.72-1.71,1.66-1.71c.41,0,.75.13.99.4v-1.61h.96Zm-.95,2.92c0-.57-.37-.92-.85-.92s-.85.35-.85.92.37.92.85.92.85-.35.85-.92Z"/>
            <path class="cls-14" d="m306.98,99.45v.89c-.08,0-.14-.01-.22-.01-.53,0-.88.29-.88.93v1.57h-.96v-3.32h.92v.44c.23-.32.63-.49,1.14-.49Z"/>
            <path class="cls-14" d="m310.76,101.44h-2.51c.09.41.44.67.95.67.35,0,.61-.11.83-.32l.51.56c-.31.35-.77.54-1.37.54-1.15,0-1.89-.72-1.89-1.71s.76-1.71,1.77-1.71,1.73.65,1.73,1.72c0,.07-.01.18-.02.26Zm-2.53-.56h1.64c-.07-.42-.38-.69-.81-.69s-.75.27-.82.69Z"/>
            <path class="cls-14" d="m311.1,102.52l.32-.69c.3.19.75.32,1.15.32.44,0,.61-.12.61-.3,0-.54-2.01.01-2.01-1.32,0-.63.57-1.07,1.54-1.07.46,0,.96.11,1.28.29l-.32.69c-.33-.19-.66-.25-.96-.25-.43,0-.62.14-.62.31,0,.57,2.01.02,2.01,1.33,0,.62-.57,1.06-1.57,1.06-.56,0-1.13-.15-1.44-.36Z"/>
            <path class="cls-14" d="m314.37,102.52l.32-.69c.3.19.75.32,1.15.32.44,0,.61-.12.61-.3,0-.54-2.01.01-2.01-1.32,0-.63.57-1.07,1.54-1.07.46,0,.96.11,1.28.29l-.32.69c-.33-.19-.66-.25-.96-.25-.43,0-.62.14-.62.31,0,.57,2.01.02,2.01,1.33,0,.62-.57,1.06-1.57,1.06-.56,0-1.13-.15-1.44-.36Z"/>
          </g>
          <g>
            <path class="cls-14" d="m276.65,135.13v-2.59s-1.28,2.14-1.28,2.14h-.45l-1.27-2.08v2.54h-.94v-4.32h.83l1.62,2.69,1.59-2.69h.82v4.32s-.93,0-.93,0Z"/>
            <path class="cls-14" d="m281.78,133.74h-2.51c.09.41.44.67.95.67.35,0,.6-.11.83-.32l.51.56c-.31.35-.77.54-1.37.54-1.15,0-1.9-.72-1.9-1.71s.76-1.71,1.77-1.71,1.73.65,1.73,1.72c0,.07-.01.18-.02.26Zm-2.53-.56h1.64c-.07-.42-.38-.69-.81-.69s-.75.27-.82.69Z"/>
            <path class="cls-14" d="m282.11,134.82l.32-.69c.3.19.75.32,1.15.32.44,0,.61-.12.61-.3,0-.54-2.01.01-2.01-1.32,0-.63.57-1.07,1.54-1.07.46,0,.96.11,1.28.29l-.32.69c-.33-.19-.65-.25-.96-.25-.43,0-.62.14-.62.31,0,.57,2.01.02,2.01,1.33,0,.62-.57,1.06-1.57,1.06-.56,0-1.13-.15-1.44-.36Z"/>
            <path class="cls-14" d="m285.39,134.82l.32-.69c.3.19.75.32,1.15.32.44,0,.61-.12.61-.3,0-.54-2.01.01-2.01-1.32,0-.63.57-1.07,1.54-1.07.46,0,.96.11,1.28.29l-.32.69c-.33-.19-.65-.25-.96-.25-.43,0-.62.14-.62.31,0,.57,2.01.02,2.01,1.33,0,.62-.57,1.06-1.57,1.06-.56,0-1.13-.15-1.44-.36Z"/>
            <path class="cls-14" d="m291.93,133.23v1.9h-.9v-.41c-.18.3-.52.46-1.01.46-.78,0-1.24-.43-1.24-1.01s.41-.99,1.43-.99h.77c0-.41-.25-.65-.77-.65-.35,0-.72.12-.96.31l-.35-.67c.36-.26.9-.4,1.43-.4,1.01,0,1.6.47,1.6,1.48Zm-.96.85v-.34h-.66c-.45,0-.59.17-.59.39,0,.24.2.4.54.4.32,0,.6-.15.71-.45Z"/>
            <path class="cls-14" d="m296.26,131.81v2.77c0,1.23-.67,1.8-1.86,1.8-.63,0-1.24-.15-1.63-.46l.38-.69c.28.23.75.38,1.17.38.68,0,.98-.31.98-.91v-.14c-.25.28-.62.41-1.05.41-.92,0-1.66-.64-1.66-1.61s.74-1.61,1.66-1.61c.46,0,.85.15,1.1.48v-.43h.91Zm-.95,1.56c0-.49-.36-.82-.87-.82s-.88.33-.88.82.37.81.88.81.87-.33.87-.81Z"/>
            <path class="cls-14" d="m300.39,133.74h-2.51c.09.41.44.67.95.67.35,0,.6-.11.83-.32l.51.56c-.31.35-.77.54-1.37.54-1.15,0-1.9-.72-1.9-1.71s.76-1.71,1.77-1.71,1.73.65,1.73,1.72c0,.07-.01.18-.02.26Zm-2.53-.56h1.64c-.07-.42-.38-.69-.81-.69s-.75.27-.82.69Z"/>
          </g>
        </g>
        <rect class="cls-1" x="384.62" y="201.55" width="63.3" height="20.68" rx="10.34" ry="10.34"/>
        <g>
          <path class="cls-3" d="m406.92,213.49l.4-.88c.42.31,1.06.52,1.66.52.69,0,.97-.23.97-.54,0-.94-2.93-.29-2.93-2.16,0-.86.69-1.57,2.12-1.57.63,0,1.28.15,1.75.45l-.36.88c-.47-.27-.95-.4-1.39-.4-.69,0-.96.26-.96.58,0,.93,2.93.29,2.93,2.13,0,.84-.7,1.56-2.14,1.56-.8,0-1.6-.24-2.05-.58Z"/>
          <path class="cls-3" d="m415.59,212.37h-2.92c.11.48.52.78,1.11.78.41,0,.7-.12.97-.37l.6.65c-.36.41-.9.62-1.6.62-1.34,0-2.21-.84-2.21-1.99s.88-1.99,2.06-1.99,2.01.76,2.01,2.01c0,.09-.01.21-.02.3Zm-2.94-.65h1.9c-.08-.49-.45-.81-.95-.81s-.88.31-.96.81Z"/>
          <path class="cls-3" d="m420.31,211.77v2.21h-1.12v-2.04c0-.62-.29-.91-.78-.91-.54,0-.93.33-.93,1.04v1.91h-1.12v-3.87h1.07v.45c.3-.33.76-.51,1.28-.51.91,0,1.6.53,1.6,1.71Z"/>
          <path class="cls-3" d="m425.31,208.65v5.33h-1.07v-.45c-.28.34-.69.5-1.21.5-1.09,0-1.93-.78-1.93-1.99s.84-1.99,1.93-1.99c.47,0,.88.15,1.16.47v-1.88h1.12Zm-1.1,3.4c0-.67-.43-1.07-.98-1.07s-.99.4-.99,1.07.43,1.07.99,1.07.98-.4.98-1.07Z"/>
        </g>
      </g>
      <g>
        <path class="cls-2" d="m282.01,30.06c0,.06-.7-.14-1.95-.08-1.23.05-3.11.47-4.81,1.93-.83.73-1.62,1.7-2.11,2.91-.48,1.2-.74,2.62-.52,4.07.09.72.3,1.45.62,2.14.31.7.73,1.36,1.26,1.95,1.04,1.2,2.52,2.07,4.16,2.45,1.65.34,3.36.17,4.8-.49.73-.31,1.39-.74,1.96-1.25.58-.5,1.07-1.07,1.46-1.69.8-1.23,1.15-2.62,1.22-3.92.06-1.3-.25-2.51-.71-3.52-.94-2.04-2.47-3.2-3.57-3.76-1.12-.57-1.83-.68-1.81-.73,0,0,.72.05,1.89.58,1.14.53,2.77,1.67,3.78,3.78.49,1.04.83,2.3.79,3.67-.05,1.36-.4,2.82-1.24,4.12-.4.66-.92,1.26-1.52,1.79-.6.54-1.3.99-2.06,1.33-1.52.7-3.33.9-5.07.53-1.73-.39-3.3-1.32-4.39-2.59-.56-.62-1-1.33-1.32-2.06-.33-.73-.55-1.5-.64-2.26-.22-1.53.07-3.01.59-4.26.53-1.26,1.36-2.26,2.24-3.01,1.79-1.49,3.75-1.86,5.01-1.87,1.28,0,1.96.26,1.96.26Z"/>
        <path class="cls-1" d="m277.54,30.42c.11-.06,1.82,3.02,3.83,6.86,2.01,3.85,3.55,7.01,3.44,7.07-.11.06-1.82-3.02-3.83-6.86-2.01-3.85-3.55-7.01-3.44-7.07Z"/>
        <path class="cls-1" d="m279.16,29.96c.11-.06,1.77,2.92,3.72,6.65,1.95,3.73,3.44,6.79,3.33,6.85-.11.06-1.77-2.92-3.72-6.65-1.95-3.73-3.44-6.79-3.33-6.85Z"/>
        <path class="cls-1" d="m281.03,29.99c.11-.06,1.58,2.55,3.29,5.82,1.71,3.27,3.01,5.97,2.9,6.03-.11.06-1.58-2.55-3.29-5.82-1.71-3.27-3.01-5.97-2.9-6.03Z"/>
        <path class="cls-1" d="m283.05,30.29c.11-.06,1.31,2.04,2.69,4.67,1.38,2.64,2.41,4.82,2.3,4.88-.11.06-1.31-2.04-2.69-4.67-1.38-2.64-2.41-4.82-2.3-4.88Z"/>
        <path class="cls-1" d="m276.08,31.36c.11-.06,1.82,3.02,3.83,6.86,2.01,3.85,3.55,7.01,3.44,7.07-.11.06-1.82-3.02-3.83-6.86-2.01-3.85-3.55-7.01-3.44-7.07Z"/>
        <path class="cls-1" d="m274.62,32.3c.11-.06,1.82,3.02,3.83,6.86,2.01,3.85,3.55,7.01,3.44,7.07-.11.06-1.82-3.02-3.83-6.86-2.01-3.85-3.55-7.01-3.44-7.07Z"/>
        <path class="cls-1" d="m273.45,33.78c.11-.06,1.6,2.59,3.34,5.91,1.73,3.32,3.05,6.06,2.94,6.12-.11.06-1.6-2.59-3.34-5.91-1.73-3.32-3.05-6.06-2.94-6.11Z"/>
        <path class="cls-1" d="m272.59,35.85c.11-.06,1.31,2.02,2.67,4.64,1.37,2.62,2.39,4.79,2.28,4.85-.11.06-1.3-2.02-2.67-4.64-1.37-2.62-2.39-4.79-2.28-4.85Z"/>
      </g>
      <g>
        <path class="cls-2" d="m344.49,211.85s-.34-.63-1.17-1.56c-.82-.92-2.33-2.11-4.54-2.49-1.09-.18-2.34-.17-3.59.22-1.23.39-2.5,1.09-3.47,2.18-.5.53-.93,1.15-1.26,1.84-.34.68-.59,1.43-.71,2.22-.27,1.57,0,3.26.75,4.77.78,1.49,2,2.7,3.43,3.4.7.36,1.46.61,2.21.72.75.13,1.51.15,2.23.05,1.46-.16,2.76-.77,3.8-1.54,1.04-.78,1.78-1.79,2.27-2.78.98-2.02.9-3.94.64-5.14-.27-1.23-.63-1.84-.58-1.87,0,0,.42.59.75,1.83.32,1.22.46,3.2-.52,5.32-.49,1.04-1.25,2.1-2.33,2.94-1.08.82-2.44,1.48-3.97,1.66-.76.11-1.56.09-2.35-.04-.8-.12-1.59-.37-2.34-.75-1.51-.73-2.81-2.01-3.63-3.58-.8-1.59-1.07-3.39-.78-5.04.13-.83.39-1.62.76-2.33.36-.72.81-1.38,1.34-1.93,1.04-1.14,2.37-1.86,3.67-2.25,1.31-.39,2.61-.38,3.75-.18,2.29.44,3.82,1.71,4.62,2.69.81.99,1.04,1.68,1.04,1.68Z"/>
        <path class="cls-1" d="m341.37,208.62c.11.05-1.17,3.32-2.87,7.32-1.7,3.99-3.17,7.19-3.28,7.15-.11-.05,1.17-3.32,2.87-7.32,1.7-3.99,3.17-7.19,3.28-7.15Z"/>
        <path class="cls-1" d="m342.76,209.58c.11.05-1.13,3.22-2.78,7.09-1.65,3.87-3.07,6.97-3.18,6.92-.11-.05,1.13-3.22,2.78-7.09,1.65-3.87,3.07-6.97,3.18-6.92Z"/>
        <path class="cls-1" d="m343.93,211.04c.11.05-.97,2.84-2.41,6.24-1.44,3.4-2.71,6.11-2.82,6.06-.11-.05.97-2.84,2.41-6.24,1.44-3.4,2.71-6.11,2.82-6.06Z"/>
        <path class="cls-1" d="m344.97,212.8c.11.05-.74,2.31-1.9,5.04-1.16,2.74-2.2,4.92-2.31,4.87-.11-.05.74-2.31,1.9-5.04,1.16-2.74,2.2-4.92,2.31-4.87Z"/>
        <path class="cls-1" d="m339.73,208.09c.11.05-1.17,3.32-2.87,7.32-1.7,3.99-3.17,7.19-3.28,7.15-.11-.05,1.17-3.32,2.87-7.32,1.7-3.99,3.17-7.19,3.28-7.15Z"/>
        <path class="cls-1" d="m338.08,207.56c.11.05-1.17,3.32-2.87,7.32-1.7,3.99-3.17,7.19-3.28,7.15-.11-.05,1.17-3.32,2.87-7.32,1.7-3.99,3.17-7.19,3.28-7.15Z"/>
        <path class="cls-1" d="m336.19,207.6c.11.05-.99,2.88-2.45,6.33-1.47,3.45-2.75,6.2-2.86,6.16-.11-.05.98-2.88,2.45-6.33,1.47-3.45,2.75-6.2,2.86-6.16Z"/>
        <path class="cls-1" d="m334.04,208.24c.11.05-.73,2.29-1.89,5.01-1.16,2.72-2.19,4.89-2.3,4.84-.11-.05.73-2.29,1.89-5.01,1.16-2.72,2.18-4.89,2.3-4.84Z"/>
      </g>
      <g>
        <path class="cls-2" d="m462.15,50.26c-.08,0,.02-1.3-.54-3.54-.26-1.12-.79-2.44-1.63-3.84-.84-1.39-2.05-2.85-3.69-4.08-1.63-1.22-3.69-2.26-6.07-2.68-2.36-.4-5.02-.33-7.55.64-1.28.44-2.5,1.11-3.63,1.96-.58.4-1.09.9-1.63,1.39-.48.54-.99,1.06-1.41,1.67-1.77,2.35-2.76,5.37-2.79,8.49.03,3.12,1.02,6.14,2.79,8.49.42.61.92,1.13,1.41,1.67.53.48,1.05.99,1.63,1.39,1.13.85,2.36,1.52,3.64,1.96,2.53.97,5.2,1.04,7.56.64,2.38-.42,4.44-1.46,6.07-2.68,1.64-1.23,2.85-2.69,3.69-4.08.83-1.4,1.36-2.72,1.63-3.84.56-2.24.46-3.55.54-3.54,0,0,.01.08.01.24,0,.18,0,.41-.01.7,0,.31-.02.69-.09,1.13-.06.44-.12.96-.28,1.52-.24,1.14-.76,2.49-1.58,3.93-.83,1.43-2.05,2.93-3.71,4.21-1.66,1.26-3.76,2.34-6.19,2.79-2.42.43-5.15.36-7.76-.62-1.31-.45-2.58-1.14-3.75-2-.6-.41-1.13-.93-1.68-1.42-.5-.55-1.02-1.09-1.45-1.71-1.82-2.42-2.86-5.54-2.88-8.75.03-3.21,1.06-6.33,2.89-8.74.43-.62.95-1.16,1.45-1.71.55-.5,1.08-1.01,1.68-1.42,1.17-.87,2.43-1.55,3.75-2,2.61-.98,5.34-1.05,7.76-.62,2.43.44,4.53,1.52,6.19,2.79,1.66,1.28,2.88,2.77,3.71,4.2.83,1.44,1.34,2.79,1.58,3.93.16.56.22,1.08.28,1.52.08.44.09.82.09,1.13,0,.28,0,.51.01.7,0,.16,0,.24-.01.24Z"/>
        <path class="cls-1" d="m459.77,42.41c.08.09-4.8,4.29-10.89,9.38-6.09,5.09-11.09,9.14-11.17,9.04-.08-.09,4.8-4.29,10.89-9.38,6.09-5.09,11.09-9.13,11.17-9.04Z"/>
        <path class="cls-1" d="m461.22,45.13c.08.09-4.64,4.17-10.54,9.09-5.9,4.93-10.75,8.85-10.83,8.76-.08-.09,4.64-4.16,10.55-9.09,5.9-4.93,10.75-8.85,10.83-8.75Z"/>
        <path class="cls-1" d="m461.91,48.48c.08.09-4.06,3.68-9.24,8-5.18,4.33-9.45,7.76-9.52,7.67-.08-.09,4.06-3.68,9.24-8,5.18-4.33,9.44-7.76,9.52-7.66Z"/>
        <path class="cls-1" d="m462.15,52.21c.08.09-3.24,3-7.42,6.48-4.18,3.49-7.62,6.24-7.7,6.14-.08-.09,3.24-3,7.42-6.48,4.18-3.49,7.62-6.24,7.7-6.14Z"/>
        <path class="cls-1" d="m457.53,40.17c.08.09-4.8,4.29-10.89,9.38-6.09,5.09-11.09,9.14-11.17,9.04-.08-.09,4.8-4.29,10.89-9.38,6.09-5.09,11.09-9.13,11.17-9.04Z"/>
        <path class="cls-1" d="m455.29,37.94c.08.09-4.8,4.29-10.89,9.38-6.09,5.09-11.09,9.14-11.17,9.04-.08-.09,4.8-4.29,10.89-9.38,6.09-5.09,11.09-9.13,11.17-9.04Z"/>
        <path class="cls-1" d="m452.18,36.42c.08.09-4.12,3.73-9.38,8.12-5.26,4.39-9.58,7.88-9.66,7.78-.08-.09,4.12-3.73,9.38-8.12,5.26-4.39,9.58-7.87,9.66-7.78Z"/>
        <path class="cls-1" d="m448.15,35.68c.08.09-3.22,2.98-7.37,6.44-4.15,3.46-7.57,6.2-7.65,6.1-.08-.09,3.22-2.98,7.37-6.44,4.15-3.46,7.57-6.2,7.65-6.1Z"/>
      </g>
      <circle class="cls-1" cx="432" cy="28.54" r="2.71"/>
      <circle class="cls-1" cx="353.7" cy="207.14" r="2.71"/>
    </g>
  </g>
</svg>